<?xml version="1.0" standalone="no"?>
<!DOCTYPE svg PUBLIC "-//W3C//DTD SVG 1.1//EN" "http://www.w3.org/Graphics/SVG/1.1/DTD/svg11.dtd" >
<svg xmlns="http://www.w3.org/2000/svg" xmlns:xlink="http://www.w3.org/1999/xlink" version="1.1">
<metadata></metadata>
<defs>
<font id="choplinextralight-demo" horiz-adv-x="846" >
<font-face units-per-em="1000" ascent="800" descent="-200" />
<missing-glyph horiz-adv-x="276" />
<glyph unicode="fi" horiz-adv-x="729" d="M682 41v-41h-247v41h101v373h-343v-373h134v-41h-280v41h101v373h-138v42h138v118c0 116 70 182 171 182c63 0 95 -11 151 -28l-9 -38c-48 14 -78 24 -139 24c-77 0 -129 -49 -129 -140v-118h388v-415h101z" />
<glyph unicode="fl" horiz-adv-x="709" d="M662 41v-41h-247v41h101v622c-56 35 -106 51 -155 51c-112 0 -168 -58 -168 -179v-79h192v-42h-192v-373h134v-41h-280v41h101v373h-138v42h138v79c0 147 77 221 211 221c53 0 108 -15 176 -54h26v-661h101z" />
<glyph unicode="ff" horiz-adv-x="754" d="M557 456h192v-42h-192v-373h134v-41h-280v41h101v373h-319v-373h134v-41h-280v41h101v373h-138v42h138v79c0 147 77 221 211 221c54 0 111 -16 183 -58c26 37 69 58 121 58c24 0 55 -4 88 -13l-8 -37c-26 6 -54 10 -75 10c-67 0 -111 -47 -111 -122v-138zM512 456v138 c0 24 4 46 10 65c-59 38 -111 55 -161 55c-112 0 -168 -58 -168 -179v-79h319z" />
<glyph unicode="ffi" horiz-adv-x="1092" d="M1045 41v-41h-247v41h102v373h-343v-373h134v-41h-280v41h101v373h-319v-373h134v-41h-280v41h101v373h-138v42h138v79c0 147 77 221 211 221c56 0 114 -17 189 -61c30 40 77 61 135 61c64 0 95 -11 151 -28l-9 -38c-48 14 -78 24 -139 24c-77 0 -129 -49 -129 -140v-118 h388v-415h100zM512 456v118c0 31 5 59 14 82c-60 40 -114 58 -165 58c-112 0 -168 -58 -168 -179v-79h319z" />
<glyph unicode="ffl" horiz-adv-x="1072" d="M1025 41v-41h-247v41h102v622c-56 35 -106 51 -155 51c-112 0 -168 -58 -168 -179v-79h192v-42h-192v-373h134v-41h-280v41h101v373h-319v-373h134v-41h-280v41h101v373h-138v42h138v79c0 147 77 221 211 221c55 0 113 -16 198 -67c36 45 92 67 166 67 c53 0 108 -15 176 -54h26v-661h100zM512 456v79c0 46 8 85 22 116c-68 45 -121 63 -173 63c-112 0 -168 -58 -168 -179v-79h319z" />
<glyph unicode="A" d="M829 41v-41h-272v41h137l-90 194h-364l-90 -194h135v-41h-268v41h83l280 598h-132v41h197l299 -639h85zM585 275l-163 351l-163 -351h326z" />
<glyph unicode="&#xc1;" d="M445 340l294 -295l-25 -25l-294 295l-295 -295l-25 25l295 295l-295 294l25 25l295 -294l294 294l25 -25z" />
<glyph unicode="&#x102;" d="M445 340l294 -295l-25 -25l-294 295l-295 -295l-25 25l295 295l-295 294l25 25l295 -294l294 294l25 -25z" />
<glyph unicode="&#x1cd;" d="M445 340l294 -295l-25 -25l-294 295l-295 -295l-25 25l295 295l-295 294l25 25l295 -294l294 294l25 -25z" />
<glyph unicode="&#xc2;" d="M445 340l294 -295l-25 -25l-294 295l-295 -295l-25 25l295 295l-295 294l25 25l295 -294l294 294l25 -25z" />
<glyph unicode="&#xc4;" d="M334 787c-20 0 -37 16 -37 37c0 20 17 36 37 36s37 -16 37 -36c0 -21 -17 -37 -37 -37zM510 787c-20 0 -37 16 -37 37c0 20 17 36 37 36s37 -16 37 -36c0 -21 -17 -37 -37 -37zM829 41v-41h-272v41h137l-90 194h-364l-90 -194h135v-41h-268v41h83l280 598h-132v41h197 l299 -639h85zM585 275l-163 351l-163 -351h326z" />
<glyph unicode="&#xc0;" d="M445 340l294 -295l-25 -25l-294 295l-295 -295l-25 25l295 295l-295 294l25 25l295 -294l294 294l25 -25z" />
<glyph unicode="&#x100;" d="M445 340l294 -295l-25 -25l-294 295l-295 -295l-25 25l295 295l-295 294l25 25l295 -294l294 294l25 -25z" />
<glyph unicode="&#x104;" d="M445 340l294 -295l-25 -25l-294 295l-295 -295l-25 25l295 295l-295 294l25 25l295 -294l294 294l25 -25z" />
<glyph unicode="&#xc5;" d="M445 340l294 -295l-25 -25l-294 295l-295 -295l-25 25l295 295l-295 294l25 25l295 -294l294 294l25 -25z" />
<glyph unicode="&#xc3;" d="M445 340l294 -295l-25 -25l-294 295l-295 -295l-25 25l295 295l-295 294l25 25l295 -294l294 294l25 -25z" />
<glyph unicode="&#xc6;" horiz-adv-x="1135" d="M1071 680v-182h-43v139h-373v-277h297v-42h-297v-275h373v139h43v-182h-574v41h112v196h-295l-146 -196h130v-41h-281v41h94l446 598h-93v41h607zM609 278v357l-265 -357h265z" />
<glyph unicode="B" horiz-adv-x="741" d="M522 353c109 -19 165 -80 165 -167c0 -112 -100 -186 -251 -186h-379v41h111v598h-111v41h375c132 0 217 -67 217 -167c0 -80 -44 -138 -127 -160zM214 639v-271h201c122 0 188 51 188 140c0 79 -66 131 -173 131h-216zM214 41h221c125 0 205 60 205 148 s-73 137 -203 137h-223v-285z" />
<glyph unicode="C" horiz-adv-x="800" d="M685 226h49c-33 -141 -158 -240 -321 -240c-196 0 -356 156 -356 354s159 354 354 354c124 0 225 -55 277 -143v129h45v-226h-46c-30 116 -136 195 -274 195c-172 0 -308 -136 -308 -309s136 -309 308 -309c138 0 242 79 272 195z" />
<glyph unicode="&#x106;" d="M445 340l294 -295l-25 -25l-294 295l-295 -295l-25 25l295 295l-295 294l25 25l295 -294l294 294l25 -25z" />
<glyph unicode="&#x10c;" d="M445 340l294 -295l-25 -25l-294 295l-295 -295l-25 25l295 295l-295 294l25 25l295 -294l294 294l25 -25z" />
<glyph unicode="&#xc7;" d="M445 340l294 -295l-25 -25l-294 295l-295 -295l-25 25l295 295l-295 294l25 25l295 -294l294 294l25 -25z" />
<glyph unicode="&#x10a;" d="M445 340l294 -295l-25 -25l-294 295l-295 -295l-25 25l295 295l-295 294l25 25l295 -294l294 294l25 -25z" />
<glyph unicode="D" horiz-adv-x="808" d="M57 680h339c211 0 355 -136 355 -335c0 -205 -144 -345 -355 -345h-339v41h111v598h-111v41zM214 43h182c182 0 307 122 307 302c0 173 -125 292 -307 292h-182v-594z" />
<glyph unicode="&#xd0;" d="M445 340l294 -295l-25 -25l-294 295l-295 -295l-25 25l295 295l-295 294l25 25l295 -294l294 294l25 -25z" />
<glyph unicode="&#x10e;" d="M445 340l294 -295l-25 -25l-294 295l-295 -295l-25 25l295 295l-295 294l25 25l295 -294l294 294l25 -25z" />
<glyph unicode="&#x110;" d="M445 340l294 -295l-25 -25l-294 295l-295 -295l-25 25l295 295l-295 294l25 25l295 -294l294 294l25 -25z" />
<glyph unicode="E" horiz-adv-x="694" d="M587 498v139h-373v-277h298v-42h-298v-275h373v139h43v-139h1v-43h-574v41h111v598h-111v41h574v-43h-1v-139h-43z" />
<glyph unicode="&#xc9;" d="M445 340l294 -295l-25 -25l-294 295l-295 -295l-25 25l295 295l-295 294l25 25l295 -294l294 294l25 -25z" />
<glyph unicode="&#x11a;" d="M445 340l294 -295l-25 -25l-294 295l-295 -295l-25 25l295 295l-295 294l25 25l295 -294l294 294l25 -25z" />
<glyph unicode="&#xca;" d="M445 340l294 -295l-25 -25l-294 295l-295 -295l-25 25l295 295l-295 294l25 25l295 -294l294 294l25 -25z" />
<glyph unicode="&#xcb;" d="M445 340l294 -295l-25 -25l-294 295l-295 -295l-25 25l295 295l-295 294l25 25l295 -294l294 294l25 -25z" />
<glyph unicode="&#x116;" d="M445 340l294 -295l-25 -25l-294 295l-295 -295l-25 25l295 295l-295 294l25 25l295 -294l294 294l25 -25z" />
<glyph unicode="&#xc8;" d="M445 340l294 -295l-25 -25l-294 295l-295 -295l-25 25l295 295l-295 294l25 25l295 -294l294 294l25 -25z" />
<glyph unicode="&#x112;" d="M445 340l294 -295l-25 -25l-294 295l-295 -295l-25 25l295 295l-295 294l25 25l295 -294l294 294l25 -25z" />
<glyph unicode="&#x118;" d="M445 340l294 -295l-25 -25l-294 295l-295 -295l-25 25l295 295l-295 294l25 25l295 -294l294 294l25 -25z" />
<glyph unicode="F" horiz-adv-x="678" d="M624 637h-1v-139h-43v139h-366v-293h312v-42h-312v-261h119v-41h-276v41h111v598h-111v41h567v-43z" />
<glyph unicode="G" horiz-adv-x="833" d="M420 649c-171 0 -315 -136 -315 -309c0 -171 132 -309 304 -309c161 0 271 121 285 277h-282v40h327v-348h-40l-2 170c-51 -110 -154 -184 -290 -184c-198 0 -350 158 -350 354c0 198 167 354 362 354c124 0 225 -55 276 -143v129h45v-224h-45c-31 114 -136 193 -275 193 z" />
<glyph unicode="&#x11e;" d="M445 340l294 -295l-25 -25l-294 295l-295 -295l-25 25l295 295l-295 294l25 25l295 -294l294 294l25 -25z" />
<glyph unicode="&#x122;" d="M445 340l294 -295l-25 -25l-294 295l-295 -295l-25 25l295 295l-295 294l25 25l295 -294l294 294l25 -25z" />
<glyph unicode="&#x120;" d="M445 340l294 -295l-25 -25l-294 295l-295 -295l-25 25l295 295l-295 294l25 25l295 -294l294 294l25 -25z" />
<glyph unicode="H" horiz-adv-x="878" d="M709 639v-598h112v-41h-269v41h111v276h-449v-276h112v-41h-269v41h111v598h-111v41h269v-41h-112v-280h449v280h-111v41h269v-41h-112z" />
<glyph unicode="&#x126;" d="M445 340l294 -295l-25 -25l-294 295l-295 -295l-25 25l295 295l-295 294l25 25l295 -294l294 294l25 -25z" />
<glyph unicode="I" horiz-adv-x="383" d="M214 639v-598h112v-41h-269v41h111v598h-111v41h269v-41h-112z" />
<glyph unicode="&#x132;" horiz-adv-x="1055" d="M326 680v-41h-112v-598h112v-41h-269v41h111v598h-111v41h269zM1042 639h-116v-398c0 -154 -102 -256 -256 -256s-255 102 -255 256h47c0 -128 83 -213 211 -213c125 0 206 85 206 213v398h-246v41h409v-41z" />
<glyph unicode="&#xcd;" d="M445 340l294 -295l-25 -25l-294 295l-295 -295l-25 25l295 295l-295 294l25 25l295 -294l294 294l25 -25z" />
<glyph unicode="&#xce;" d="M445 340l294 -295l-25 -25l-294 295l-295 -295l-25 25l295 295l-295 294l25 25l295 -294l294 294l25 -25z" />
<glyph unicode="&#xcf;" d="M445 340l294 -295l-25 -25l-294 295l-295 -295l-25 25l295 295l-295 294l25 25l295 -294l294 294l25 -25z" />
<glyph unicode="&#x130;" d="M445 340l294 -295l-25 -25l-294 295l-295 -295l-25 25l295 295l-295 294l25 25l295 -294l294 294l25 -25z" />
<glyph unicode="&#xcc;" d="M445 340l294 -295l-25 -25l-294 295l-295 -295l-25 25l295 295l-295 294l25 25l295 -294l294 294l25 -25z" />
<glyph unicode="&#x12a;" d="M445 340l294 -295l-25 -25l-294 295l-295 -295l-25 25l295 295l-295 294l25 25l295 -294l294 294l25 -25z" />
<glyph unicode="&#x12e;" d="M445 340l294 -295l-25 -25l-294 295l-295 -295l-25 25l295 295l-295 294l25 25l295 -294l294 294l25 -25z" />
<glyph unicode="J" horiz-adv-x="686" d="M673 639h-116v-398c0 -154 -102 -256 -256 -256s-255 102 -255 256h47c0 -128 83 -213 211 -213c125 0 206 85 206 213v398h-246v41h409v-41z" />
<glyph unicode="K" horiz-adv-x="840" d="M818 41v-41h-314v41h118l-259 296l-148 -145v-151h112v-41h-270v41h112v598h-112v41h270v-41h-112v-387l399 387h-130v41h281v-41h-94l-274 -269l284 -329h137z" />
<glyph unicode="&#x136;" d="M445 340l294 -295l-25 -25l-294 295l-295 -295l-25 25l295 295l-295 294l25 25l295 -294l294 294l25 -25z" />
<glyph unicode="L" horiz-adv-x="683" d="M620 182v-182h-563v41h111v598h-111v41h317v-41h-160v-597h360v140h46z" />
<glyph unicode="&#x139;" d="M445 340l294 -295l-25 -25l-294 295l-295 -295l-25 25l295 295l-295 294l25 25l295 -294l294 294l25 -25z" />
<glyph unicode="&#x13d;" d="M445 340l294 -295l-25 -25l-294 295l-295 -295l-25 25l295 295l-295 294l25 25l295 -294l294 294l25 -25z" />
<glyph unicode="&#x13b;" d="M445 340l294 -295l-25 -25l-294 295l-295 -295l-25 25l295 295l-295 294l25 25l295 -294l294 294l25 -25z" />
<glyph unicode="&#x13f;" d="M445 340l294 -295l-25 -25l-294 295l-295 -295l-25 25l295 295l-295 294l25 25l295 -294l294 294l25 -25z" />
<glyph unicode="&#x141;" d="M445 340l294 -295l-25 -25l-294 295l-295 -295l-25 25l295 295l-295 294l25 25l295 -294l294 294l25 -25z" />
<glyph unicode="M" horiz-adv-x="991" d="M821 639v-598h113v-41h-274v41h114l1 543l-261 -437h-37l-261 437l2 -543h113v-41h-274v41h114v598h-106v41h143l288 -478l288 478h150v-41h-113z" />
<glyph unicode="N" horiz-adv-x="873" d="M844 639h-112v-639h-44l-474 603v-562h112v-41h-269v41h111v598h-111v41h152l477 -607v566h-111v41h269v-41z" />
<glyph unicode="&#x143;" d="M445 340l294 -295l-25 -25l-294 295l-295 -295l-25 25l295 295l-295 294l25 25l295 -294l294 294l25 -25z" />
<glyph unicode="&#x147;" d="M445 340l294 -295l-25 -25l-294 295l-295 -295l-25 25l295 295l-295 294l25 25l295 -294l294 294l25 -25z" />
<glyph unicode="&#x145;" d="M445 340l294 -295l-25 -25l-294 295l-295 -295l-25 25l295 295l-295 294l25 25l295 -294l294 294l25 -25z" />
<glyph unicode="&#xd1;" d="M445 340l294 -295l-25 -25l-294 295l-295 -295l-25 25l295 295l-295 294l25 25l295 -294l294 294l25 -25z" />
<glyph unicode="&#x14a;" d="M445 340l294 -295l-25 -25l-294 295l-295 -295l-25 25l295 295l-295 294l25 25l295 -294l294 294l25 -25z" />
<glyph unicode="O" horiz-adv-x="822" d="M411 694c196 0 354 -158 354 -354s-158 -354 -354 -354s-354 158 -354 354s158 354 354 354zM411 30c171 0 307 139 307 310s-136 310 -307 310s-307 -139 -307 -310s136 -310 307 -310z" />
<glyph unicode="&#xd3;" d="M445 340l294 -295l-25 -25l-294 295l-295 -295l-25 25l295 295l-295 294l25 25l295 -294l294 294l25 -25z" />
<glyph unicode="&#xd4;" d="M445 340l294 -295l-25 -25l-294 295l-295 -295l-25 25l295 295l-295 294l25 25l295 -294l294 294l25 -25z" />
<glyph unicode="&#xd6;" horiz-adv-x="822" d="M321 860c20 0 37 -16 37 -36c0 -21 -17 -37 -37 -37s-37 16 -37 37c0 20 17 36 37 36zM497 860c20 0 37 -16 37 -36c0 -21 -17 -37 -37 -37s-37 16 -37 37c0 20 17 36 37 36zM411 694c196 0 354 -158 354 -354s-158 -354 -354 -354s-354 158 -354 354s158 354 354 354z M411 30c171 0 307 139 307 310s-136 310 -307 310s-307 -139 -307 -310s136 -310 307 -310z" />
<glyph unicode="&#xd2;" d="M445 340l294 -295l-25 -25l-294 295l-295 -295l-25 25l295 295l-295 294l25 25l295 -294l294 294l25 -25z" />
<glyph unicode="&#x150;" d="M445 340l294 -295l-25 -25l-294 295l-295 -295l-25 25l295 295l-295 294l25 25l295 -294l294 294l25 -25z" />
<glyph unicode="&#x14c;" d="M445 340l294 -295l-25 -25l-294 295l-295 -295l-25 25l295 295l-295 294l25 25l295 -294l294 294l25 -25z" />
<glyph unicode="&#xd8;" horiz-adv-x="822" d="M725 667l-64 -76c64 -64 104 -153 104 -251c0 -196 -158 -354 -354 -354c-76 0 -146 24 -203 64l-55 -65l-31 25l54 65c-73 64 -119 159 -119 265c0 196 158 354 354 354c83 0 160 -29 220 -77l63 75zM104 340c0 -92 39 -174 101 -231l397 474c-52 42 -118 67 -191 67 c-171 0 -307 -139 -307 -310zM411 30c171 0 307 139 307 310c0 84 -33 160 -87 216l-395 -471c49 -35 109 -55 175 -55z" />
<glyph unicode="&#xd5;" d="M445 340l294 -295l-25 -25l-294 295l-295 -295l-25 25l295 295l-295 294l25 25l295 -294l294 294l25 -25z" />
<glyph unicode="&#x152;" horiz-adv-x="1071" d="M964 498v139h-373v-277h298v-42h-298v-275h373v139h43v-139h1v-43h-538c-255 0 -413 144 -413 340s158 340 413 340h538v-43h-1v-139h-43zM545 44v592h-75c-230 0 -366 -125 -366 -296s136 -296 366 -296h75z" />
<glyph unicode="P" horiz-adv-x="688" d="M57 680h339c154 0 257 -88 257 -220c0 -134 -104 -223 -261 -223h-178v-196h140v-41h-297v41h111v598h-111v41zM214 280h181c127 0 211 72 211 180c0 106 -84 177 -211 177h-181v-357z" />
<glyph unicode="&#xde;" horiz-adv-x="688" d="M214 566h182c154 0 257 -88 257 -220c0 -134 -105 -223 -261 -223h-178v-123h-157v41h111v598h-111v41h157v-114zM214 165h181c126 0 211 72 211 181c0 106 -85 177 -211 177h-181v-358z" />
<glyph unicode="Q" horiz-adv-x="822" d="M411 694c196 0 354 -158 354 -354s-158 -354 -354 -354s-354 158 -354 354s158 354 354 354zM411 30c171 0 307 139 307 310s-136 310 -307 310s-307 -139 -307 -310s136 -310 307 -310zM759 -144l-9 -45c-107 32 -211 70 -317 110l7 34z" />
<glyph unicode="R" horiz-adv-x="770" d="M760 41v-41h-194v40l-188 221h-164v-220h114v-41h-271v41h111v598h-111v41h349c153 0 254 -80 254 -211c0 -122 -89 -198 -226 -207l189 -221h137zM214 301h192c125 0 208 63 208 168c0 106 -83 168 -208 168h-192v-336z" />
<glyph unicode="&#x154;" d="M445 340l294 -295l-25 -25l-294 295l-295 -295l-25 25l295 295l-295 294l25 25l295 -294l294 294l25 -25z" />
<glyph unicode="&#x158;" d="M445 340l294 -295l-25 -25l-294 295l-295 -295l-25 25l295 295l-295 294l25 25l295 -294l294 294l25 -25z" />
<glyph unicode="&#x156;" d="M445 340l294 -295l-25 -25l-294 295l-295 -295l-25 25l295 295l-295 294l25 25l295 -294l294 294l25 -25z" />
<glyph unicode="S" horiz-adv-x="694" d="M307 380l132 -21c116 -19 183 -81 183 -175c0 -120 -97 -199 -245 -199c-123 0 -208 48 -251 131v-116h-45v215h45c30 -120 111 -187 250 -187c119 0 199 62 199 154c0 68 -49 118 -145 134l-141 23c-129 21 -187 83 -187 171c0 111 93 185 234 185 c111 0 186 -40 224 -106v91h42v-176h-44c-24 90 -93 150 -220 150c-114 0 -187 -57 -187 -144c0 -67 47 -112 156 -130z" />
<glyph unicode="&#x15a;" d="M445 340l294 -295l-25 -25l-294 295l-295 -295l-25 25l295 295l-295 294l25 25l295 -294l294 294l25 -25z" />
<glyph unicode="&#x160;" d="M445 340l294 -295l-25 -25l-294 295l-295 -295l-25 25l295 295l-295 294l25 25l295 -294l294 294l25 -25z" />
<glyph unicode="&#x15e;" d="M445 340l294 -295l-25 -25l-294 295l-295 -295l-25 25l295 295l-295 294l25 25l295 -294l294 294l25 -25z" />
<glyph unicode="&#x218;" d="M445 340l294 -295l-25 -25l-294 295l-295 -295l-25 25l295 295l-295 294l25 25l295 -294l294 294l25 -25z" />
<glyph unicode="T" horiz-adv-x="685" d="M640 637h-1v-139h-43v139h-231v-596h135v-41h-314v41h133v596h-230v-139h-43v182h594v-43z" />
<glyph unicode="&#x164;" d="M445 340l294 -295l-25 -25l-294 295l-295 -295l-25 25l295 295l-295 294l25 25l295 -294l294 294l25 -25z" />
<glyph unicode="&#x162;" d="M445 340l294 -295l-25 -25l-294 295l-295 -295l-25 25l295 295l-295 294l25 25l295 -294l294 294l25 -25z" />
<glyph unicode="&#x21a;" d="M445 340l294 -295l-25 -25l-294 295l-295 -295l-25 25l295 295l-295 294l25 25l295 -294l294 294l25 -25z" />
<glyph unicode="&#x166;" d="M445 340l294 -295l-25 -25l-294 295l-295 -295l-25 25l295 295l-295 294l25 25l295 -294l294 294l25 -25z" />
<glyph unicode="U" horiz-adv-x="820" d="M805 639h-112v-357c0 -171 -113 -297 -283 -297c-171 0 -284 126 -284 297v357h-111v41h269v-41h-112v-357c0 -143 95 -254 238 -254c142 0 237 111 237 254v357h-111v41h269v-41z" />
<glyph unicode="&#xda;" d="M445 340l294 -295l-25 -25l-294 295l-295 -295l-25 25l295 295l-295 294l25 25l295 -294l294 294l25 -25z" />
<glyph unicode="&#xdb;" d="M445 340l294 -295l-25 -25l-294 295l-295 -295l-25 25l295 295l-295 294l25 25l295 -294l294 294l25 -25z" />
<glyph unicode="&#xdc;" horiz-adv-x="820" d="M322 787c-20 0 -37 16 -37 37c0 20 17 36 37 36s37 -16 37 -36c0 -21 -17 -37 -37 -37zM498 787c-20 0 -37 16 -37 37c0 20 17 36 37 36s37 -16 37 -36c0 -21 -17 -37 -37 -37zM805 639h-112v-357c0 -171 -113 -297 -283 -297c-171 0 -284 126 -284 297v357h-111v41h269 v-41h-112v-357c0 -143 95 -254 238 -254c142 0 237 111 237 254v357h-111v41h269v-41z" />
<glyph unicode="&#xd9;" d="M445 340l294 -295l-25 -25l-294 295l-295 -295l-25 25l295 295l-295 294l25 25l295 -294l294 294l25 -25z" />
<glyph unicode="&#x170;" d="M445 340l294 -295l-25 -25l-294 295l-295 -295l-25 25l295 295l-295 294l25 25l295 -294l294 294l25 -25z" />
<glyph unicode="&#x16a;" d="M445 340l294 -295l-25 -25l-294 295l-295 -295l-25 25l295 295l-295 294l25 25l295 -294l294 294l25 -25z" />
<glyph unicode="&#x172;" d="M445 340l294 -295l-25 -25l-294 295l-295 -295l-25 25l295 295l-295 294l25 25l295 -294l294 294l25 -25z" />
<glyph unicode="&#x16e;" d="M445 340l294 -295l-25 -25l-294 295l-295 -295l-25 25l295 295l-295 294l25 25l295 -294l294 294l25 -25z" />
<glyph unicode="V" horiz-adv-x="866" d="M851 639h-94l-301 -644h-46l-301 644h-94v41h280v-41h-133l271 -584l271 584h-133v41h280v-41z" />
<glyph unicode="W" horiz-adv-x="1168" d="M1054 639l-221 -643v-1h-46l-203 604l-203 -604h-45l-222 644h-99v41h276v-41h-128l195 -576l206 617h41l205 -616l195 575h-127v41h276v-41h-100z" />
<glyph unicode="&#x1e82;" d="M445 340l294 -295l-25 -25l-294 295l-295 -295l-25 25l295 295l-295 294l25 25l295 -294l294 294l25 -25z" />
<glyph unicode="&#x174;" d="M445 340l294 -295l-25 -25l-294 295l-295 -295l-25 25l295 295l-295 294l25 25l295 -294l294 294l25 -25z" />
<glyph unicode="&#x1e84;" d="M445 340l294 -295l-25 -25l-294 295l-295 -295l-25 25l295 295l-295 294l25 25l295 -294l294 294l25 -25z" />
<glyph unicode="&#x1e80;" d="M445 340l294 -295l-25 -25l-294 295l-295 -295l-25 25l295 295l-295 294l25 25l295 -294l294 294l25 -25z" />
<glyph unicode="X" horiz-adv-x="836" d="M791 41v-41h-277v41h120l-216 263l-217 -263h121v-41h-277v41h100l243 297l-235 301h-108v41h277v-41h-110l206 -265l205 265h-110v41h277v-41h-108l-235 -301l243 -297h101z" />
<glyph unicode="Y" horiz-adv-x="808" d="M428 250v-209h112v-41h-273v41h113v209h-1l-261 389h-103v41h279v-41h-122l232 -346l231 346h-121v41h279v-41h-104z" />
<glyph unicode="&#xdd;" d="M445 340l294 -295l-25 -25l-294 295l-295 -295l-25 25l295 295l-295 294l25 25l295 -294l294 294l25 -25z" />
<glyph unicode="&#x176;" d="M445 340l294 -295l-25 -25l-294 295l-295 -295l-25 25l295 295l-295 294l25 25l295 -294l294 294l25 -25z" />
<glyph unicode="&#x178;" d="M445 340l294 -295l-25 -25l-294 295l-295 -295l-25 25l295 295l-295 294l25 25l295 -294l294 294l25 -25z" />
<glyph unicode="&#x1ef2;" d="M445 340l294 -295l-25 -25l-294 295l-295 -295l-25 25l295 295l-295 294l25 25l295 -294l294 294l25 -25z" />
<glyph unicode="Z" horiz-adv-x="612" d="M104 42h425v140h44v-182h-535v27l468 611h-411v-140h-45v182h523v-27l-2 -1z" />
<glyph unicode="&#x179;" d="M445 340l294 -295l-25 -25l-294 295l-295 -295l-25 25l295 295l-295 294l25 25l295 -294l294 294l25 -25z" />
<glyph unicode="&#x17d;" d="M445 340l294 -295l-25 -25l-294 295l-295 -295l-25 25l295 295l-295 294l25 25l295 -294l294 294l25 -25z" />
<glyph unicode="&#x17b;" d="M445 340l294 -295l-25 -25l-294 295l-295 -295l-25 25l295 295l-295 294l25 25l295 -294l294 294l25 -25z" />
<glyph horiz-adv-x="688" d="M57 680h339c154 0 257 -88 257 -220c0 -134 -105 -223 -261 -223h-49v43h52c126 0 211 72 211 180c0 106 -85 177 -211 177h-181v-596h140v-41h-297v41h111v598h-111v41z" />
<glyph horiz-adv-x="770" d="M760 41v-41h-194v38l-195 223v40h35c124 0 207 63 207 168c0 106 -83 168 -207 168h-192v-596h114v-41h-271v41h111v598h-111v41h349c153 0 254 -80 254 -211c0 -124 -92 -200 -232 -207l194 -221h138z" />
<glyph d="M445 340l294 -295l-25 -25l-294 295l-295 -295l-25 25l295 295l-295 294l25 25l295 -294l294 294l25 -25z" />
<glyph d="M445 340l294 -295l-25 -25l-294 295l-295 -295l-25 25l295 295l-295 294l25 25l295 -294l294 294l25 -25z" />
<glyph d="M445 340l294 -295l-25 -25l-294 295l-295 -295l-25 25l295 295l-295 294l25 25l295 -294l294 294l25 -25z" />
<glyph horiz-adv-x="844" d="M757 -127l-159 166c-54 -34 -118 -53 -187 -53c-196 0 -354 158 -354 354s158 354 354 354s354 -158 354 -354c0 -111 -50 -209 -129 -274l151 -159zM104 340c0 -171 136 -310 307 -310s307 139 307 310s-136 310 -307 310s-307 -139 -307 -310z" />
<glyph horiz-adv-x="840" d="M818 41v-41h-314v41h117l-246 271h-160v-271h112v-41h-270v41h112v598h-112v41h270v-41h-112v-285h160l239 285h-130v41h281v-41h-92l-257 -304l264 -294h138z" />
<glyph d="M445 340l294 -295l-25 -25l-294 295l-295 -295l-25 25l295 295l-295 294l25 25l295 -294l294 294l25 -25z" />
<glyph horiz-adv-x="676" d="M604 182v-182h-535v27l225 293h-164v39h193l214 279h-412v-140h-45v182h523v-27l-225 -294h166v-39h-196l-213 -278h424v140h45z" />
<glyph d="M445 340l294 -295l-25 -25l-294 295l-295 -295l-25 25l295 295l-295 294l25 25l295 -294l294 294l25 -25z" />
<glyph d="M445 340l294 -295l-25 -25l-294 295l-295 -295l-25 25l295 295l-295 294l25 25l295 -294l294 294l25 -25z" />
<glyph d="M445 340l294 -295l-25 -25l-294 295l-295 -295l-25 25l295 295l-295 294l25 25l295 -294l294 294l25 -25z" />
<glyph unicode="a" horiz-adv-x="672" d="M517 414v-373h101v-41h-146v62c-44 -47 -104 -76 -178 -76c-133 0 -240 108 -240 242c0 133 107 241 240 241c74 0 134 -29 178 -76v63h146v-42h-101zM298 26c69 0 129 32 174 90v223c-45 58 -105 90 -174 90c-111 0 -199 -91 -199 -201s88 -202 199 -202z" />
<glyph unicode="&#xe1;" d="M445 340l294 -295l-25 -25l-294 295l-295 -295l-25 25l295 295l-295 294l25 25l295 -294l294 294l25 -25z" />
<glyph unicode="&#x103;" d="M445 340l294 -295l-25 -25l-294 295l-295 -295l-25 25l295 295l-295 294l25 25l295 -294l294 294l25 -25z" />
<glyph unicode="&#x1ce;" d="M445 340l294 -295l-25 -25l-294 295l-295 -295l-25 25l295 295l-295 294l25 25l295 -294l294 294l25 -25z" />
<glyph unicode="&#xe2;" d="M445 340l294 -295l-25 -25l-294 295l-295 -295l-25 25l295 295l-295 294l25 25l295 -294l294 294l25 -25z" />
<glyph unicode="&#xe4;" horiz-adv-x="672" d="M227 595c-20 0 -37 16 -37 37c0 20 17 36 37 36s37 -16 37 -36c0 -21 -17 -37 -37 -37zM403 595c-20 0 -37 16 -37 37c0 20 17 36 37 36s37 -16 37 -36c0 -21 -17 -37 -37 -37zM517 414v-373h101v-41h-146v62c-44 -47 -104 -76 -178 -76c-133 0 -240 108 -240 242 c0 133 107 241 240 241c74 0 134 -29 178 -76v63h146v-42h-101zM298 26c69 0 129 32 174 90v223c-45 58 -105 90 -174 90c-111 0 -199 -91 -199 -201s88 -202 199 -202z" />
<glyph unicode="&#xe0;" d="M445 340l294 -295l-25 -25l-294 295l-295 -295l-25 25l295 295l-295 294l25 25l295 -294l294 294l25 -25z" />
<glyph unicode="&#x101;" d="M445 340l294 -295l-25 -25l-294 295l-295 -295l-25 25l295 295l-295 294l25 25l295 -294l294 294l25 -25z" />
<glyph unicode="&#x105;" d="M445 340l294 -295l-25 -25l-294 295l-295 -295l-25 25l295 295l-295 294l25 25l295 -294l294 294l25 -25z" />
<glyph unicode="&#xe5;" d="M445 340l294 -295l-25 -25l-294 295l-295 -295l-25 25l295 295l-295 294l25 25l295 -294l294 294l25 -25z" />
<glyph unicode="&#xe3;" d="M445 340l294 -295l-25 -25l-294 295l-295 -295l-25 25l295 295l-295 294l25 25l295 -294l294 294l25 -25z" />
<glyph unicode="&#xe6;" horiz-adv-x="945" d="M892 227v-16l-7 2v-2h-412c7 -102 85 -185 200 -185c70 0 131 33 155 83h49c-28 -74 -109 -123 -205 -123c-87 0 -159 40 -201 102c-56 -60 -136 -102 -233 -102c-114 0 -188 57 -188 141c0 78 65 120 164 120h214c0 109 -64 184 -167 184c-71 0 -129 -36 -139 -89h-45 c13 84 96 129 185 129c94 0 164 -49 193 -130c40 77 119 128 212 128c132 0 224 -103 225 -242zM667 431c-104 0 -185 -82 -194 -183h375c-8 104 -78 183 -181 183zM241 26c83 0 155 33 210 96c-13 27 -20 57 -22 89h-216c-81 0 -119 -33 -119 -83c0 -60 54 -102 147 -102z " />
<glyph unicode="b" horiz-adv-x="672" d="M380 470c132 0 239 -108 239 -242c0 -133 -107 -241 -239 -241c-74 0 -135 29 -179 76v-63h-146v41h101v628h-101v41h146v-317c44 48 105 77 179 77zM375 27c112 0 199 91 199 201s-87 202 -199 202c-70 0 -130 -32 -174 -91v-222c44 -58 104 -90 174 -90z" />
<glyph unicode="c" horiz-adv-x="566" d="M466 143h47c-21 -97 -104 -156 -212 -156c-144 0 -247 106 -247 241c0 134 103 241 243 241c75 0 138 -31 173 -82v69h42v-144h-45c-18 70 -86 116 -168 116c-115 0 -200 -90 -200 -200s84 -200 203 -200c82 0 147 45 164 115z" />
<glyph unicode="&#x107;" d="M445 340l294 -295l-25 -25l-294 295l-295 -295l-25 25l295 295l-295 294l25 25l295 -294l294 294l25 -25z" />
<glyph unicode="&#x10d;" d="M445 340l294 -295l-25 -25l-294 295l-295 -295l-25 25l295 295l-295 294l25 25l295 -294l294 294l25 -25z" />
<glyph unicode="&#xe7;" d="M445 340l294 -295l-25 -25l-294 295l-295 -295l-25 25l295 295l-295 294l25 25l295 -294l294 294l25 -25z" />
<glyph unicode="&#x10b;" d="M445 340l294 -295l-25 -25l-294 295l-295 -295l-25 25l295 295l-295 294l25 25l295 -294l294 294l25 -25z" />
<glyph unicode="d" horiz-adv-x="665" d="M617 41v-41h-145v63c-44 -47 -104 -76 -178 -76c-133 0 -240 108 -240 241c0 134 107 242 240 242c74 0 134 -29 178 -77v276h-102v41h147v-669h100zM298 27c69 0 129 32 174 89v223c-45 59 -105 91 -174 91c-111 0 -199 -92 -199 -202s88 -201 199 -201z" />
<glyph unicode="&#xf0;" horiz-adv-x="601" d="M447 641l-80 -30c104 -86 178 -220 178 -383c0 -138 -108 -243 -244 -243c-137 0 -245 107 -245 243c0 135 108 241 245 241c75 0 140 -37 183 -92c-30 91 -87 164 -159 219l-151 -56l-12 33l127 47c-41 26 -85 46 -131 60l51 20c44 -14 86 -36 125 -63l101 37zM301 26 c111 0 199 91 199 202c0 110 -88 200 -199 200c-112 0 -200 -90 -200 -200c0 -111 88 -202 200 -202z" />
<glyph unicode="&#x10f;" d="M445 340l294 -295l-25 -25l-294 295l-295 -295l-25 25l295 295l-295 294l25 25l295 -294l294 294l25 -25z" />
<glyph unicode="&#x111;" d="M445 340l294 -295l-25 -25l-294 295l-295 -295l-25 25l295 295l-295 294l25 25l295 -294l294 294l25 -25z" />
<glyph unicode="e" horiz-adv-x="571" d="M518 227v-16l-7 2v-2h-412c7 -102 85 -185 200 -185c70 0 131 33 155 83h49c-28 -74 -109 -123 -205 -123c-143 0 -244 108 -244 242s105 241 239 241c132 0 224 -103 225 -242zM293 431c-104 0 -185 -82 -194 -183h375c-8 104 -78 183 -181 183z" />
<glyph unicode="&#xe9;" d="M445 340l294 -295l-25 -25l-294 295l-295 -295l-25 25l295 295l-295 294l25 25l295 -294l294 294l25 -25z" />
<glyph unicode="&#x11b;" d="M445 340l294 -295l-25 -25l-294 295l-295 -295l-25 25l295 295l-295 294l25 25l295 -294l294 294l25 -25z" />
<glyph unicode="&#xea;" d="M445 340l294 -295l-25 -25l-294 295l-295 -295l-25 25l295 295l-295 294l25 25l295 -294l294 294l25 -25z" />
<glyph unicode="&#xeb;" d="M445 340l294 -295l-25 -25l-294 295l-295 -295l-25 25l295 295l-295 294l25 25l295 -294l294 294l25 -25z" />
<glyph unicode="&#x117;" d="M445 340l294 -295l-25 -25l-294 295l-295 -295l-25 25l295 295l-295 294l25 25l295 -294l294 294l25 -25z" />
<glyph unicode="&#xe8;" d="M445 340l294 -295l-25 -25l-294 295l-295 -295l-25 25l295 295l-295 294l25 25l295 -294l294 294l25 -25z" />
<glyph unicode="&#x113;" d="M445 340l294 -295l-25 -25l-294 295l-295 -295l-25 25l295 295l-295 294l25 25l295 -294l294 294l25 -25z" />
<glyph unicode="&#x119;" d="M445 340l294 -295l-25 -25l-294 295l-295 -295l-25 25l295 295l-295 294l25 25l295 -294l294 294l25 -25z" />
<glyph unicode="f" horiz-adv-x="390" d="M193 456h192v-42h-192v-373h134v-41h-280v41h101v373h-138v42h138v138c0 98 60 162 151 162c24 0 55 -4 88 -13l-8 -37c-26 6 -54 10 -75 10c-67 0 -111 -47 -111 -122v-138z" />
<glyph unicode="g" horiz-adv-x="666" d="M619 414h-101v-459h-1c0 -128 -92 -213 -226 -213c-115 0 -201 65 -220 159h47c16 -70 83 -118 173 -118c108 0 182 69 182 172v109c-46 -49 -112 -78 -186 -78c-134 0 -233 108 -233 242c0 133 99 241 233 241c74 0 140 -29 186 -78v65h146v-42zM291 26 c71 0 140 35 182 97v209c-42 62 -111 97 -182 97c-113 0 -192 -91 -192 -201s79 -202 192 -202z" />
<glyph unicode="&#x11f;" d="M445 340l294 -295l-25 -25l-294 295l-295 -295l-25 25l295 295l-295 294l25 25l295 -294l294 294l25 -25z" />
<glyph unicode="&#x123;" d="M445 340l294 -295l-25 -25l-294 295l-295 -295l-25 25l295 295l-295 294l25 25l295 -294l294 294l25 -25z" />
<glyph unicode="&#x121;" d="M445 340l294 -295l-25 -25l-294 295l-295 -295l-25 25l295 295l-295 294l25 25l295 -294l294 294l25 -25z" />
<glyph unicode="h" horiz-adv-x="697" d="M676 41v-41h-247v41h101v227c0 103 -63 162 -153 162c-68 0 -136 -34 -176 -93v-296h101v-41h-247v41h101v628h-101v41h146v-316c43 48 108 77 182 77c112 0 191 -76 191 -202v-228h102z" />
<glyph unicode="&#x127;" d="M445 340l294 -295l-25 -25l-294 295l-295 -295l-25 25l295 295l-295 294l25 25l295 -294l294 294l25 -25z" />
<glyph unicode="i" horiz-adv-x="349" d="M178 594c-21 0 -37 15 -37 36s16 36 37 36c20 0 37 -15 37 -36s-17 -36 -37 -36zM302 41v-41h-247v41h101v373h-101v42h146v-415h101z" />
<glyph unicode="&#x131;" horiz-adv-x="349" d="M302 41v-41h-247v41h101v373h-101v42h146v-415h101z" />
<glyph unicode="&#xed;" d="M445 340l294 -295l-25 -25l-294 295l-295 -295l-25 25l295 295l-295 294l25 25l295 -294l294 294l25 -25z" />
<glyph unicode="&#xee;" d="M445 340l294 -295l-25 -25l-294 295l-295 -295l-25 25l295 295l-295 294l25 25l295 -294l294 294l25 -25z" />
<glyph unicode="&#xef;" d="M445 340l294 -295l-25 -25l-294 295l-295 -295l-25 25l295 295l-295 294l25 25l295 -294l294 294l25 -25z" />
<glyph d="M445 340l294 -295l-25 -25l-294 295l-295 -295l-25 25l295 295l-295 294l25 25l295 -294l294 294l25 -25z" />
<glyph unicode="&#xec;" d="M445 340l294 -295l-25 -25l-294 295l-295 -295l-25 25l295 295l-295 294l25 25l295 -294l294 294l25 -25z" />
<glyph unicode="&#x133;" horiz-adv-x="586" d="M178 594c-21 0 -37 15 -37 36s16 36 37 36c20 0 37 -15 37 -36s-17 -36 -37 -36zM485 666c21 0 37 -15 37 -36s-16 -36 -37 -36s-37 15 -37 36s16 36 37 36zM201 41h101v-41h-247v41h101v373h-101v42h146v-415zM508 456v-532c0 -122 -38 -170 -144 -180l-11 38 c81 8 110 44 110 139v493h-123v42h168z" />
<glyph unicode="&#x12b;" d="M445 340l294 -295l-25 -25l-294 295l-295 -295l-25 25l295 295l-295 294l25 25l295 -294l294 294l25 -25z" />
<glyph unicode="&#x12f;" d="M445 340l294 -295l-25 -25l-294 295l-295 -295l-25 25l295 295l-295 294l25 25l295 -294l294 294l25 -25z" />
<glyph unicode="j" horiz-adv-x="270" d="M169 666c21 0 37 -15 37 -36s-16 -36 -37 -36s-37 15 -37 36s16 36 37 36zM192 456v-532c0 -122 -38 -170 -144 -180l-11 38c81 8 110 44 110 139v493h-123v42h168z" />
<glyph unicode="k" horiz-adv-x="669" d="M661 41v-41h-147v29l-203 210l-110 -95v-103h104v-41h-250v41h101v628h-101v41h146v-515l258 222v39h145v-42h-91l-168 -145l219 -228h97z" />
<glyph unicode="&#x137;" d="M445 340l294 -295l-25 -25l-294 295l-295 -295l-25 25l295 295l-295 294l25 25l295 -294l294 294l25 -25z" />
<glyph unicode="l" horiz-adv-x="349" d="M302 41v-41h-247v41h101v628h-101v41h146v-669h101z" />
<glyph unicode="&#x13a;" d="M445 340l294 -295l-25 -25l-294 295l-295 -295l-25 25l295 295l-295 294l25 25l295 -294l294 294l25 -25z" />
<glyph unicode="&#x13e;" d="M445 340l294 -295l-25 -25l-294 295l-295 -295l-25 25l295 295l-295 294l25 25l295 -294l294 294l25 -25z" />
<glyph unicode="&#x13c;" d="M445 340l294 -295l-25 -25l-294 295l-295 -295l-25 25l295 295l-295 294l25 25l295 -294l294 294l25 -25z" />
<glyph unicode="&#x140;" d="M445 340l294 -295l-25 -25l-294 295l-295 -295l-25 25l295 295l-295 294l25 25l295 -294l294 294l25 -25z" />
<glyph unicode="&#x142;" d="M445 340l294 -295l-25 -25l-294 295l-295 -295l-25 25l295 295l-295 294l25 25l295 -294l294 294l25 -25z" />
<glyph unicode="m" horiz-adv-x="1020" d="M998 41v-41h-247v41h102v227c0 103 -54 162 -142 162c-69 0 -130 -35 -168 -101c4 -19 6 -39 6 -60v-228h101v-41h-247v41h101v227c0 103 -54 162 -142 162c-65 0 -124 -32 -161 -92v-297h101v-41h-247v41h101v373h-101v42h146v-61c39 47 94 76 167 76s130 -35 159 -96 c43 61 105 96 190 96c108 0 180 -76 180 -202v-228h101z" />
<glyph unicode="n" horiz-adv-x="697" d="M676 41v-41h-247v41h101v227c0 103 -63 162 -153 162c-68 0 -136 -34 -176 -93v-296h101v-41h-247v41h101v373h-101v42h146v-62c43 48 108 77 182 77c112 0 191 -76 191 -202v-228h102z" />
<glyph unicode="&#x144;" d="M445 340l294 -295l-25 -25l-294 295l-295 -295l-25 25l295 295l-295 294l25 25l295 -294l294 294l25 -25z" />
<glyph unicode="&#x148;" d="M445 340l294 -295l-25 -25l-294 295l-295 -295l-25 25l295 295l-295 294l25 25l295 -294l294 294l25 -25z" />
<glyph unicode="&#x146;" d="M445 340l294 -295l-25 -25l-294 295l-295 -295l-25 25l295 295l-295 294l25 25l295 -294l294 294l25 -25z" />
<glyph unicode="&#xf1;" d="M445 340l294 -295l-25 -25l-294 295l-295 -295l-25 25l295 295l-295 294l25 25l295 -294l294 294l25 -25z" />
<glyph unicode="&#x14b;" d="M445 340l294 -295l-25 -25l-294 295l-295 -295l-25 25l295 295l-295 294l25 25l295 -294l294 294l25 -25z" />
<glyph unicode="o" horiz-adv-x="594" d="M298 469c135 0 243 -106 243 -241c0 -136 -108 -243 -243 -243c-136 0 -244 107 -244 243c0 135 108 241 244 241zM298 26c110 0 197 91 197 202c0 110 -87 200 -197 200c-111 0 -199 -90 -199 -200c0 -111 88 -202 199 -202z" />
<glyph unicode="&#xf3;" d="M445 340l294 -295l-25 -25l-294 295l-295 -295l-25 25l295 295l-295 294l25 25l295 -294l294 294l25 -25z" />
<glyph unicode="&#xf4;" d="M445 340l294 -295l-25 -25l-294 295l-295 -295l-25 25l295 295l-295 294l25 25l295 -294l294 294l25 -25z" />
<glyph unicode="&#xf6;" horiz-adv-x="594" d="M210 668c20 0 37 -16 37 -36c0 -21 -17 -37 -37 -37s-37 16 -37 37c0 20 17 36 37 36zM386 668c20 0 37 -16 37 -36c0 -21 -17 -37 -37 -37s-37 16 -37 37c0 20 17 36 37 36zM298 469c135 0 243 -106 243 -241c0 -136 -108 -243 -243 -243c-136 0 -244 107 -244 243 c0 135 108 241 244 241zM298 26c110 0 197 91 197 202c0 110 -87 200 -197 200c-111 0 -199 -90 -199 -200c0 -111 88 -202 199 -202z" />
<glyph unicode="&#xf2;" d="M445 340l294 -295l-25 -25l-294 295l-295 -295l-25 25l295 295l-295 294l25 25l295 -294l294 294l25 -25z" />
<glyph unicode="&#x151;" d="M445 340l294 -295l-25 -25l-294 295l-295 -295l-25 25l295 295l-295 294l25 25l295 -294l294 294l25 -25z" />
<glyph unicode="&#x14d;" d="M445 340l294 -295l-25 -25l-294 295l-295 -295l-25 25l295 295l-295 294l25 25l295 -294l294 294l25 -25z" />
<glyph unicode="&#xf8;" horiz-adv-x="594" d="M492 446l-32 -38c50 -44 81 -108 81 -180c0 -136 -108 -243 -243 -243c-56 0 -108 18 -149 49l-36 -43l-27 23l37 44c-43 43 -69 103 -69 170c0 135 108 241 244 241c50 0 96 -15 135 -40l33 40zM99 228c0 -52 20 -100 52 -136l254 304c-31 20 -67 32 -107 32 c-111 0 -199 -90 -199 -200zM298 26c110 0 197 91 197 202c0 58 -24 110 -62 146l-256 -306c33 -26 75 -42 121 -42z" />
<glyph unicode="&#xf5;" d="M445 340l294 -295l-25 -25l-294 295l-295 -295l-25 25l295 295l-295 294l25 25l295 -294l294 294l25 -25z" />
<glyph unicode="&#x153;" horiz-adv-x="1019" d="M962 227v-16l-7 2v-2h-412c7 -102 85 -185 200 -185c70 0 131 33 155 83h49c-28 -74 -109 -123 -205 -123c-104 0 -186 57 -223 140c-38 -84 -122 -141 -221 -141c-136 0 -244 107 -244 243c0 135 108 241 244 241c99 0 183 -57 221 -140c38 83 120 140 218 140 c132 0 224 -103 225 -242zM737 431c-104 0 -185 -82 -194 -183h375c-8 104 -78 183 -181 183zM298 26c110 0 197 91 197 202c0 110 -87 200 -197 200c-111 0 -199 -90 -199 -200c0 -111 88 -202 199 -202z" />
<glyph unicode="p" horiz-adv-x="672" d="M380 469c132 0 239 -108 239 -241c0 -134 -107 -242 -239 -242c-74 0 -135 29 -179 76v-245h147v-41h-293v41h101v597h-101v42h146v-63c44 47 105 76 179 76zM375 26c112 0 199 92 199 202s-87 201 -199 201c-70 0 -130 -32 -174 -91v-221c44 -59 104 -91 174 -91z" />
<glyph unicode="&#xfe;" horiz-adv-x="672" d="M380 469c132 0 239 -108 239 -241c0 -134 -107 -242 -239 -242c-74 0 -135 29 -179 76v-286h-146v41h101v822h-101v41h146v-287c44 47 105 76 179 76zM375 26c112 0 199 92 199 202s-87 201 -199 201c-70 0 -130 -32 -174 -91v-221c44 -59 104 -91 174 -91z" />
<glyph unicode="q" horiz-adv-x="665" d="M618 -183v-41h-293v41h147v245c-44 -47 -104 -76 -178 -76c-133 0 -240 108 -240 242c0 133 107 241 240 241c74 0 134 -29 178 -76v63h145v-42h-100v-597h101zM298 26c69 0 129 32 174 90v223c-45 58 -105 90 -174 90c-111 0 -199 -91 -199 -201s88 -202 199 -202z" />
<glyph unicode="r" horiz-adv-x="425" d="M414 461v-44c-96 -1 -168 -38 -213 -70v-306h149v-41h-295v41h101v373h-101v42h146v-69c47 39 120 74 213 74z" />
<glyph unicode="&#x155;" d="M445 340l294 -295l-25 -25l-294 295l-295 -295l-25 25l295 295l-295 294l25 25l295 -294l294 294l25 -25z" />
<glyph unicode="&#x159;" d="M445 340l294 -295l-25 -25l-294 295l-295 -295l-25 25l295 295l-295 294l25 25l295 -294l294 294l25 -25z" />
<glyph unicode="&#x157;" d="M445 340l294 -295l-25 -25l-294 295l-295 -295l-25 25l295 295l-295 294l25 25l295 -294l294 294l25 -25z" />
<glyph unicode="s" horiz-adv-x="538" d="M230 262l105 -16c61 -9 140 -39 140 -126c0 -83 -65 -135 -177 -135c-97 0 -158 39 -192 82v-67h-42v135h42c31 -60 84 -112 189 -112c91 0 135 39 135 96c0 49 -40 78 -95 86l-110 17c-87 13 -145 48 -145 121c0 79 67 128 176 128c81 0 136 -28 165 -73v58h42v-127h-42 c-26 66 -71 105 -162 105c-89 0 -133 -37 -133 -89c0 -43 30 -71 104 -83z" />
<glyph unicode="&#x15b;" d="M445 340l294 -295l-25 -25l-294 295l-295 -295l-25 25l295 295l-295 294l25 25l295 -294l294 294l25 -25z" />
<glyph unicode="&#x161;" d="M445 340l294 -295l-25 -25l-294 295l-295 -295l-25 25l295 295l-295 294l25 25l295 -294l294 294l25 -25z" />
<glyph unicode="&#x15f;" d="M445 340l294 -295l-25 -25l-294 295l-295 -295l-25 25l295 295l-295 294l25 25l295 -294l294 294l25 -25z" />
<glyph unicode="&#x219;" d="M445 340l294 -295l-25 -25l-294 295l-295 -295l-25 25l295 295l-295 294l25 25l295 -294l294 294l25 -25z" />
<glyph unicode="&#xdf;" horiz-adv-x="683" d="M413 198h30c119 0 213 -87 213 -202c0 -123 -107 -210 -229 -210c-78 0 -159 35 -208 91l28 30c41 -47 110 -81 178 -81c101 0 186 73 186 171c0 92 -74 161 -170 161h-94v23l186 233h-332v-414h-146v41h101v560c0 92 62 153 154 153v-43c-66 0 -109 -44 -109 -110v-145 h395v-30l-1 -1z" />
<glyph unicode="t" horiz-adv-x="436" d="M392 37l8 -38c-37 -10 -64 -14 -90 -14c-103 0 -149 53 -149 174v255h-134v42h134v164h45v-164h172v-42h-172v-255c0 -95 32 -132 109 -132c23 0 51 4 77 10z" />
<glyph unicode="&#x165;" d="M445 340l294 -295l-25 -25l-294 295l-295 -295l-25 25l295 295l-295 294l25 25l295 -294l294 294l25 -25z" />
<glyph unicode="&#x163;" d="M445 340l294 -295l-25 -25l-294 295l-295 -295l-25 25l295 295l-295 294l25 25l295 -294l294 294l25 -25z" />
<glyph unicode="&#x21b;" d="M445 340l294 -295l-25 -25l-294 295l-295 -295l-25 25l295 295l-295 294l25 25l295 -294l294 294l25 -25z" />
<glyph unicode="&#x167;" d="M445 340l294 -295l-25 -25l-294 295l-295 -295l-25 25l295 295l-295 294l25 25l295 -294l294 294l25 -25z" />
<glyph unicode="u" horiz-adv-x="693" d="M648 41v-41h-146v63c-43 -49 -108 -78 -183 -78c-112 0 -191 76 -191 202v227h-101v42h146v-268c0 -103 63 -162 152 -162c69 0 137 34 177 93v295h-101v42h146v-415h101z" />
<glyph unicode="&#xfa;" d="M445 340l294 -295l-25 -25l-294 295l-295 -295l-25 25l295 295l-295 294l25 25l295 -294l294 294l25 -25z" />
<glyph unicode="&#xfb;" d="M445 340l294 -295l-25 -25l-294 295l-295 -295l-25 25l295 295l-295 294l25 25l295 -294l294 294l25 -25z" />
<glyph unicode="&#xfc;" horiz-adv-x="693" d="M254 595c-20 0 -37 16 -37 37c0 20 17 36 37 36s37 -16 37 -36c0 -21 -17 -37 -37 -37zM430 595c-20 0 -37 16 -37 37c0 20 17 36 37 36s37 -16 37 -36c0 -21 -17 -37 -37 -37zM648 41v-41h-146v63c-43 -49 -108 -78 -183 -78c-112 0 -191 76 -191 202v227h-101v42h146 v-268c0 -103 63 -162 152 -162c69 0 137 34 177 93v295h-101v42h146v-415h101z" />
<glyph unicode="&#xf9;" d="M445 340l294 -295l-25 -25l-294 295l-295 -295l-25 25l295 295l-295 294l25 25l295 -294l294 294l25 -25z" />
<glyph unicode="&#x171;" d="M445 340l294 -295l-25 -25l-294 295l-295 -295l-25 25l295 295l-295 294l25 25l295 -294l294 294l25 -25z" />
<glyph unicode="&#x16b;" d="M445 340l294 -295l-25 -25l-294 295l-295 -295l-25 25l295 295l-295 294l25 25l295 -294l294 294l25 -25z" />
<glyph unicode="&#x173;" d="M445 340l294 -295l-25 -25l-294 295l-295 -295l-25 25l295 295l-295 294l25 25l295 -294l294 294l25 -25z" />
<glyph unicode="&#x16f;" d="M445 340l294 -295l-25 -25l-294 295l-295 -295l-25 25l295 295l-295 294l25 25l295 -294l294 294l25 -25z" />
<glyph unicode="v" horiz-adv-x="618" d="M603 414h-68l-203 -414h-47l-203 414h-68v42h208v-42h-90l177 -361l176 361h-90v42h208v-42z" />
<glyph unicode="w" horiz-adv-x="831" d="M817 414h-71l-159 -414h-41l-130 389l-131 -389h-41l-159 414h-71v42h202v-42h-85l133 -352l133 394h37l133 -395l133 353h-85v42h202v-42z" />
<glyph unicode="&#x1e83;" d="M445 340l294 -295l-25 -25l-294 295l-295 -295l-25 25l295 295l-295 294l25 25l295 -294l294 294l25 -25z" />
<glyph unicode="&#x175;" d="M445 340l294 -295l-25 -25l-294 295l-295 -295l-25 25l295 295l-295 294l25 25l295 -294l294 294l25 -25z" />
<glyph unicode="&#x1e85;" d="M445 340l294 -295l-25 -25l-294 295l-295 -295l-25 25l295 295l-295 294l25 25l295 -294l294 294l25 -25z" />
<glyph unicode="&#x1e81;" d="M445 340l294 -295l-25 -25l-294 295l-295 -295l-25 25l295 295l-295 294l25 25l295 -294l294 294l25 -25z" />
<glyph unicode="x" horiz-adv-x="630" d="M345 227l166 -186h83v-41h-215v41h76l-139 154l-141 -154h76v-41h-215v41h83l167 187l-162 186h-88v42h215v-42h-71l135 -156l135 156h-71v42h215v-42h-87z" />
<glyph unicode="y" horiz-adv-x="650" d="M568 414l-285 -597h101v-41h-280v41h128l75 158l-215 439h-78v42h208v-42h-79l189 -387l186 387h-90v42h208v-42h-68z" />
<glyph unicode="&#xfd;" d="M445 340l294 -295l-25 -25l-294 295l-295 -295l-25 25l295 295l-295 294l25 25l295 -294l294 294l25 -25z" />
<glyph unicode="&#x177;" d="M445 340l294 -295l-25 -25l-294 295l-295 -295l-25 25l295 295l-295 294l25 25l295 -294l294 294l25 -25z" />
<glyph unicode="&#xff;" d="M445 340l294 -295l-25 -25l-294 295l-295 -295l-25 25l295 295l-295 294l25 25l295 -294l294 294l25 -25z" />
<glyph unicode="&#x1ef3;" d="M445 340l294 -295l-25 -25l-294 295l-295 -295l-25 25l295 295l-295 294l25 25l295 -294l294 294l25 -25z" />
<glyph unicode="z" horiz-adv-x="497" d="M451 135v-135h-403v30l340 387h-286v-94h-43v133h390v-32l-340 -385h299v96h43z" />
<glyph unicode="&#x17a;" d="M445 340l294 -295l-25 -25l-294 295l-295 -295l-25 25l295 295l-295 294l25 25l295 -294l294 294l25 -25z" />
<glyph unicode="&#x17e;" d="M445 340l294 -295l-25 -25l-294 295l-295 -295l-25 25l295 295l-295 294l25 25l295 -294l294 294l25 -25z" />
<glyph unicode="&#x17c;" d="M445 340l294 -295l-25 -25l-294 295l-295 -295l-25 25l295 295l-295 294l25 25l295 -294l294 294l25 -25z" />
<glyph horiz-adv-x="1374" d="M307 380l132 -21c116 -19 183 -81 183 -175c0 -120 -97 -199 -245 -199c-123 0 -208 48 -251 131v-116h-45v215h45c30 -120 111 -187 250 -187c119 0 199 62 199 154c0 68 -49 118 -145 134l-141 23c-129 21 -187 83 -187 171c0 111 93 185 234 185 c111 0 186 -40 224 -106v91h42v-176h-44c-24 90 -93 150 -220 150c-114 0 -187 -57 -187 -144c0 -67 47 -112 156 -130zM987 380l132 -21c116 -19 183 -81 183 -175c0 -120 -97 -199 -245 -199c-123 0 -208 48 -251 131v-116h-45v215h45c30 -120 111 -187 250 -187 c119 0 199 62 199 154c0 68 -49 118 -145 134l-141 23c-129 21 -187 83 -187 171c0 111 93 185 234 185c111 0 186 -40 224 -106v91h42v-176h-44c-24 90 -93 150 -220 150c-114 0 -187 -57 -187 -144c0 -67 47 -112 156 -130z" />
<glyph horiz-adv-x="401" d="M358 39l7 -40c-34 -9 -64 -14 -88 -14c-77 0 -121 44 -121 136v548h-101v41h146v-586c0 -67 28 -96 80 -96c22 0 50 5 77 11z" />
<glyph d="M445 340l294 -295l-25 -25l-294 295l-295 -295l-25 25l295 295l-295 294l25 25l295 -294l294 294l25 -25z" />
<glyph d="M445 340l294 -295l-25 -25l-294 295l-295 -295l-25 25l295 295l-295 294l25 25l295 -294l294 294l25 -25z" />
<glyph d="M445 340l294 -295l-25 -25l-294 295l-295 -295l-25 25l295 295l-295 294l25 25l295 -294l294 294l25 -25z" />
<glyph d="M445 340l294 -295l-25 -25l-294 295l-295 -295l-25 25l295 295l-295 294l25 25l295 -294l294 294l25 -25z" />
<glyph d="M445 340l294 -295l-25 -25l-294 295l-295 -295l-25 25l295 295l-295 294l25 25l295 -294l294 294l25 -25z" />
<glyph horiz-adv-x="646" d="M555 456v-496c0 -126 -86 -206 -218 -206c-120 0 -202 66 -221 159h47c16 -68 78 -118 174 -118c106 0 173 63 173 165v102c-44 -50 -111 -77 -180 -77c-125 0 -202 76 -202 202v227h-101v42h146v-268c0 -103 61 -162 163 -162c67 0 134 34 174 93v295h-101v42h146z" />
<glyph d="M445 340l294 -295l-25 -25l-294 295l-295 -295l-25 25l295 295l-295 294l25 25l295 -294l294 294l25 -25z" />
<glyph d="M445 340l294 -295l-25 -25l-294 295l-295 -295l-25 25l295 295l-295 294l25 25l295 -294l294 294l25 -25z" />
<glyph d="M445 340l294 -295l-25 -25l-294 295l-295 -295l-25 25l295 295l-295 294l25 25l295 -294l294 294l25 -25z" />
<glyph d="M445 340l294 -295l-25 -25l-294 295l-295 -295l-25 25l295 295l-295 294l25 25l295 -294l294 294l25 -25z" />
<glyph horiz-adv-x="596" d="M567 41v-41h-147v50c-50 -38 -113 -64 -186 -64c-112 0 -184 56 -184 142c0 76 59 135 196 135h174v18c0 102 -51 150 -147 150c-70 0 -124 -31 -142 -89h-46c19 85 96 129 187 129c122 0 193 -60 193 -190v-240h102zM239 27c67 0 128 22 181 70v129h-175 c-114 0 -151 -49 -151 -97c0 -61 56 -102 145 -102z" />
<glyph d="M445 340l294 -295l-25 -25l-294 295l-295 -295l-25 25l295 295l-295 294l25 25l295 -294l294 294l25 -25z" />
<glyph d="M445 340l294 -295l-25 -25l-294 295l-295 -295l-25 25l295 295l-295 294l25 25l295 -294l294 294l25 -25z" />
<glyph d="M445 340l294 -295l-25 -25l-294 295l-295 -295l-25 25l295 295l-295 294l25 25l295 -294l294 294l25 -25z" />
<glyph d="M445 340l294 -295l-25 -25l-294 295l-295 -295l-25 25l295 295l-295 294l25 25l295 -294l294 294l25 -25z" />
<glyph horiz-adv-x="596" d="M188 595c-20 0 -37 16 -37 37c0 20 17 36 37 36s37 -16 37 -36c0 -21 -17 -37 -37 -37zM364 595c-20 0 -37 16 -37 37c0 20 17 36 37 36s37 -16 37 -36c0 -21 -17 -37 -37 -37zM567 41v-41h-147v50c-50 -38 -113 -64 -186 -64c-112 0 -184 56 -184 142 c0 76 59 135 196 135h174v18c0 102 -51 150 -147 150c-70 0 -124 -31 -142 -89h-46c19 85 96 129 187 129c122 0 193 -60 193 -190v-240h102zM239 27c67 0 128 22 181 70v129h-175c-114 0 -151 -49 -151 -97c0 -61 56 -102 145 -102z" />
<glyph d="M445 340l294 -295l-25 -25l-294 295l-295 -295l-25 25l295 295l-295 294l25 25l295 -294l294 294l25 -25z" />
<glyph d="M445 340l294 -295l-25 -25l-294 295l-295 -295l-25 25l295 295l-295 294l25 25l295 -294l294 294l25 -25z" />
<glyph d="M445 340l294 -295l-25 -25l-294 295l-295 -295l-25 25l295 295l-295 294l25 25l295 -294l294 294l25 -25z" />
<glyph d="M445 340l294 -295l-25 -25l-294 295l-295 -295l-25 25l295 295l-295 294l25 25l295 -294l294 294l25 -25z" />
<glyph d="M445 340l294 -295l-25 -25l-294 295l-295 -295l-25 25l295 295l-295 294l25 25l295 -294l294 294l25 -25z" />
<glyph horiz-adv-x="664" d="M656 41v-41h-158v35l-160 179h-137v-173h104v-41h-250v41h101v628h-101v41h146v-455h135l114 159v42h155v-42h-104l-127 -177l175 -196h107z" />
<glyph d="M445 340l294 -295l-25 -25l-294 295l-295 -295l-25 25l295 295l-295 294l25 25l295 -294l294 294l25 -25z" />
<glyph horiz-adv-x="294" d="M178 665c21 0 37 -15 37 -36c0 -20 -16 -36 -37 -36s-37 16 -37 36c0 21 16 36 37 36zM201 456v-516l-21 -191h-24v665h-101v42h146z" />
<glyph horiz-adv-x="532" d="M485 105l29 -27c-51 -65 -107 -93 -175 -93c-111 0 -186 72 -186 200v229h-134v42h134l1 164h44v-164h226v-42h-226v-230c0 -103 59 -158 144 -158c47 0 93 18 143 79z" />
<glyph d="M445 340l294 -295l-25 -25l-294 295l-295 -295l-25 25l295 295l-295 294l25 25l295 -294l294 294l25 -25z" />
<glyph d="M445 340l294 -295l-25 -25l-294 295l-295 -295l-25 25l295 295l-295 294l25 25l295 -294l294 294l25 -25z" />
<glyph d="M445 340l294 -295l-25 -25l-294 295l-295 -295l-25 25l295 295l-295 294l25 25l295 -294l294 294l25 -25z" />
<glyph horiz-adv-x="691" d="M468 357c101 -15 168 -74 168 -173c0 -110 -82 -189 -237 -189c-22 0 -48 2 -75 7v40c26 -5 52 -7 76 -7c131 0 192 66 192 151c0 97 -83 142 -181 142h-37v35c106 11 165 80 165 153c0 67 -47 137 -150 139c-104 2 -188 -68 -188 -197v-458h-146v41h101v373h-101v42h101 v2c0 150 97 237 228 237c126 0 200 -80 200 -177c0 -68 -39 -129 -116 -161z" />
<glyph horiz-adv-x="763" d="M720 39l7 -40c-34 -9 -64 -14 -89 -14c-76 0 -120 44 -120 136v541c-57 36 -108 52 -157 52c-112 0 -168 -58 -168 -179v-79h192v-42h-192v-373h134v-41h-280v41h101v373h-138v42h138v79c0 147 77 221 211 221c53 0 108 -15 176 -54h28v-578c0 -67 28 -96 80 -96 c22 0 50 5 77 11z" />
<glyph horiz-adv-x="1032" d="M740 470c132 0 239 -108 239 -242c0 -133 -107 -241 -239 -241c-74 0 -135 29 -179 76v-63h-146v41h101v622c-56 35 -106 51 -155 51c-112 0 -168 -58 -168 -179v-79h192v-42h-192v-373h134v-41h-280v41h101v373h-138v42h138v79c0 147 77 221 211 221 c53 0 108 -15 176 -54h26v-309c44 48 105 77 179 77zM735 27c112 0 199 91 199 201s-87 202 -199 202c-70 0 -130 -32 -174 -91v-222c44 -58 104 -90 174 -90z" />
<glyph horiz-adv-x="1395" d="M1103 470c132 0 239 -108 239 -242c0 -133 -107 -241 -239 -241c-74 0 -134 28 -178 75v-62h-147v41h102v622c-56 35 -106 51 -155 51c-112 0 -168 -58 -168 -179v-79h192v-42h-192v-373h134v-41h-280v41h101v373h-319v-373h134v-41h-280v41h101v373h-138v42h138v79 c0 147 77 221 211 221c55 0 113 -16 198 -67c36 45 92 67 166 67c53 0 108 -15 176 -54h26v-308c44 48 104 76 178 76zM512 456v79c0 46 8 85 22 116c-68 45 -121 63 -173 63c-112 0 -168 -58 -168 -179v-79h319zM1098 27c112 0 199 91 199 201s-87 202 -199 202 c-69 0 -129 -31 -173 -90v-224c44 -58 104 -89 173 -89z" />
<glyph horiz-adv-x="1117" d="M920 456h192v-42h-192v-373h134v-41h-280v41h101v373h-318v-373h134v-41h-280v41h101v373h-319v-373h134v-41h-280v41h101v373h-138v42h138v79c0 147 77 221 211 221c55 0 113 -16 198 -67c36 45 92 67 166 67c54 0 111 -16 182 -58c27 37 69 58 121 58 c24 0 55 -4 88 -13l-8 -37c-26 6 -54 10 -75 10c-67 0 -111 -47 -111 -122v-138zM512 456v79c0 46 8 85 22 116c-68 45 -121 63 -173 63c-112 0 -168 -58 -168 -179v-79h319zM875 456v138c0 24 4 46 10 66c-58 37 -110 54 -160 54c-112 0 -168 -58 -168 -179v-79h318z" />
<glyph horiz-adv-x="1421" d="M1400 41v-41h-247v41h101v227c0 103 -63 162 -153 162c-68 0 -136 -34 -176 -93v-296h100v-41h-247v41h102v622c-56 35 -106 51 -155 51c-112 0 -168 -58 -168 -179v-79h192v-42h-192v-373h134v-41h-280v41h101v373h-319v-373h134v-41h-280v41h101v373h-138v42h138v79 c0 147 77 221 211 221c55 0 113 -16 198 -67c36 45 92 67 166 67c53 0 108 -15 176 -54h26v-308c43 48 108 77 182 77c112 0 191 -76 191 -202v-228h102zM512 456v79c0 46 8 85 22 116c-68 45 -121 63 -173 63c-112 0 -168 -58 -168 -179v-79h319z" />
<glyph horiz-adv-x="977" d="M913 456v-532c0 -122 -38 -170 -144 -180l-11 38c81 8 110 44 110 139v493h-311v-373h134v-41h-280v41h101v373h-319v-373h134v-41h-280v41h101v373h-138v42h138v79c0 147 77 221 211 221c56 0 114 -17 189 -61c30 40 77 61 135 61c64 0 95 -11 151 -28l-9 -38 c-48 14 -78 24 -139 24c-77 0 -129 -49 -129 -140v-118h356zM512 456v118c0 31 5 59 14 82c-60 40 -114 58 -165 58c-112 0 -168 -58 -168 -179v-79h319z" />
<glyph horiz-adv-x="1393" d="M1385 41v-41h-147v29l-203 210l-110 -95v-103h103v-41h-250v41h102v622c-56 35 -106 51 -155 51c-112 0 -168 -58 -168 -179v-79h192v-42h-192v-373h134v-41h-280v41h101v373h-319v-373h134v-41h-280v41h101v373h-138v42h138v79c0 147 77 221 211 221 c55 0 113 -16 198 -67c36 45 92 67 166 67c53 0 108 -15 176 -54h26v-506l258 222v38h145v-42h-91l-168 -145l219 -228h97zM512 456v79c0 46 8 85 22 116c-68 45 -121 63 -173 63c-112 0 -168 -58 -168 -179v-79h319z" />
<glyph horiz-adv-x="1388" d="M1380 41v-41h-158v35l-160 179h-137v-173h104v-41h-250v41h101v622c-56 35 -106 51 -155 51c-112 0 -168 -58 -168 -179v-79h192v-42h-192v-373h134v-41h-280v41h101v373h-319v-373h134v-41h-280v41h101v373h-138v42h138v79c0 147 77 221 211 221c55 0 113 -16 198 -67 c36 45 92 67 166 67c53 0 108 -15 176 -54h26v-447h135l114 159v42h155v-42h-105l-126 -176l175 -197h107zM512 456v79c0 46 8 85 22 116c-68 45 -121 63 -173 63c-112 0 -168 -58 -168 -179v-79h319z" />
<glyph horiz-adv-x="1127" d="M1084 39l7 -40c-34 -9 -64 -14 -89 -14c-76 0 -120 44 -120 136v541c-57 36 -108 52 -157 52c-112 0 -168 -58 -168 -179v-79h192v-42h-192v-373h134v-41h-280v41h101v373h-319v-373h134v-41h-280v41h101v373h-138v42h138v79c0 147 77 221 211 221c55 0 113 -16 198 -67 c36 45 92 67 166 67c53 0 108 -15 176 -54h28v-578c0 -67 28 -96 80 -96c22 0 50 5 77 11zM512 456v79c0 46 8 85 22 116c-68 45 -121 63 -173 63c-112 0 -168 -58 -168 -179v-79h319z" />
<glyph horiz-adv-x="1155" d="M1111 37l8 -38c-37 -10 -64 -14 -90 -14c-103 0 -149 53 -149 174v255h-323v-373h134v-41h-280v41h101v373h-319v-373h134v-41h-280v41h101v373h-138v42h138v79c0 147 77 221 211 221c54 0 111 -16 183 -58c26 37 69 58 121 58c24 0 55 -4 88 -13l-8 -37 c-26 6 -54 10 -75 10c-67 0 -111 -47 -111 -122v-138h323v164h45v-164h172v-42h-172v-255c0 -95 32 -132 109 -132c23 0 51 4 77 10zM512 456v138c0 24 4 46 10 65c-59 38 -111 55 -161 55c-112 0 -168 -58 -168 -179v-79h319z" />
<glyph horiz-adv-x="1057" d="M1036 41v-41h-247v41h101v227c0 103 -63 162 -153 162c-68 0 -136 -34 -176 -93v-296h101v-41h-247v41h101v622c-56 35 -106 51 -155 51c-112 0 -168 -58 -168 -179v-79h192v-42h-192v-373h134v-41h-280v41h101v373h-138v42h138v79c0 147 77 221 211 221 c53 0 108 -15 176 -54h26v-308c43 48 108 77 182 77c112 0 191 -76 191 -202v-228h102z" />
<glyph horiz-adv-x="614" d="M550 456v-532c0 -122 -38 -170 -144 -180l-11 38c81 8 110 44 110 139v493h-312v-373h134v-41h-280v41h101v373h-138v42h138v118c0 116 70 182 171 182c63 0 95 -11 151 -28l-9 -38c-48 14 -78 24 -139 24c-77 0 -129 -49 -129 -140v-118h357z" />
<glyph horiz-adv-x="1029" d="M1021 41v-41h-147v29l-203 210l-110 -95v-103h104v-41h-250v41h101v622c-56 35 -106 51 -155 51c-112 0 -168 -58 -168 -179v-79h192v-42h-192v-373h134v-41h-280v41h101v373h-138v42h138v79c0 147 77 221 211 221c53 0 108 -15 176 -54h26v-506l258 222v38h145v-42h-91 l-168 -145l219 -228h97z" />
<glyph horiz-adv-x="1024" d="M1016 41v-41h-158v35l-160 179h-137v-173h104v-41h-250v41h101v622c-56 35 -106 51 -155 51c-112 0 -168 -58 -168 -179v-79h192v-42h-192v-373h134v-41h-280v41h101v373h-138v42h138v79c0 147 77 221 211 221c53 0 108 -15 176 -54h26v-447h135l114 159v42h155v-42h-105 l-126 -176l175 -197h107z" />
<glyph horiz-adv-x="837" d="M751 716c-67 0 -111 -47 -111 -122v-138h186v-42h-186v-373h133v-41h-287v41h109v373h-126c-118 0 -213 -39 -268 -71v-302h149v-41h-295v41h101v373h-101v42h146v-73c57 39 152 73 268 73h126v138c0 98 60 162 151 162c24 0 55 -4 88 -13l-8 -37c-26 6 -54 10 -75 10z " />
<glyph horiz-adv-x="764" d="M593 594c-21 0 -37 15 -37 36s16 36 37 36c20 0 37 -15 37 -36s-17 -36 -37 -36zM717 41v-41h-247v41h101v371h-140c-111 0 -185 -36 -230 -67v-304h149v-41h-295v41h101v373h-101v42h146v-70c48 37 122 70 230 70h185v-415h101z" />
<glyph horiz-adv-x="716" d="M615 666c21 0 37 -15 37 -36s-16 -36 -37 -36s-37 15 -37 36s16 36 37 36zM638 456v-532c0 -122 -38 -170 -144 -180l-11 38c81 8 110 44 110 139v491h-162c-111 0 -185 -36 -230 -67v-304h149v-41h-295v41h101v373h-101v42h146v-70c48 37 122 70 230 70h207z" />
<glyph horiz-adv-x="850" d="M806 37l8 -38c-37 -10 -64 -14 -90 -14c-103 0 -149 53 -149 174v255h-144c-111 0 -185 -37 -230 -69v-304h149v-41h-295v41h101v373h-101v42h146v-70c48 37 122 70 230 70h144v164h45v-164h171v-42h-171v-255c0 -95 32 -132 109 -132c23 0 51 4 77 10z" />
<glyph horiz-adv-x="928" d="M881 105l29 -27c-51 -65 -107 -93 -175 -93c-111 0 -186 72 -186 200v229h-110c-121 0 -193 -37 -238 -69v-304h149v-41h-295v41h101v373h-101v42h146v-70c46 37 116 70 214 70h134l1 164h44v-164h226v-42h-226v-230c0 -103 59 -158 144 -158c47 0 93 18 143 79z" />
<glyph horiz-adv-x="1020" d="M937 414l-285 -597h101v-41h-280v41h128l75 158l-215 439h-255v-255c0 -95 32 -132 109 -132c23 0 51 4 77 10l8 -38c-37 -10 -64 -14 -90 -14c-103 0 -149 53 -149 174v255h-134v42h134v164h45v-164h385v-42h-79l189 -387l186 387h-90v42h208v-42h-68z" />
<glyph horiz-adv-x="1115" d="M1032 414l-285 -597h101v-41h-280v41h128l75 158l-215 439h-358v-230c0 -103 59 -158 144 -158c47 0 93 18 143 79l29 -27c-51 -65 -107 -93 -175 -93c-111 0 -186 72 -186 200v229h-134v42h134l1 164h44v-164h488v-42h-79l189 -387l186 387h-90v42h208v-42h-68z" />
<glyph horiz-adv-x="1230" d="M1209 41v-41h-247v41h102v227c0 103 -64 162 -153 162c-68 0 -136 -34 -176 -93v-296h100v-41h-247v41h102v596h-332v-596h134v-41h-314v41h134v596h-223v-139h-43v182h644v32h45v-318c43 48 108 77 182 77c112 0 191 -76 191 -202v-228h101z" />
<glyph horiz-adv-x="1104" d="M1059 41v-41h-146v63c-43 -49 -108 -78 -183 -78c-112 0 -191 76 -191 202v227h-125c-96 0 -168 -41 -213 -79v-294h149v-41h-295v41h101v373h-101v42h146v-74c47 39 120 74 213 74h170v-268c0 -103 63 -162 152 -162c69 0 137 34 177 93v295h-102v42h147v-415h101z" />
<glyph horiz-adv-x="2332" d="M2318 414h-71l-159 -414h-41l-131 389l-130 -389h-41l-159 414h-85l-159 -414h-41l-131 389l-130 -389h-41l-159 414h-94l-159 -414h-41l-130 389l-131 -389h-41l-159 414h-71v42h202v-42h-85l133 -352l133 394h37l133 -395l133 353h-85v42h356v-42h-85l133 -352l133 394 h37l133 -395l133 353h-85v42h347v-42h-85l133 -352l133 394h37l133 -395l133 353h-85v42h202v-42z" />
<glyph horiz-adv-x="1050" d="M967 414l-285 -597h101v-41h-280v41h128l75 158l-215 439h-63c-108 -1 -182 -36 -227 -67v-306h149v-41h-295v41h101v373h-101v42h146v-69c46 38 116 69 212 69h208v-42h-79l189 -387l186 387h-90v42h208v-42h-68z" />
<glyph horiz-adv-x="1081" d="M1036 41v-41h-146v63c-43 -49 -108 -78 -183 -78c-112 0 -191 76 -191 202v227h-310v-255c0 -95 32 -132 109 -132c23 0 51 4 77 10l8 -38c-37 -10 -64 -14 -90 -14c-103 0 -149 53 -149 174v255h-134v42h134v164h45v-164h355v-268c0 -103 63 -162 152 -162 c69 0 137 34 177 93v295h-101v42h146v-415h101z" />
<glyph horiz-adv-x="1131" d="M1086 41v-41h-146v63c-43 -49 -108 -78 -183 -78c-112 0 -191 76 -191 202v227h-368v-230c0 -103 59 -158 144 -158c47 0 93 18 143 79l29 -27c-51 -65 -107 -93 -175 -93c-111 0 -186 72 -186 200v229h-134v42h134l1 164h44v-164h413v-268c0 -103 63 -162 152 -162 c69 0 137 34 177 93v295h-101v42h146v-415h101z" />
<glyph horiz-adv-x="841" d="M797 37l8 -38c-37 -10 -64 -14 -90 -14c-103 0 -149 53 -149 174v255h-360v-255c0 -95 32 -132 109 -132c23 0 51 4 77 10l8 -38c-37 -10 -64 -14 -90 -14c-103 0 -149 53 -149 174v255h-134v42h134v164h45v-164h360v164h45v-164h172v-42h-172v-255 c0 -95 32 -132 109 -132c23 0 51 4 77 10z" />
<glyph horiz-adv-x="961" d="M914 105l29 -27c-51 -65 -107 -93 -175 -93c-111 0 -186 72 -186 200v229h-384v-230c0 -103 59 -158 144 -158c47 0 93 18 143 79l29 -27c-51 -65 -107 -93 -175 -93c-111 0 -186 72 -186 200v229h-134v42h134l1 164h44v-164h384l1 164h44v-164h226v-42h-226v-230 c0 -103 59 -158 144 -158c47 0 93 18 143 79z" />
<glyph horiz-adv-x="1255" d="M1241 414h-71l-159 -414h-41l-131 389l-130 -389h-41l-159 414h-95c-96 0 -168 -41 -213 -79v-294h149v-41h-295v41h101v373h-101v42h146v-74c47 39 120 74 213 74h226v-42h-85l133 -352l133 394h37l133 -395l133 353h-85v42h202v-42z" />
<glyph horiz-adv-x="1019" d="M975 37l8 -38c-37 -10 -64 -14 -90 -14c-103 0 -149 53 -149 174v255h-176l-285 -597h101v-41h-280v41h128l75 158l-215 439h-78v42h208v-42h-79l189 -387l186 387h-90v42h316v164h45v-164h172v-42h-172v-255c0 -95 32 -132 109 -132c23 0 51 4 77 10z" />
<glyph horiz-adv-x="1110" d="M1063 105l29 -27c-51 -65 -107 -93 -175 -93c-111 0 -186 72 -186 200v229h-163l-285 -597h101v-41h-280v41h128l75 158l-215 439h-78v42h208v-42h-79l189 -387l186 387h-90v42h303l1 164h44v-164h226v-42h-226v-230c0 -103 59 -158 144 -158c47 0 93 18 143 79z" />
<glyph unicode="&#xaa;" horiz-adv-x="388" d="M369 416v-31h-92v32c-32 -24 -71 -41 -120 -41c-73 0 -123 37 -123 96c0 49 37 84 118 84h125v18c0 57 -29 92 -96 92c-45 0 -88 -23 -95 -59h-34c8 57 69 88 129 88c83 0 130 -43 130 -121h-1v-158h59zM159 407c43 0 83 13 118 44v77h-127c-59 0 -83 -25 -83 -55 c0 -41 35 -66 92 -66z" />
<glyph unicode="&#xba;" horiz-adv-x="389" d="M195 695c93 0 164 -70 164 -161c0 -90 -71 -160 -164 -160s-164 70 -164 160c0 91 71 161 164 161zM194 405c73 0 132 57 132 129c0 73 -59 131 -132 131s-132 -58 -132 -131c0 -72 59 -129 132 -129z" />
<glyph unicode="0" horiz-adv-x="721" d="M361 695c181 0 304 -144 304 -355s-123 -355 -304 -355c-182 0 -304 144 -304 355s122 355 304 355zM361 27c153 0 256 128 256 313s-103 313 -256 313s-256 -128 -256 -313s103 -313 256 -313z" />
<glyph unicode="1" horiz-adv-x="501" d="M484 41v-41h-432v41h202v586l-189 -70v43l210 80h25v-639h184z" />
<glyph unicode="2" horiz-adv-x="598" d="M523 41v-41h-458v25l229 219c104 98 157 161 157 246c0 96 -68 164 -177 164c-102 0 -175 -60 -175 -150h-43c0 115 89 191 218 191c136 0 223 -84 223 -204c0 -94 -52 -163 -168 -272l-185 -178h379z" />
<glyph unicode="3" horiz-adv-x="604" d="M299 406h18c142 0 234 -78 234 -200c0 -125 -97 -221 -241 -221c-141 0 -233 74 -255 194h46c21 -94 92 -153 209 -153s197 78 197 179c0 98 -73 161 -191 161l-72 -1l-13 31l232 243h-370v41h438v-32h-1z" />
<glyph unicode="4" horiz-adv-x="642" d="M472 169v-128h101v-41h-276v41h130v128h-373v28l214 483h47l-206 -471h318v217h45v-217h117v-40h-117z" />
<glyph unicode="5" horiz-adv-x="587" d="M141 410h157c142 0 234 -81 234 -203c0 -125 -98 -222 -241 -222c-144 0 -233 75 -255 194h46c21 -94 92 -153 209 -153s197 80 197 180c0 98 -73 164 -191 164l-199 -1l1 311h395v-41h-352z" />
<glyph unicode="6" horiz-adv-x="613" d="M307 449c142 0 246 -93 246 -229c0 -139 -104 -235 -246 -235c-143 0 -246 96 -246 234c0 57 20 105 51 151l235 310h55l-184 -245c26 8 56 14 89 14zM307 24c115 0 200 80 200 194c0 112 -85 191 -200 191c-63 0 -116 -21 -151 -58l-6 -8c-28 -36 -43 -77 -43 -126 c0 -113 85 -193 200 -193z" />
<glyph unicode="7" horiz-adv-x="522" d="M481 649l-1 -1l-296 -648h-52l294 639h-392v41h447v-31z" />
<glyph unicode="8" horiz-adv-x="620" d="M410 356c93 -26 150 -88 150 -173c0 -120 -99 -198 -250 -198c-150 0 -249 78 -249 198c0 85 57 147 150 173c-74 25 -123 81 -123 158c0 107 96 181 222 181c127 0 223 -74 223 -181c0 -77 -49 -133 -123 -158zM133 512c0 -87 77 -143 177 -143c101 0 178 56 178 143 c0 85 -77 145 -178 145c-100 0 -177 -60 -177 -145zM310 25c119 0 200 64 200 160c0 91 -81 152 -200 152c-120 0 -200 -61 -200 -152c0 -96 80 -160 200 -160z" />
<glyph unicode="9" horiz-adv-x="613" d="M306 695c143 0 246 -96 246 -234c0 -57 -20 -105 -51 -151l-235 -310h-55l184 245c-26 -8 -56 -14 -89 -14c-142 0 -246 93 -246 229c0 139 104 235 246 235zM457 329l6 8c28 36 43 77 43 126c0 113 -85 193 -200 193s-200 -80 -200 -194c0 -112 85 -191 200 -191 c63 0 116 21 151 58z" />
<glyph d="M445 340l294 -295l-25 -25l-294 295l-295 -295l-25 25l295 295l-295 294l25 25l295 -294l294 294l25 -25z" />
<glyph d="M445 340l294 -295l-25 -25l-294 295l-295 -295l-25 25l295 295l-295 294l25 25l295 -294l294 294l25 -25z" />
<glyph d="M445 340l294 -295l-25 -25l-294 295l-295 -295l-25 25l295 295l-295 294l25 25l295 -294l294 294l25 -25z" />
<glyph d="M445 340l294 -295l-25 -25l-294 295l-295 -295l-25 25l295 295l-295 294l25 25l295 -294l294 294l25 -25z" />
<glyph d="M445 340l294 -295l-25 -25l-294 295l-295 -295l-25 25l295 295l-295 294l25 25l295 -294l294 294l25 -25z" />
<glyph d="M445 340l294 -295l-25 -25l-294 295l-295 -295l-25 25l295 295l-295 294l25 25l295 -294l294 294l25 -25z" />
<glyph d="M445 340l294 -295l-25 -25l-294 295l-295 -295l-25 25l295 295l-295 294l25 25l295 -294l294 294l25 -25z" />
<glyph d="M445 340l294 -295l-25 -25l-294 295l-295 -295l-25 25l295 295l-295 294l25 25l295 -294l294 294l25 -25z" />
<glyph d="M445 340l294 -295l-25 -25l-294 295l-295 -295l-25 25l295 295l-295 294l25 25l295 -294l294 294l25 -25z" />
<glyph d="M445 340l294 -295l-25 -25l-294 295l-295 -295l-25 25l295 295l-295 294l25 25l295 -294l294 294l25 -25z" />
<glyph d="M445 340l294 -295l-25 -25l-294 295l-295 -295l-25 25l295 295l-295 294l25 25l295 -294l294 294l25 -25z" />
<glyph d="M445 340l294 -295l-25 -25l-294 295l-295 -295l-25 25l295 295l-295 294l25 25l295 -294l294 294l25 -25z" />
<glyph d="M445 340l294 -295l-25 -25l-294 295l-295 -295l-25 25l295 295l-295 294l25 25l295 -294l294 294l25 -25z" />
<glyph d="M445 340l294 -295l-25 -25l-294 295l-295 -295l-25 25l295 295l-295 294l25 25l295 -294l294 294l25 -25z" />
<glyph d="M445 340l294 -295l-25 -25l-294 295l-295 -295l-25 25l295 295l-295 294l25 25l295 -294l294 294l25 -25z" />
<glyph d="M445 340l294 -295l-25 -25l-294 295l-295 -295l-25 25l295 295l-295 294l25 25l295 -294l294 294l25 -25z" />
<glyph d="M445 340l294 -295l-25 -25l-294 295l-295 -295l-25 25l295 295l-295 294l25 25l295 -294l294 294l25 -25z" />
<glyph d="M445 340l294 -295l-25 -25l-294 295l-295 -295l-25 25l295 295l-295 294l25 25l295 -294l294 294l25 -25z" />
<glyph d="M445 340l294 -295l-25 -25l-294 295l-295 -295l-25 25l295 295l-295 294l25 25l295 -294l294 294l25 -25z" />
<glyph d="M445 340l294 -295l-25 -25l-294 295l-295 -295l-25 25l295 295l-295 294l25 25l295 -294l294 294l25 -25z" />
<glyph horiz-adv-x="717" d="M361 695c181 0 304 -144 304 -355s-123 -355 -304 -355c-182 0 -304 144 -304 355s122 355 304 355zM105 340c0 -94 27 -174 73 -229l327 495c-40 30 -88 47 -144 47c-153 0 -256 -128 -256 -313zM361 27c153 0 256 128 256 313c0 99 -29 181 -80 237l-327 -497 c41 -34 92 -53 151 -53z" />
<glyph d="M445 340l294 -295l-25 -25l-294 295l-295 -295l-25 25l295 295l-295 294l25 25l295 -294l294 294l25 -25z" />
<glyph unicode="&#x2044;" horiz-adv-x="427" d="M10 -3l-25 17l440 676l24 -16z" />
<glyph unicode="&#xbd;" d="M445 340l294 -295l-25 -25l-294 295l-295 -295l-25 25l295 295l-295 294l25 25l295 -294l294 294l25 -25z" />
<glyph unicode="&#xbc;" d="M445 340l294 -295l-25 -25l-294 295l-295 -295l-25 25l295 295l-295 294l25 25l295 -294l294 294l25 -25z" />
<glyph unicode="&#xbe;" d="M445 340l294 -295l-25 -25l-294 295l-295 -295l-25 25l295 295l-295 294l25 25l295 -294l294 294l25 -25z" />
<glyph unicode="&#x215b;" d="M445 340l294 -295l-25 -25l-294 295l-295 -295l-25 25l295 295l-295 294l25 25l295 -294l294 294l25 -25z" />
<glyph unicode="&#x215c;" d="M445 340l294 -295l-25 -25l-294 295l-295 -295l-25 25l295 295l-295 294l25 25l295 -294l294 294l25 -25z" />
<glyph unicode="&#x215d;" d="M445 340l294 -295l-25 -25l-294 295l-295 -295l-25 25l295 295l-295 294l25 25l295 -294l294 294l25 -25z" />
<glyph unicode="&#x215e;" d="M445 340l294 -295l-25 -25l-294 295l-295 -295l-25 25l295 295l-295 294l25 25l295 -294l294 294l25 -25z" />
<glyph d="M445 340l294 -295l-25 -25l-294 295l-295 -295l-25 25l295 295l-295 294l25 25l295 -294l294 294l25 -25z" />
<glyph d="M445 340l294 -295l-25 -25l-294 295l-295 -295l-25 25l295 295l-295 294l25 25l295 -294l294 294l25 -25z" />
<glyph d="M445 340l294 -295l-25 -25l-294 295l-295 -295l-25 25l295 295l-295 294l25 25l295 -294l294 294l25 -25z" />
<glyph d="M445 340l294 -295l-25 -25l-294 295l-295 -295l-25 25l295 295l-295 294l25 25l295 -294l294 294l25 -25z" />
<glyph d="M445 340l294 -295l-25 -25l-294 295l-295 -295l-25 25l295 295l-295 294l25 25l295 -294l294 294l25 -25z" />
<glyph d="M445 340l294 -295l-25 -25l-294 295l-295 -295l-25 25l295 295l-295 294l25 25l295 -294l294 294l25 -25z" />
<glyph d="M445 340l294 -295l-25 -25l-294 295l-295 -295l-25 25l295 295l-295 294l25 25l295 -294l294 294l25 -25z" />
<glyph d="M445 340l294 -295l-25 -25l-294 295l-295 -295l-25 25l295 295l-295 294l25 25l295 -294l294 294l25 -25z" />
<glyph d="M445 340l294 -295l-25 -25l-294 295l-295 -295l-25 25l295 295l-295 294l25 25l295 -294l294 294l25 -25z" />
<glyph d="M445 340l294 -295l-25 -25l-294 295l-295 -295l-25 25l295 295l-295 294l25 25l295 -294l294 294l25 -25z" />
<glyph d="M445 340l294 -295l-25 -25l-294 295l-295 -295l-25 25l295 295l-295 294l25 25l295 -294l294 294l25 -25z" />
<glyph d="M445 340l294 -295l-25 -25l-294 295l-295 -295l-25 25l295 295l-295 294l25 25l295 -294l294 294l25 -25z" />
<glyph d="M445 340l294 -295l-25 -25l-294 295l-295 -295l-25 25l295 295l-295 294l25 25l295 -294l294 294l25 -25z" />
<glyph d="M445 340l294 -295l-25 -25l-294 295l-295 -295l-25 25l295 295l-295 294l25 25l295 -294l294 294l25 -25z" />
<glyph d="M445 340l294 -295l-25 -25l-294 295l-295 -295l-25 25l295 295l-295 294l25 25l295 -294l294 294l25 -25z" />
<glyph d="M445 340l294 -295l-25 -25l-294 295l-295 -295l-25 25l295 295l-295 294l25 25l295 -294l294 294l25 -25z" />
<glyph d="M445 340l294 -295l-25 -25l-294 295l-295 -295l-25 25l295 295l-295 294l25 25l295 -294l294 294l25 -25z" />
<glyph d="M445 340l294 -295l-25 -25l-294 295l-295 -295l-25 25l295 295l-295 294l25 25l295 -294l294 294l25 -25z" />
<glyph d="M445 340l294 -295l-25 -25l-294 295l-295 -295l-25 25l295 295l-295 294l25 25l295 -294l294 294l25 -25z" />
<glyph d="M445 340l294 -295l-25 -25l-294 295l-295 -295l-25 25l295 295l-295 294l25 25l295 -294l294 294l25 -25z" />
<glyph unicode="&#x2080;" d="M445 340l294 -295l-25 -25l-294 295l-295 -295l-25 25l295 295l-295 294l25 25l295 -294l294 294l25 -25z" />
<glyph unicode="&#x2081;" d="M445 340l294 -295l-25 -25l-294 295l-295 -295l-25 25l295 295l-295 294l25 25l295 -294l294 294l25 -25z" />
<glyph unicode="&#x2082;" d="M445 340l294 -295l-25 -25l-294 295l-295 -295l-25 25l295 295l-295 294l25 25l295 -294l294 294l25 -25z" />
<glyph unicode="&#x2083;" d="M445 340l294 -295l-25 -25l-294 295l-295 -295l-25 25l295 295l-295 294l25 25l295 -294l294 294l25 -25z" />
<glyph unicode="&#x2084;" d="M445 340l294 -295l-25 -25l-294 295l-295 -295l-25 25l295 295l-295 294l25 25l295 -294l294 294l25 -25z" />
<glyph unicode="&#x2085;" d="M445 340l294 -295l-25 -25l-294 295l-295 -295l-25 25l295 295l-295 294l25 25l295 -294l294 294l25 -25z" />
<glyph unicode="&#x2086;" d="M445 340l294 -295l-25 -25l-294 295l-295 -295l-25 25l295 295l-295 294l25 25l295 -294l294 294l25 -25z" />
<glyph unicode="&#x2087;" d="M445 340l294 -295l-25 -25l-294 295l-295 -295l-25 25l295 295l-295 294l25 25l295 -294l294 294l25 -25z" />
<glyph unicode="&#x2088;" d="M445 340l294 -295l-25 -25l-294 295l-295 -295l-25 25l295 295l-295 294l25 25l295 -294l294 294l25 -25z" />
<glyph unicode="&#x2089;" d="M445 340l294 -295l-25 -25l-294 295l-295 -295l-25 25l295 295l-295 294l25 25l295 -294l294 294l25 -25z" />
<glyph unicode="&#x2070;" d="M445 340l294 -295l-25 -25l-294 295l-295 -295l-25 25l295 295l-295 294l25 25l295 -294l294 294l25 -25z" />
<glyph unicode="&#xb9;" d="M445 340l294 -295l-25 -25l-294 295l-295 -295l-25 25l295 295l-295 294l25 25l295 -294l294 294l25 -25z" />
<glyph unicode="&#xb2;" d="M445 340l294 -295l-25 -25l-294 295l-295 -295l-25 25l295 295l-295 294l25 25l295 -294l294 294l25 -25z" />
<glyph unicode="&#xb3;" d="M445 340l294 -295l-25 -25l-294 295l-295 -295l-25 25l295 295l-295 294l25 25l295 -294l294 294l25 -25z" />
<glyph unicode="&#x2074;" d="M445 340l294 -295l-25 -25l-294 295l-295 -295l-25 25l295 295l-295 294l25 25l295 -294l294 294l25 -25z" />
<glyph unicode="&#x2075;" d="M445 340l294 -295l-25 -25l-294 295l-295 -295l-25 25l295 295l-295 294l25 25l295 -294l294 294l25 -25z" />
<glyph unicode="&#x2076;" d="M445 340l294 -295l-25 -25l-294 295l-295 -295l-25 25l295 295l-295 294l25 25l295 -294l294 294l25 -25z" />
<glyph unicode="&#x2077;" d="M445 340l294 -295l-25 -25l-294 295l-295 -295l-25 25l295 295l-295 294l25 25l295 -294l294 294l25 -25z" />
<glyph unicode="&#x2078;" d="M445 340l294 -295l-25 -25l-294 295l-295 -295l-25 25l295 295l-295 294l25 25l295 -294l294 294l25 -25z" />
<glyph unicode="&#x2079;" d="M445 340l294 -295l-25 -25l-294 295l-295 -295l-25 25l295 295l-295 294l25 25l295 -294l294 294l25 -25z" />
<glyph unicode="*" horiz-adv-x="402" d="M345 469l-15 -25l-114 67v-122h-30v122l-113 -67l-15 25l114 68l-114 68l15 26l113 -67v119h30v-120l114 68l15 -26l-115 -68z" />
<glyph unicode="\" horiz-adv-x="401" d="M86 730l272 -890h-44l-272 890h44z" />
<glyph unicode="&#x2022;" horiz-adv-x="311" d="M156 192c-57 0 -106 49 -106 105c0 57 49 105 106 105s106 -48 106 -105c0 -56 -49 -105 -106 -105z" />
<glyph unicode=":" horiz-adv-x="162" d="M81 394c-21 0 -37 15 -37 36c0 20 16 36 37 36c20 0 37 -16 37 -36c0 -21 -17 -36 -37 -36zM81 -8c-21 0 -37 15 -37 36c0 20 16 36 37 36c20 0 37 -16 37 -36c0 -21 -17 -36 -37 -36z" />
<glyph unicode="," horiz-adv-x="187" d="M44 -148l51 145c-16 5 -26 16 -26 31c0 20 17 36 37 36s37 -16 37 -36c0 -8 -1 -13 -11 -38l-55 -138h-33z" />
<glyph unicode="&#x2026;" horiz-adv-x="591" d="M81 -8c-21 0 -37 15 -37 36c0 20 16 36 37 36c20 0 37 -16 37 -36c0 -21 -17 -36 -37 -36zM294 -8c-21 0 -37 15 -37 36c0 20 16 36 37 36c20 0 37 -16 37 -36c0 -21 -17 -36 -37 -36zM511 -8c-21 0 -37 15 -37 36c0 20 16 36 37 36c20 0 37 -16 37 -36 c0 -21 -17 -36 -37 -36z" />
<glyph unicode="!" horiz-adv-x="270" d="M162 601l-10 -429h-34l-10 429v79h54v-79zM135 64c20 0 37 -16 37 -36c0 -21 -17 -36 -37 -36c-21 0 -37 15 -37 36c0 20 16 36 37 36z" />
<glyph unicode="&#xa1;" horiz-adv-x="270" d="M135 398c-21 0 -37 16 -37 36c0 21 16 36 37 36c20 0 37 -15 37 -36c0 -20 -17 -36 -37 -36zM108 -218v79l10 429h34l10 -429v-79h-54z" />
<glyph unicode="#" horiz-adv-x="723" d="M490 251h132v-39h-144l-66 -212h-46l66 212h-229l-66 -212h-46l66 212h-111v39h123l56 178h-124v38h136l67 214h46l-67 -214h229l67 214h46l-67 -214h119v-38h-131zM271 429l-56 -178h229l56 178h-229z" />
<glyph unicode="." horiz-adv-x="162" d="M81 -8c-21 0 -37 15 -37 36c0 20 16 36 37 36c20 0 37 -16 37 -36c0 -21 -17 -36 -37 -36z" />
<glyph unicode="&#xb7;" horiz-adv-x="162" d="M81 229c-21 0 -37 15 -37 36c0 20 16 36 37 36c20 0 37 -16 37 -36c0 -21 -17 -36 -37 -36z" />
<glyph unicode="?" horiz-adv-x="584" d="M234 180l-5 139h36c105 0 179 74 179 168c0 92 -72 167 -174 167c-76 0 -145 -49 -161 -123h-46c18 99 102 163 205 163c128 0 220 -91 220 -207c0 -113 -85 -200 -213 -202l-1 -105h-40zM255 -8c-21 0 -37 15 -37 36c0 20 16 36 37 36c20 0 37 -16 37 -36 c0 -21 -17 -36 -37 -36z" />
<glyph unicode="&#xbf;" horiz-adv-x="584" d="M329 549c21 0 37 -15 37 -36c0 -20 -16 -36 -37 -36c-20 0 -37 16 -37 36c0 21 17 36 37 36zM350 361l5 -139h-36c-105 0 -179 -74 -179 -168c0 -92 72 -167 174 -167c76 0 145 49 161 123h46c-18 -99 -102 -163 -205 -163c-128 0 -220 91 -220 207c0 113 85 200 213 202 l1 105h40z" />
<glyph unicode="&#x22;" horiz-adv-x="319" d="M106 680v-263h-46v263h46zM259 680v-263h-46v263h46z" />
<glyph unicode="'" horiz-adv-x="166" d="M106 680v-263h-46v263h46z" />
<glyph unicode=";" horiz-adv-x="171" d="M86 394c-21 0 -37 15 -37 36c0 20 16 36 37 36c20 0 37 -16 37 -36c0 -21 -17 -36 -37 -36zM24 -148l51 145c-16 5 -26 16 -26 31c0 20 17 36 37 36s37 -16 37 -36c0 -8 -1 -13 -11 -38l-55 -138h-33z" />
<glyph unicode="/" horiz-adv-x="401" d="M87 -160h-44l272 890h44z" />
<glyph unicode="_" horiz-adv-x="659" d="M46 -143h568v-40h-568v40z" />
<glyph d="M445 340l294 -295l-25 -25l-294 295l-295 -295l-25 25l295 295l-295 294l25 25l295 -294l294 294l25 -25z" />
<glyph d="M445 340l294 -295l-25 -25l-294 295l-295 -295l-25 25l295 295l-295 294l25 25l295 -294l294 294l25 -25z" />
<glyph d="M445 340l294 -295l-25 -25l-294 295l-295 -295l-25 25l295 295l-295 294l25 25l295 -294l294 294l25 -25z" />
<glyph d="M445 340l294 -295l-25 -25l-294 295l-295 -295l-25 25l295 295l-295 294l25 25l295 -294l294 294l25 -25z" />
<glyph d="M445 340l294 -295l-25 -25l-294 295l-295 -295l-25 25l295 295l-295 294l25 25l295 -294l294 294l25 -25z" />
<glyph d="M445 340l294 -295l-25 -25l-294 295l-295 -295l-25 25l295 295l-295 294l25 25l295 -294l294 294l25 -25z" />
<glyph unicode="{" horiz-adv-x="357" d="M195 575v-118c0 -83 -19 -127 -72 -146c53 -19 72 -64 72 -146v-118c0 -77 43 -127 109 -127v-43c-92 0 -153 67 -153 170v117c0 94 -31 127 -109 127v40c78 0 109 33 109 127v117c0 102 61 170 153 170v-43c-66 0 -109 -51 -109 -127z" />
<glyph unicode="}" horiz-adv-x="360" d="M165 457v118c0 76 -43 127 -109 127v43c92 0 153 -68 153 -170v-117c0 -94 31 -127 109 -127v-40c-78 0 -109 -33 -109 -127v-117c0 -103 -61 -170 -153 -170v43c66 0 109 50 109 127v118c0 82 19 127 72 146c-53 19 -72 63 -72 146z" />
<glyph unicode="[" horiz-adv-x="334" d="M147 -74h134v-42h-179v846h179v-43h-134v-761z" />
<glyph unicode="]" horiz-adv-x="315" d="M34 687v43h179v-846h-179v42h134v761h-134z" />
<glyph unicode="(" horiz-adv-x="337" d="M115 305c0 -175 62 -293 178 -391l-28 -30c-130 101 -195 243 -195 421s65 320 195 421l28 -30c-116 -98 -178 -216 -178 -391z" />
<glyph unicode=")" horiz-adv-x="337" d="M44 696l28 30c130 -101 195 -243 195 -421s-65 -320 -195 -421l-28 30c116 98 178 216 178 391s-62 293 -178 391z" />
<glyph d="M445 340l294 -295l-25 -25l-294 295l-295 -295l-25 25l295 295l-295 294l25 25l295 -294l294 294l25 -25z" />
<glyph d="M445 340l294 -295l-25 -25l-294 295l-295 -295l-25 25l295 295l-295 294l25 25l295 -294l294 294l25 -25z" />
<glyph d="M445 340l294 -295l-25 -25l-294 295l-295 -295l-25 25l295 295l-295 294l25 25l295 -294l294 294l25 -25z" />
<glyph d="M445 340l294 -295l-25 -25l-294 295l-295 -295l-25 25l295 295l-295 294l25 25l295 -294l294 294l25 -25z" />
<glyph d="M445 340l294 -295l-25 -25l-294 295l-295 -295l-25 25l295 295l-295 294l25 25l295 -294l294 294l25 -25z" />
<glyph d="M445 340l294 -295l-25 -25l-294 295l-295 -295l-25 25l295 295l-295 294l25 25l295 -294l294 294l25 -25z" />
<glyph unicode="&#x2014;" horiz-adv-x="912" d="M826 254v45h-740v-45h740z" />
<glyph unicode="&#x2013;" horiz-adv-x="668" d="M583 254v45h-497v-45h497z" />
<glyph unicode="-" horiz-adv-x="493" d="M408 254v44h-322v-44h322z" />
<glyph d="M445 340l294 -295l-25 -25l-294 295l-295 -295l-25 25l295 295l-295 294l25 25l295 -294l294 294l25 -25z" />
<glyph d="M445 340l294 -295l-25 -25l-294 295l-295 -295l-25 25l295 295l-295 294l25 25l295 -294l294 294l25 -25z" />
<glyph d="M445 340l294 -295l-25 -25l-294 295l-295 -295l-25 25l295 295l-295 294l25 25l295 -294l294 294l25 -25z" />
<glyph unicode="&#xab;" horiz-adv-x="418" d="M99 252l103 -130v-16h-30l-120 146l120 146h30v-16zM250 252l103 -130v-16h-30l-120 146l120 146h30v-16z" />
<glyph unicode="&#xbb;" horiz-adv-x="418" d="M65 398h30l120 -146l-120 -146h-30v16l103 130l-103 130v16zM216 398h30l120 -146l-120 -146h-30v16l103 130l-103 130v16z" />
<glyph unicode="&#x2039;" horiz-adv-x="267" d="M99 252l103 -130v-16h-30l-120 146l120 146h30v-16z" />
<glyph unicode="&#x203a;" horiz-adv-x="267" d="M65 398h30l120 -146l-120 -146h-30v16l103 130l-103 130v16z" />
<glyph unicode="&#x201e;" horiz-adv-x="339" d="M44 -148l51 145c-16 5 -26 16 -26 31c0 20 17 36 37 36s37 -16 37 -36c0 -8 -1 -13 -11 -38l-55 -138h-33zM196 -148l51 145c-16 5 -26 16 -26 31c0 20 17 36 37 36s37 -16 37 -36c0 -8 -1 -13 -11 -38l-55 -138h-33z" />
<glyph unicode="&#x201c;" horiz-adv-x="337" d="M143 680l-51 -145c16 -5 26 -16 26 -31c0 -20 -17 -36 -37 -36s-37 16 -37 36c0 8 1 13 11 38l55 138h33zM293 680l-51 -145c16 -5 26 -16 26 -31c0 -20 -17 -36 -37 -36s-37 16 -37 36c0 8 1 13 11 38l55 138h33z" />
<glyph unicode="&#x201d;" horiz-adv-x="338" d="M44 476l51 145c-16 5 -26 16 -26 31c0 20 17 36 37 36s37 -16 37 -36c0 -8 -1 -13 -11 -38l-55 -138h-33zM196 476l51 145c-16 5 -26 16 -26 31c0 20 17 36 37 36s37 -16 37 -36c0 -8 -1 -13 -11 -38l-55 -138h-33z" />
<glyph unicode="&#x2018;" horiz-adv-x="171" d="M127 680l-51 -145c16 -5 26 -16 26 -31c0 -20 -17 -36 -37 -36s-37 16 -37 36c0 8 1 13 11 38l55 138h33z" />
<glyph unicode="&#x2019;" horiz-adv-x="187" d="M44 472l51 145c-16 5 -26 16 -26 31c0 20 17 36 37 36s37 -16 37 -36c0 -8 -1 -13 -11 -38l-55 -138h-33z" />
<glyph unicode="&#x201a;" horiz-adv-x="187" d="M44 -148l51 145c-16 5 -26 16 -26 31c0 20 17 36 37 36s37 -16 37 -36c0 -8 -1 -13 -11 -38l-55 -138h-33z" />
<glyph d="M445 340l294 -295l-25 -25l-294 295l-295 -295l-25 25l295 295l-295 294l25 25l295 -294l294 294l25 -25z" />
<glyph d="M445 340l294 -295l-25 -25l-294 295l-295 -295l-25 25l295 295l-295 294l25 25l295 -294l294 294l25 -25z" />
<glyph d="M445 340l294 -295l-25 -25l-294 295l-295 -295l-25 25l295 295l-295 294l25 25l295 -294l294 294l25 -25z" />
<glyph d="M445 340l294 -295l-25 -25l-294 295l-295 -295l-25 25l295 295l-295 294l25 25l295 -294l294 294l25 -25z" />
<glyph unicode=" "  horiz-adv-x="276" />
<glyph unicode="&#x09;" horiz-adv-x="276" />
<glyph unicode="&#xa0;" horiz-adv-x="276" />
<glyph unicode="&#x192;" horiz-adv-x="459" d="M360 643c-67 0 -102 -47 -112 -118l-21 -161h170v-40h-177l-30 -239c-12 -97 -61 -161 -151 -161c-24 0 -56 5 -89 13l8 39c26 -6 54 -10 75 -10c67 0 102 47 112 119l30 239h-129v40h135l22 161c13 95 61 160 152 160c23 0 55 -4 88 -13l-8 -38c-26 5 -54 9 -75 9z" />
<glyph d="M445 340l294 -295l-25 -25l-294 295l-295 -295l-25 25l295 295l-295 294l25 25l295 -294l294 294l25 -25z" />
<glyph unicode="&#xa2;" horiz-adv-x="564" d="M466 143h47c-21 -97 -104 -156 -212 -156h-1v-77h-33v79c-126 15 -213 115 -213 239s89 225 213 239v86h33v-84c73 -1 136 -32 170 -82v69h42v-144h-45c-18 70 -85 116 -167 116v-400h2c82 0 147 45 164 115zM99 228c0 -99 68 -182 168 -197v395 c-98 -15 -168 -98 -168 -198z" />
<glyph unicode="$" horiz-adv-x="676" d="M376 369l63 -10c116 -19 183 -81 183 -175c0 -120 -97 -199 -246 -199v-75h-38v77c-102 9 -174 55 -212 129v-116h-45v215h45c27 -109 96 -174 212 -185v301l-49 8c-129 21 -187 83 -187 171c0 111 93 185 234 185h2v85h38v-87c89 -8 151 -46 184 -104v91h42v-176h-44 c-21 81 -79 137 -182 148v-283zM338 375v279c-114 0 -187 -57 -187 -144c0 -67 47 -112 156 -130zM376 325v-297c119 0 199 62 199 154c0 68 -49 118 -145 134z" />
<glyph unicode="&#x20ac;" horiz-adv-x="884" d="M770 226h49c-33 -141 -158 -240 -321 -240c-162 0 -299 106 -342 254h-99v36h91c-4 21 -6 42 -6 64c0 17 1 34 3 50h-88v36h95c39 155 178 268 344 268c124 0 225 -55 277 -143v129h45v-226h-46c-30 116 -136 195 -274 195c-142 0 -260 -93 -296 -223h366l-9 -36h-365 c-3 -16 -4 -33 -4 -50c0 -22 2 -43 6 -64h334l-9 -36h-315c41 -123 155 -209 292 -209c138 0 242 79 272 195z" />
<glyph unicode="&#xa3;" horiz-adv-x="638" d="M579 178v-178h-529v31c68 86 82 168 83 256h-83v40h81c-5 47 -20 95 -20 143c0 135 91 225 228 225h1c126 0 211 -76 223 -194h-45c-12 93 -79 153 -178 153c-111 0 -184 -71 -184 -182c0 -50 16 -98 21 -145h250v-40h-249c-2 -84 -15 -166 -77 -247h432v138h46z" />
<glyph unicode="&#xa5;" horiz-adv-x="786" d="M689 639l-259 -386h175v-32h-177v-57h177v-31h-177v-92h112v-41h-273v41h113v92h-200v31h200v57h-200v32h197l-259 386h-103v41h279v-41h-122l232 -346l231 346h-121v41h279v-41h-104z" />
<glyph d="M445 340l294 -295l-25 -25l-294 295l-295 -295l-25 25l295 295l-295 294l25 25l295 -294l294 294l25 -25z" />
<glyph d="M445 340l294 -295l-25 -25l-294 295l-295 -295l-25 25l295 295l-295 294l25 25l295 -294l294 294l25 -25z" />
<glyph d="M445 340l294 -295l-25 -25l-294 295l-295 -295l-25 25l295 295l-295 294l25 25l295 -294l294 294l25 -25z" />
<glyph d="M445 340l294 -295l-25 -25l-294 295l-295 -295l-25 25l295 295l-295 294l25 25l295 -294l294 294l25 -25z" />
<glyph d="M445 340l294 -295l-25 -25l-294 295l-295 -295l-25 25l295 295l-295 294l25 25l295 -294l294 294l25 -25z" />
<glyph unicode="~" horiz-adv-x="465" d="M364 391h40c0 -99 -95 -114 -145 -81l-68 47c-36 24 -90 12 -90 -43h-40c0 98 96 112 145 80l68 -47c37 -24 90 -11 90 44z" />
<glyph unicode="&#xf7;" horiz-adv-x="698" d="M348 469c-19 0 -34 14 -34 33c0 20 15 34 34 34c20 0 35 -14 35 -34c0 -19 -15 -33 -35 -33zM124 340h451v-42h-451v42zM348 102c-19 0 -34 15 -34 34s15 34 34 34c20 0 35 -15 35 -34s-15 -34 -35 -34z" />
<glyph unicode="=" horiz-adv-x="729" d="M606 402h-482v43h482v-43zM606 210h-482v42h482v-42z" />
<glyph unicode="&#x3e;" horiz-adv-x="558" d="M500 278l-422 -206v46l373 183l-373 182v47l422 -206v-46z" />
<glyph unicode="&#x3c;" horiz-adv-x="558" d="M480 530v-47l-373 -182l373 -183v-46l-422 206v46z" />
<glyph unicode="&#x2212;" horiz-adv-x="698" d="M124 340h451v-42h-451v42z" />
<glyph unicode="&#xd7;" horiz-adv-x="657" d="M522 153l-30 -30l-164 164l-164 -164l-30 30l164 164l-164 164l30 30l164 -164l164 164l30 -30l-164 -164z" />
<glyph unicode="%" horiz-adv-x="1109" d="M292 695c103 0 183 -79 183 -186c0 -108 -80 -187 -183 -187c-104 0 -184 79 -184 187c0 107 80 186 184 186zM348 -3l-25 17l440 676l24 -16zM291 359c81 0 146 64 146 150s-65 150 -146 150s-146 -64 -146 -150s65 -150 146 -150zM817 358c104 0 184 -79 184 -186 c0 -108 -80 -187 -184 -187c-103 0 -183 79 -183 187c0 107 80 186 183 186zM818 22c81 0 146 64 146 150s-65 150 -146 150s-146 -64 -146 -150s65 -150 146 -150z" />
<glyph unicode="&#x2030;" horiz-adv-x="1553" d="M292 695c103 0 183 -79 183 -186c0 -108 -80 -187 -183 -187c-104 0 -184 79 -184 187c0 107 80 186 184 186zM348 -3l-25 17l440 676l24 -16zM291 359c81 0 146 64 146 150s-65 150 -146 150s-146 -64 -146 -150s65 -150 146 -150zM817 358c104 0 184 -79 184 -186 c0 -108 -80 -187 -184 -187c-103 0 -183 79 -183 187c0 107 80 186 183 186zM1261 358c104 0 184 -79 184 -186c0 -108 -80 -187 -184 -187c-103 0 -183 79 -183 187c0 107 80 186 183 186zM818 22c81 0 146 64 146 150s-65 150 -146 150s-146 -64 -146 -150 s65 -150 146 -150zM1262 22c81 0 146 64 146 150s-65 150 -146 150s-146 -64 -146 -150s65 -150 146 -150z" />
<glyph unicode="+" horiz-adv-x="698" d="M372 298v-202h-45v202h-203v42h203v203h45v-203h204v-42h-204z" />
<glyph unicode="&#xb1;" horiz-adv-x="698" d="M575 324h-203v-169h-45v169h-203v43h203v170h45v-170h203v-43zM575 93v-43h-451v43h451z" />
<glyph unicode="&#x2193;" horiz-adv-x="784" d="M413 680v-612l296 298l30 -31l-347 -347l-347 347l29 31l297 -298v612h42z" />
<glyph unicode="&#x2199;" horiz-adv-x="797" d="M163 43h419l-1 -43h-491v491l43 1v-419l609 609l30 -29z" />
<glyph unicode="&#x2198;" horiz-adv-x="817" d="M75 682l609 -609v419l43 -1v-491h-491l-1 43h419l-609 610z" />
<glyph unicode="&#x2190;" horiz-adv-x="766" d="M114 321l298 -297l-31 -29l-347 347l347 347l31 -30l-298 -296h612v-42h-612z" />
<glyph unicode="&#x2192;" horiz-adv-x="766" d="M40 363h612l-298 296l31 30l347 -347l-347 -347l-31 29l298 297h-612v42z" />
<glyph unicode="&#x2191;" horiz-adv-x="784" d="M371 612l-297 -298l-29 31l347 347l347 -347l-30 -31l-296 298v-612h-42v612z" />
<glyph unicode="&#x2196;" horiz-adv-x="817" d="M742 -2l-609 609v-419l-43 1v491h491l1 -43h-419l609 -610z" />
<glyph unicode="&#x2197;" horiz-adv-x="848" d="M685 637h-419l1 43h491v-491l-43 -1v419l-609 -609l-30 29z" />
<glyph horiz-adv-x="679" d="M581 409l-213 -213l-29 -29l-28 29l-213 213l28 29l214 -213l213 213z" />
<glyph horiz-adv-x="571" d="M189 348l213 -214l-29 -28l-213 213l-29 29l29 28l213 213l29 -28z" />
<glyph horiz-adv-x="571" d="M440 347l-29 -28l-213 -213l-29 28l214 214l-214 213l29 28l213 -213z" />
<glyph horiz-adv-x="679" d="M553 187l-213 214l-214 -214l-28 29l213 213l29 29l28 -29l213 -213z" />
<glyph unicode="&#x26;" horiz-adv-x="779" d="M632 288l-80 -156l142 -119v-13h-58l-108 94c-55 -75 -140 -106 -234 -106c-141 0 -233 81 -233 193c0 98 72 165 152 193c-51 54 -74 96 -74 151c0 99 76 170 184 170c65 0 118 -26 150 -73v58h42v-156h-42c-14 88 -72 130 -146 130c-85 0 -142 -54 -142 -131 c0 -84 70 -140 199 -250l136 -114l66 129h-103v42h249v-42h-100zM296 29c79 0 153 26 201 92l-148 129c-42 36 -77 67 -105 94c-80 -27 -139 -82 -139 -161c0 -89 75 -154 191 -154z" />
<glyph unicode="^" horiz-adv-x="384" d="M348 448h-43l-113 196l-113 -196h-43l136 232h40z" />
<glyph unicode="@" horiz-adv-x="986" d="M488 421c71 0 132 -24 179 -40v-187c0 -74 21 -118 81 -118c75 0 117 70 117 167c0 196 -169 356 -371 356c-201 0 -371 -159 -371 -363c0 -206 171 -363 370 -363c89 0 174 31 240 85l22 -31c-72 -58 -163 -90 -261 -90c-224 0 -410 170 -410 399c0 228 187 399 410 399 c226 0 409 -173 409 -391c0 -112 -49 -204 -155 -204c-62 0 -94 28 -109 70c-35 -47 -88 -76 -154 -76c-106 0 -191 80 -191 194s85 193 194 193zM491 72c55 0 105 27 138 77c-2 16 -3 33 -3 51v154c-41 15 -87 29 -135 29c-84 0 -154 -61 -154 -155s70 -156 154 -156z" />
<glyph unicode="|" horiz-adv-x="306" d="M174 730v-890h-43v890h43z" />
<glyph unicode="&#xa6;" horiz-adv-x="306" d="M174 336h-43v394h43v-394zM174 -160h-43v394h43v-394z" />
<glyph unicode="&#xa9;" horiz-adv-x="869" d="M434 695c198 0 364 -152 364 -355s-166 -355 -364 -355s-364 152 -364 355s166 355 364 355zM434 15c178 0 332 141 332 325s-154 325 -332 325s-331 -141 -331 -325s153 -325 331 -325zM433 184c66 0 121 39 138 97h39c-19 -77 -91 -132 -176 -132 c-104 0 -189 84 -189 191c0 106 85 190 186 190c59 0 109 -27 139 -66v57h35v-123h-34c-17 58 -72 97 -138 97c-84 0 -151 -69 -151 -155c0 -87 67 -156 151 -156z" />
<glyph unicode="&#x2020;" horiz-adv-x="405" d="M220 563v-220h-35v220h-128v35h128v128h35v-128h128v-35h-128z" />
<glyph unicode="&#x2021;" horiz-adv-x="405" d="M220 494h128v-34h-128v-117h-35v117h-128v34h128v90h-128v35h128v107h35v-107h128v-35h-128v-90z" />
<glyph unicode="&#xb0;" horiz-adv-x="389" d="M195 695c93 0 164 -70 164 -161c0 -90 -71 -160 -164 -160s-164 70 -164 160c0 91 71 161 164 161zM195 409c70 0 128 56 128 125c0 71 -58 127 -128 127c-71 0 -128 -56 -128 -127c0 -69 57 -125 128 -125z" />
<glyph unicode="&#x2116;" horiz-adv-x="1397" d="M844 680v-41h-112v-639h-44l-474 603v-562h112v-41h-269v41h111v598h-111v41h152l477 -607v566h-111v41h269zM1097 137c-136 0 -244 107 -244 243c0 135 108 241 244 241c135 0 243 -106 243 -241c0 -136 -108 -243 -243 -243zM1097 580c-111 0 -199 -90 -199 -200 c0 -111 88 -202 199 -202c110 0 197 91 197 202c0 110 -87 200 -197 200zM866 41h460v-41h-460v41z" />
<glyph unicode="&#xb6;" horiz-adv-x="778" d="M744 639h-111v-799h-46v799h-158v-799h-47v401h-100c-133 0 -238 88 -238 221c0 131 105 218 238 218h462v-41zM382 639h-100c-107 0 -192 -71 -192 -177c0 -108 85 -179 192 -179h100v356z" />
<glyph unicode="&#x2117;" horiz-adv-x="869" d="M434 695c198 0 364 -152 364 -355s-166 -355 -364 -355s-364 152 -364 355s166 355 364 355zM434 15c178 0 332 141 332 325s-154 325 -332 325s-331 -141 -331 -325s153 -325 331 -325zM273 507h204c84 0 143 -49 143 -117s-59 -114 -144 -114h-100v-107h-103v31h71v276 h-71v31zM377 305h100c65 0 110 35 110 85s-45 87 -110 87h-100v-172z" />
<glyph unicode="&#xae;" horiz-adv-x="548" d="M274 694c124 0 229 -95 229 -222s-105 -222 -229 -222s-228 95 -228 222s104 222 228 222zM274 273c108 0 202 87 202 199s-94 200 -202 200s-203 -88 -203 -200s95 -199 203 -199zM349 404h32v-22h-60v19l-33 43h-55v-62h-57v22h32v149h-32v22h116c40 0 73 -26 73 -65 c0 -33 -21 -56 -51 -63zM233 468h59c25 0 47 16 47 42c0 25 -22 42 -47 42h-59v-84z" />
<glyph unicode="&#xa7;" horiz-adv-x="540" d="M494 221c0 -67 -48 -107 -102 -123c36 -27 58 -60 58 -109c0 -92 -73 -147 -174 -147c-73 0 -127 29 -160 72v-62h-42v148h43c14 -73 71 -117 153 -117c77 0 134 37 134 107c0 57 -36 83 -128 126l-98 46c-90 41 -132 83 -132 148c0 68 48 108 103 123 c-37 28 -59 60 -59 109c0 93 75 148 169 148c66 0 116 -27 147 -70v60h42v-149h-42c-13 73 -68 118 -143 118c-69 0 -127 -38 -127 -108c0 -56 36 -82 129 -125l97 -46c89 -42 132 -83 132 -149zM345 128c55 5 104 36 104 94c0 44 -29 75 -108 112l-94 45 c-18 8 -35 16 -50 25c-57 -4 -105 -35 -105 -95c0 -43 27 -74 107 -112l94 -44c18 -9 36 -17 52 -25z" />
<glyph unicode="&#x2122;" horiz-adv-x="773" d="M313 680v-90h-29v62h-94v-239h58v-25h-146v25h58v239h-95v-62h-29v90h277zM692 655v-242h45v-25h-123v25h48v206l-112 -188h-17l-113 190l1 -208h46v-25h-123v25h47v242h-47v25h73l124 -208l124 208h72v-25h-45z" />
<glyph d="M445 340l294 -295l-25 -25l-294 295l-295 -295l-25 25l295 295l-295 294l25 25l295 -294l294 294l25 -25z" />
<glyph d="M445 340l294 -295l-25 -25l-294 295l-295 -295l-25 25l295 295l-295 294l25 25l295 -294l294 294l25 -25z" />
<glyph d="M445 340l294 -295l-25 -25l-294 295l-295 -295l-25 25l295 295l-295 294l25 25l295 -294l294 294l25 -25z" />
<glyph horiz-adv-x="869" d="M434 695c198 0 364 -152 364 -355s-166 -355 -364 -355s-364 152 -364 355s166 355 364 355zM434 15c178 0 332 141 332 325s-154 325 -332 325s-331 -141 -331 -325s153 -325 331 -325zM562 209h59v-30h-92v22l-80 90h-85v-112h-96v30h64v273h-64v31h189 c81 0 134 -44 134 -112c0 -58 -40 -98 -104 -108zM365 320h92c62 0 102 33 102 81c0 49 -40 82 -102 82h-92v-163z" />
<glyph unicode="&#xb4;" d="M445 340l294 -295l-25 -25l-294 295l-295 -295l-25 25l295 295l-295 294l25 25l295 -294l294 294l25 -25z" />
<glyph unicode="&#x2d8;" d="M445 340l294 -295l-25 -25l-294 295l-295 -295l-25 25l295 295l-295 294l25 25l295 -294l294 294l25 -25z" />
<glyph unicode="&#x2c7;" d="M445 340l294 -295l-25 -25l-294 295l-295 -295l-25 25l295 295l-295 294l25 25l295 -294l294 294l25 -25z" />
<glyph unicode="&#xb8;" d="M445 340l294 -295l-25 -25l-294 295l-295 -295l-25 25l295 295l-295 294l25 25l295 -294l294 294l25 -25z" />
<glyph unicode="&#x2c6;" d="M445 340l294 -295l-25 -25l-294 295l-295 -295l-25 25l295 295l-295 294l25 25l295 -294l294 294l25 -25z" />
<glyph unicode="&#xa8;" horiz-adv-x="600" d="M212 668c20 0 37 -16 37 -36c0 -21 -17 -37 -37 -37s-37 16 -37 37c0 20 17 36 37 36zM388 668c20 0 37 -16 37 -36c0 -21 -17 -37 -37 -37s-37 16 -37 37c0 20 17 36 37 36z" />
<glyph unicode="&#x2d9;" d="M445 340l294 -295l-25 -25l-294 295l-295 -295l-25 25l295 295l-295 294l25 25l295 -294l294 294l25 -25z" />
<glyph unicode="`" d="M445 340l294 -295l-25 -25l-294 295l-295 -295l-25 25l295 295l-295 294l25 25l295 -294l294 294l25 -25z" />
<glyph unicode="&#x2dd;" d="M445 340l294 -295l-25 -25l-294 295l-295 -295l-25 25l295 295l-295 294l25 25l295 -294l294 294l25 -25z" />
<glyph unicode="&#xaf;" d="M445 340l294 -295l-25 -25l-294 295l-295 -295l-25 25l295 295l-295 294l25 25l295 -294l294 294l25 -25z" />
<glyph unicode="&#x2db;" d="M445 340l294 -295l-25 -25l-294 295l-295 -295l-25 25l295 295l-295 294l25 25l295 -294l294 294l25 -25z" />
<glyph unicode="&#x2da;" d="M445 340l294 -295l-25 -25l-294 295l-295 -295l-25 25l295 295l-295 294l25 25l295 -294l294 294l25 -25z" />
<glyph unicode="&#x2dc;" d="M445 340l294 -295l-25 -25l-294 295l-295 -295l-25 25l295 295l-295 294l25 25l295 -294l294 294l25 -25z" />
<glyph d="M445 340l294 -295l-25 -25l-294 295l-295 -295l-25 25l295 295l-295 294l25 25l295 -294l294 294l25 -25z" />
<glyph d="M445 340l294 -295l-25 -25l-294 295l-295 -295l-25 25l295 295l-295 294l25 25l295 -294l294 294l25 -25z" />
<glyph d="M445 340l294 -295l-25 -25l-294 295l-295 -295l-25 25l295 295l-295 294l25 25l295 -294l294 294l25 -25z" />
<glyph d="M445 340l294 -295l-25 -25l-294 295l-295 -295l-25 25l295 295l-295 294l25 25l295 -294l294 294l25 -25z" />
<glyph d="M445 340l294 -295l-25 -25l-294 295l-295 -295l-25 25l295 295l-295 294l25 25l295 -294l294 294l25 -25z" />
<glyph horiz-adv-x="600" d="M212 860c20 0 37 -16 37 -36c0 -21 -17 -37 -37 -37s-37 16 -37 37c0 20 17 36 37 36zM388 860c20 0 37 -16 37 -36c0 -21 -17 -37 -37 -37s-37 16 -37 37c0 20 17 36 37 36z" />
<glyph d="M445 340l294 -295l-25 -25l-294 295l-295 -295l-25 25l295 295l-295 294l25 25l295 -294l294 294l25 -25z" />
<glyph d="M445 340l294 -295l-25 -25l-294 295l-295 -295l-25 25l295 295l-295 294l25 25l295 -294l294 294l25 -25z" />
<glyph d="M445 340l294 -295l-25 -25l-294 295l-295 -295l-25 25l295 295l-295 294l25 25l295 -294l294 294l25 -25z" />
<glyph d="M445 340l294 -295l-25 -25l-294 295l-295 -295l-25 25l295 295l-295 294l25 25l295 -294l294 294l25 -25z" />
<glyph d="M445 340l294 -295l-25 -25l-294 295l-295 -295l-25 25l295 295l-295 294l25 25l295 -294l294 294l25 -25z" />
<glyph d="M445 340l294 -295l-25 -25l-294 295l-295 -295l-25 25l295 295l-295 294l25 25l295 -294l294 294l25 -25z" />
<glyph unicode="&#x326;" horiz-adv-x="0" d="M445 340l294 -295l-25 -25l-294 295l-295 -295l-25 25l295 295l-295 294l25 25l295 -294l294 294l25 -25z" />
</font>
</defs>
</svg>
