<?xml version="1.0" encoding="utf-8"?>
<!-- Generator: Adobe Illustrator 16.0.0, SVG Export Plug-In . SVG Version: 6.00 Build 0)  -->
<!DOCTYPE svg PUBLIC "-//W3C//DTD SVG 1.1//EN" "http://www.w3.org/Graphics/SVG/1.1/DTD/svg11.dtd">
<svg version="1.1" xmlns="http://www.w3.org/2000/svg" xmlns:xlink="http://www.w3.org/1999/xlink" x="0px" y="0px"
	 width="458.951px" height="119.485px" viewBox="0 0 458.951 119.485" enable-background="new 0 0 458.951 119.485"
	 xml:space="preserve">
<g id="Capa_1">
	<rect x="-3598.476" y="-513.281" fill="#4B7AC9" width="1599.71" height="958.633"/>
	<rect x="-4787.302" y="-590.515" fill="#4B7AC9" width="640" height="96.512"/>
	<rect x="-4787.302" y="-492.276" fill="#6091D8" width="640" height="130.095"/>
	<rect x="-4787.302" y="-362.501" fill="#EFEFEF" width="640" height="151.986"/>
	<rect x="-5710.243" y="-590.515" fill="#4B7AC9" width="125" height="125"/>
</g>
<g id="Capa_2">
	
		<radialGradient id="SVGID_1_" cx="-5185.7656" cy="-21.375" r="151.5655" gradientTransform="matrix(1 0 0 0.6082 0 -8.3748)" gradientUnits="userSpaceOnUse">
		<stop  offset="0" style="stop-color:#FFFFFF;stop-opacity:0.75"/>
		<stop  offset="1" style="stop-color:#FFFFFF;stop-opacity:0"/>
	</radialGradient>
	<path fill="url(#SVGID_1_)" d="M-5039.018-131.031c-3.452-13.235-13.812-58.124-42.011-94.379c0,0,13.812,85.172-104.737,85.172
		s-104.737-85.172-104.737-85.172c-28.199,36.255-38.557,81.144-42.012,94.379c-3.452,13.237-13.234,58.7,0,132.937
		c13.237,74.238,146.749,71.938,146.749,71.938s133.513,2.301,146.748-71.938C-5025.781-72.332-5035.564-117.794-5039.018-131.031z"
		/>
	<path opacity="0.12" d="M-5044.938-163.727c-3.308-13.236-13.229-58.124-40.237-94.379c0,0,13.229,85.171-100.314,85.171
		c-113.545,0-100.314-85.171-100.314-85.171c-27.009,36.255-36.93,81.143-40.238,94.379c-3.307,13.236-12.676,58.699,0,132.937
		c12.679,74.236,140.553,71.936,140.553,71.936s127.875,2.301,140.552-71.936C-5032.261-105.028-5041.63-150.491-5044.938-163.727z"
		/>
</g>
<g id="Capa_3">
	<g opacity="0.5">
		<line fill="none" stroke="#FFFFFF" stroke-miterlimit="10" x1="455.274" y1="114.517" x2="288.834" y2="3.426"/>
		<line fill="none" stroke="#FFFFFF" stroke-miterlimit="10" x1="440.385" y1="114.517" x2="288.834" y2="3.426"/>
		<line fill="none" stroke="#FFFFFF" stroke-miterlimit="10" x1="3.53" y1="114.517" x2="169.971" y2="3.426"/>
		<line fill="none" stroke="#FFFFFF" stroke-miterlimit="10" x1="18.42" y1="114.517" x2="169.971" y2="3.426"/>
		<line fill="none" stroke="#FFFFFF" stroke-miterlimit="10" x1="60.824" y1="83.438" x2="397.318" y2="83.438"/>
		<line fill="none" stroke="#FFFFFF" stroke-miterlimit="10" x1="94.197" y1="58.972" x2="364.607" y2="58.972"/>
		<line fill="none" stroke="#FFFFFF" stroke-miterlimit="10" x1="117.481" y1="41.904" x2="341.463" y2="41.904"/>
		<line fill="none" stroke="#FFFFFF" stroke-miterlimit="10" x1="131.329" y1="31.754" x2="328.385" y2="31.754"/>
		<line fill="none" stroke="#FFFFFF" stroke-miterlimit="10" x1="143.092" y1="23.128" x2="314.908" y2="23.128"/>
		<line fill="none" stroke="#FFFFFF" stroke-miterlimit="10" x1="270.311" y1="16.91" x2="307.832" y2="16.91"/>
		<line fill="none" stroke="#FFFFFF" stroke-miterlimit="10" x1="151.576" y1="16.91" x2="188.488" y2="16.91"/>
		<line fill="none" stroke="#FFFFFF" stroke-miterlimit="10" x1="158.566" y1="11.784" x2="178.029" y2="11.784"/>
		<line fill="none" stroke="#FFFFFF" stroke-miterlimit="10" x1="299.434" y1="11.195" x2="282.27" y2="11.195"/>
		<polygon fill="none" stroke="#FFFFFF" stroke-miterlimit="10" points="394.014,81.463 64.535,81.463 95.605,58.972 363.59,58.972 
					"/>
		<polygon fill="none" stroke="#FFFFFF" stroke-miterlimit="10" points="341.463,41.376 117.481,41.376 133.834,30.547 
			325.945,30.547 		"/>
		<path fill="none" stroke="#FFFFFF" stroke-miterlimit="10" d="M201.055,22.54h-57.158l8.375-6.139h29.414"/>
		<path fill="none" stroke="#FFFFFF" stroke-miterlimit="10" d="M255.643,22.54h57.164l-8.375-6.139h-29.415"/>
	</g>
	<g>
		<path d="M-5185.766,14.292c-87.731,0-120.324-35.121-120.324-35.121c3.749,54.777,120.324,52.633,120.324,52.633
			s116.576,2.145,120.325-52.633C-5065.44-20.829-5098.033,14.292-5185.766,14.292z"/>
		<linearGradient id="SVGID_2_" gradientUnits="userSpaceOnUse" x1="-5330.1924" y1="-117.2983" x2="-5041.3389" y2="-117.2983">
			<stop  offset="0" style="stop-color:#EFEFEF"/>
			<stop  offset="0.25" style="stop-color:#FFFFFF"/>
			<stop  offset="0.75" style="stop-color:#FFFFFF"/>
			<stop  offset="1" style="stop-color:#EFEFEF"/>
		</linearGradient>
		<path fill="url(#SVGID_2_)" d="M-5047.67-169.292c-3.249-12.455-12.997-54.696-39.533-88.813c0,0,12.997,80.149-98.562,80.149
			s-98.562-80.149-98.562-80.149c-26.536,34.118-36.283,76.359-39.534,88.813c-3.248,12.456-12.454,55.238,0,125.1
			c12.457,69.861,138.097,67.693,138.097,67.693s125.64,2.168,138.096-67.693C-5035.215-114.054-5044.421-156.836-5047.67-169.292z"
			/>
		<path opacity="0.08" d="M-5076.444-205.651c0,0-20.428-3.892-19.844,5.447c0.583,9.338,4.086,44.356,16.731,50.973
			c12.646,6.615,20.517,6.543,20.517,6.543s12.558-31.252,0.301-51.875C-5058.739-194.562-5062.655-202.246-5076.444-205.651z"/>
		<path opacity="0.08" d="M-5298.302-205.651c0,0,20.427-3.892,19.844,5.447c-0.583,9.338-4.086,44.356-16.732,50.973
			c-12.645,6.615-20.516,6.543-20.516,6.543s-12.557-31.252-0.301-51.875C-5316.007-194.562-5312.092-202.246-5298.302-205.651z"/>
		<path opacity="0.12" d="M-5185.766-1.681c0,0-89.464,4.875-138.097-42.512c12.457,69.861,138.097,67.693,138.097,67.693
			s125.64,2.168,138.096-67.693C-5096.302,3.194-5185.766-1.681-5185.766-1.681z"/>
		<g>
			<path fill="#B0286C" d="M-5052.489-186.798l-0.032-0.37c9.771,106.138-133.244,101.818-133.244,101.818
				S-5035.079-76.035-5052.489-186.798z"/>
			<path fill="#B0286C" d="M-5319.009-187.168l-0.033,0.37c-17.41,110.763,133.276,101.448,133.276,101.448
				S-5328.778-81.03-5319.009-187.168z"/>
		</g>
		<path fill="#EB9C18" d="M-5185.766-34.173c0,0-118.8,0.266-143.747-56.326v5.342c24.947,56.589,143.747,56.324,143.747,56.324
			s118.801,0.266,143.747-56.324v-5.342C-5066.965-33.907-5185.766-34.173-5185.766-34.173z"/>
		<path fill="#B0286C" d="M-5185.766-24.155c0,0-114.739-2.893-141.987-46.532l1.358,10.132
			c29.492,41.687,140.629,44.49,140.629,44.49s111.138-2.803,140.629-44.49l1.358-10.132
			C-5071.026-27.048-5185.766-24.155-5185.766-24.155z"/>
		<path opacity="0.08" d="M-5081.246-141.401c-36.551-7.582-104.508-7.042-104.52-7.042c-0.011,0-67.968-0.541-104.519,7.042
			c0,0-14.216,2.933-15.164,7.041v1.103c0.948-4.105,15.164-7.04,15.164-7.04c36.548-7.581,104.496-7.04,104.519-7.04l0,0l0,0l0,0
			l0,0c0.023,0,67.971-0.541,104.52,7.04c0,0,14.216,2.934,15.164,7.04v-1.103C-5067.03-138.468-5081.246-141.401-5081.246-141.401z
			"/>
		<path opacity="0.2" fill="#FFFFFF" d="M-5185.766,22.358L-5185.766,22.358L-5185.766,22.358L-5185.766,22.358L-5185.766,22.358
			c-0.049,0.004-126.325,1.447-139.159-73.52V-49c12.836,74.972,139.135,73.519,139.159,73.519s126.324,1.453,139.16-73.519v-2.161
			C-5059.439,23.806-5185.716,22.362-5185.766,22.358z"/>
		<linearGradient id="SVGID_3_" gradientUnits="userSpaceOnUse" x1="-5092.2695" y1="-173.7822" x2="-5052.752" y2="-173.7822">
			<stop  offset="0" style="stop-color:#222222"/>
			<stop  offset="0.25" style="stop-color:#444444"/>
			<stop  offset="0.75" style="stop-color:#444444"/>
			<stop  offset="1" style="stop-color:#222222"/>
		</linearGradient>
		<path opacity="0.2" fill="url(#SVGID_3_)" d="M-5073.845-204.131c0,0-18.954-3.61-18.413,5.055
			c0.542,8.665,3.791,41.157,15.524,47.296c11.733,6.138,17.693,9.094,17.693,9.094s12.994-32.02,1.622-51.154
			C-5057.418-193.841-5061.051-200.972-5073.845-204.131z"/>
		<linearGradient id="SVGID_4_" gradientUnits="userSpaceOnUse" x1="-5088.9219" y1="-175.3604" x2="-5053.1943" y2="-175.3604">
			<stop  offset="0" style="stop-color:#EFEFEF"/>
			<stop  offset="0.25" style="stop-color:#FFFFFF"/>
			<stop  offset="0.75" style="stop-color:#FFFFFF"/>
			<stop  offset="1" style="stop-color:#EFEFEF"/>
		</linearGradient>
		<path fill="url(#SVGID_4_)" d="M-5073.394-202.687c0,0-15.795-3.971-15.524,4.333s1.805,29.424,6.589,37.187
			s17.24,13.449,17.24,13.449s4.151,2.345,6.317-1.986c2.166-4.334,11.012-28.613,0.632-43.957
			C-5058.14-193.661-5062.201-200.606-5073.394-202.687z"/>
		<linearGradient id="SVGID_5_" gradientUnits="userSpaceOnUse" x1="-5084.9307" y1="-179.4614" x2="-5057.9082" y2="-179.4614">
			<stop  offset="0" style="stop-color:#222222"/>
			<stop  offset="0.25" style="stop-color:#444444"/>
			<stop  offset="0.75" style="stop-color:#444444"/>
			<stop  offset="1" style="stop-color:#222222"/>
		</linearGradient>
		<circle opacity="0.1" fill="url(#SVGID_5_)" cx="-5071.419" cy="-179.461" r="13.511"/>
		<linearGradient id="SVGID_6_" gradientUnits="userSpaceOnUse" x1="-5082.5186" y1="-179.5024" x2="-5060.2793" y2="-179.5024">
			<stop  offset="0" style="stop-color:#EFEFEF"/>
			<stop  offset="0.25" style="stop-color:#FFFFFF"/>
			<stop  offset="0.75" style="stop-color:#FFFFFF"/>
			<stop  offset="1" style="stop-color:#EFEFEF"/>
		</linearGradient>
		<circle fill="url(#SVGID_6_)" cx="-5071.399" cy="-179.502" r="11.12"/>
		<linearGradient id="SVGID_7_" gradientUnits="userSpaceOnUse" x1="-5075.1641" y1="-179.1055" x2="-5067.6738" y2="-179.1055">
			<stop  offset="0" style="stop-color:#EFEFEF"/>
			<stop  offset="0.25" style="stop-color:#FFFFFF"/>
			<stop  offset="0.75" style="stop-color:#FFFFFF"/>
			<stop  offset="1" style="stop-color:#EFEFEF"/>
		</linearGradient>
		<circle fill="url(#SVGID_7_)" cx="-5071.419" cy="-179.105" r="3.745"/>
		<linearGradient id="SVGID_8_" gradientUnits="userSpaceOnUse" x1="-5321.9941" y1="-173.7822" x2="-5282.478" y2="-173.7822">
			<stop  offset="0" style="stop-color:#222222"/>
			<stop  offset="0.25" style="stop-color:#444444"/>
			<stop  offset="0.75" style="stop-color:#444444"/>
			<stop  offset="1" style="stop-color:#222222"/>
		</linearGradient>
		<path opacity="0.2" fill="url(#SVGID_8_)" d="M-5300.902-204.131c0,0,18.954-3.61,18.413,5.055s-3.791,41.157-15.524,47.296
			c-11.733,6.138-17.692,9.094-17.692,9.094s-12.995-32.02-1.623-51.154C-5317.329-193.841-5313.696-200.972-5300.902-204.131z"/>
		<linearGradient id="SVGID_9_" gradientUnits="userSpaceOnUse" x1="-5321.5518" y1="-175.3604" x2="-5285.8257" y2="-175.3604">
			<stop  offset="0" style="stop-color:#EFEFEF"/>
			<stop  offset="0.25" style="stop-color:#FFFFFF"/>
			<stop  offset="0.75" style="stop-color:#FFFFFF"/>
			<stop  offset="1" style="stop-color:#EFEFEF"/>
		</linearGradient>
		<path fill="url(#SVGID_9_)" d="M-5301.354-202.687c0,0,15.796-3.971,15.524,4.333c-0.271,8.304-1.805,29.424-6.589,37.187
			s-17.239,13.449-17.239,13.449s-4.152,2.345-6.318-1.986c-2.166-4.334-11.01-28.613-0.632-43.957
			C-5316.607-193.661-5312.546-200.606-5301.354-202.687z"/>
		<linearGradient id="SVGID_10_" gradientUnits="userSpaceOnUse" x1="-5316.8389" y1="-179.4614" x2="-5289.8154" y2="-179.4614">
			<stop  offset="0" style="stop-color:#222222"/>
			<stop  offset="0.25" style="stop-color:#444444"/>
			<stop  offset="0.75" style="stop-color:#444444"/>
			<stop  offset="1" style="stop-color:#222222"/>
		</linearGradient>
		<circle opacity="0.1" fill="url(#SVGID_10_)" cx="-5303.327" cy="-179.461" r="13.512"/>
		<linearGradient id="SVGID_11_" gradientUnits="userSpaceOnUse" x1="-5314.4658" y1="-179.5024" x2="-5292.2275" y2="-179.5024">
			<stop  offset="0" style="stop-color:#EFEFEF"/>
			<stop  offset="0.25" style="stop-color:#FFFFFF"/>
			<stop  offset="0.75" style="stop-color:#FFFFFF"/>
			<stop  offset="1" style="stop-color:#EFEFEF"/>
		</linearGradient>
		<circle fill="url(#SVGID_11_)" cx="-5303.347" cy="-179.502" r="11.119"/>
		<linearGradient id="SVGID_12_" gradientUnits="userSpaceOnUse" x1="-5307.0732" y1="-179.1055" x2="-5299.583" y2="-179.1055">
			<stop  offset="0" style="stop-color:#EFEFEF"/>
			<stop  offset="0.25" style="stop-color:#FFFFFF"/>
			<stop  offset="0.75" style="stop-color:#FFFFFF"/>
			<stop  offset="1" style="stop-color:#EFEFEF"/>
		</linearGradient>
		<circle fill="url(#SVGID_12_)" cx="-5303.328" cy="-179.105" r="3.745"/>
		<linearGradient id="SVGID_13_" gradientUnits="userSpaceOnUse" x1="-5284.7241" y1="-245.1489" x2="-5086.8066" y2="-245.1489">
			<stop  offset="0" style="stop-color:#222222"/>
			<stop  offset="0.25" style="stop-color:#444444"/>
			<stop  offset="0.75" style="stop-color:#444444"/>
			<stop  offset="1" style="stop-color:#222222"/>
		</linearGradient>
		<path fill="url(#SVGID_13_)" d="M-5087.203-258.105c-1.084-11.373-16.247-19.767-16.247-19.767
			c-16.606-35.833-82.315-34.389-82.315-34.389s-67.339-3.43-82.315,34.389c0,0-15.164,8.394-16.247,19.767
			c0,0-12.183,80.149,98.562,80.149C-5075.02-177.956-5087.203-258.105-5087.203-258.105z"/>
		<path opacity="0.3" d="M-5102.908-241.047c0,0-11.102-24.641-13.81-33.847c-2.708-9.207-13.269-10.831-13.269-10.831
			c-20.036-2.979-55.779-4.062-55.779-4.062s-35.743,1.083-55.779,4.062c0,0-10.561,1.625-13.269,10.831
			c-2.708,9.206-13.81,33.847-13.81,33.847s-4.333,7.853,4.603,7.853h78.255h78.254
			C-5098.576-233.194-5102.908-241.047-5102.908-241.047z"/>
	</g>
	<g>
		
			<radialGradient id="SVGID_14_" cx="-5647.7427" cy="-504.8604" r="35.8575" gradientTransform="matrix(1 0 0 0.6082 0 -197.8058)" gradientUnits="userSpaceOnUse">
			<stop  offset="0" style="stop-color:#FFFFFF;stop-opacity:0.75"/>
			<stop  offset="1" style="stop-color:#FFFFFF;stop-opacity:0"/>
		</radialGradient>
		<path fill="url(#SVGID_14_)" d="M-5613.025-530.803c-0.817-3.131-3.268-13.751-9.938-22.328c0,0,3.268,20.15-24.779,20.15
			s-24.779-20.15-24.779-20.15c-6.671,8.577-9.121,19.197-9.938,22.328c-0.817,3.132-3.132,13.888,0,31.45
			c3.132,17.563,34.718,17.019,34.718,17.019s31.586,0.545,34.718-17.019C-5609.894-516.915-5612.208-527.671-5613.025-530.803z"/>
		<path opacity="0.12" d="M-5614.425-538.538c-0.782-3.131-3.13-13.751-9.52-22.328c0,0,3.13,20.15-23.732,20.15
			c-26.863,0-23.732-20.15-23.732-20.15c-6.39,8.577-8.737,19.197-9.52,22.328c-0.783,3.131-3,13.887,0,31.45
			s33.252,17.019,33.252,17.019s30.253,0.545,33.252-17.019S-5613.643-535.407-5614.425-538.538z"/>
		<g>
			<path d="M-5647.743-496.422c-20.755,0-28.466-8.309-28.466-8.309c0.886,12.959,28.466,12.451,28.466,12.451
				s27.58,0.508,28.467-12.451C-5619.276-504.73-5626.987-496.422-5647.743-496.422z"/>
			<linearGradient id="SVGID_15_" gradientUnits="userSpaceOnUse" x1="-5681.9116" y1="-527.5537" x2="-5613.5742" y2="-527.5537">
				<stop  offset="0" style="stop-color:#EFEFEF"/>
				<stop  offset="0.25" style="stop-color:#FFFFFF"/>
				<stop  offset="0.75" style="stop-color:#FFFFFF"/>
				<stop  offset="1" style="stop-color:#EFEFEF"/>
			</linearGradient>
			<path fill="url(#SVGID_15_)" d="M-5615.072-539.854c-0.769-2.947-3.075-12.94-9.353-21.012c0,0,3.075,18.962-23.318,18.962
				s-23.318-18.962-23.318-18.962c-6.277,8.072-8.583,18.065-9.353,21.012c-0.769,2.947-2.947,13.068,0,29.597
				s32.671,16.015,32.671,16.015s29.724,0.514,32.671-16.015S-5614.303-536.908-5615.072-539.854z"/>
			<path opacity="0.08" d="M-5621.879-548.456c0,0-4.833-0.921-4.695,1.288c0.139,2.209,0.967,10.494,3.958,12.06
				c2.992,1.565,4.854,1.548,4.854,1.548s2.972-7.394,0.072-12.272C-5617.69-545.833-5618.617-547.651-5621.879-548.456z"/>
			<path opacity="0.08" d="M-5674.367-548.456c0,0,4.833-0.921,4.695,1.288c-0.138,2.209-0.967,10.494-3.958,12.06
				c-2.992,1.565-4.854,1.548-4.854,1.548s-2.971-7.394-0.071-12.272C-5678.555-545.833-5677.629-547.651-5674.367-548.456z"/>
			<path opacity="0.12" d="M-5647.743-500.202c0,0-21.166,1.154-32.671-10.056c2.947,16.528,32.671,16.015,32.671,16.015
				s29.724,0.514,32.671-16.015C-5626.577-499.048-5647.743-500.202-5647.743-500.202z"/>
			<g>
				<path fill="#B0286C" d="M-5616.212-543.996l-0.008-0.087c2.312,25.11-31.523,24.088-31.523,24.088
					S-5612.093-517.792-5616.212-543.996z"/>
				<path fill="#B0286C" d="M-5679.266-544.083l-0.008,0.087c-4.119,26.204,31.531,24.001,31.531,24.001
					S-5681.577-518.974-5679.266-544.083z"/>
			</g>
			<path fill="#EB9C18" d="M-5647.743-507.889c0,0-28.106,0.064-34.008-13.325v1.264c5.902,13.389,34.008,13.325,34.008,13.325
				s28.106,0.063,34.008-13.325v-1.264C-5619.636-507.824-5647.743-507.889-5647.743-507.889z"/>
			<path fill="#B0286C" d="M-5647.743-505.518c0,0-27.145-0.685-33.592-11.008l0.322,2.396c6.978,9.861,33.27,10.525,33.27,10.525
				s26.293-0.664,33.271-10.525l0.321-2.396C-5620.598-506.202-5647.743-505.518-5647.743-505.518z"/>
			<path opacity="0.08" d="M-5623.015-533.256c-8.647-1.793-24.725-1.666-24.728-1.666c-0.002,0-16.08-0.128-24.728,1.666
				c0,0-3.363,0.694-3.587,1.666v0.261c0.224-0.971,3.587-1.666,3.587-1.666c8.647-1.793,24.722-1.666,24.728-1.666l0,0l0,0l0,0l0,0
				c0.006,0,16.081-0.127,24.728,1.666c0,0,3.363,0.694,3.587,1.666v-0.261C-5619.652-532.562-5623.015-533.256-5623.015-533.256z"
				/>
			<path opacity="0.2" fill="#FFFFFF" d="M-5647.743-494.514L-5647.743-494.514L-5647.743-494.514L-5647.743-494.514
				L-5647.743-494.514c-0.012,0-29.887,0.343-32.922-17.394v0.512c3.037,17.737,32.917,17.393,32.922,17.393
				s29.886,0.345,32.923-17.393v-0.512C-5617.856-494.171-5647.73-494.514-5647.743-494.514z"/>
			<linearGradient id="SVGID_16_" gradientUnits="userSpaceOnUse" x1="-5625.6235" y1="-540.917" x2="-5616.2744" y2="-540.917">
				<stop  offset="0" style="stop-color:#222222"/>
				<stop  offset="0.25" style="stop-color:#444444"/>
				<stop  offset="0.75" style="stop-color:#444444"/>
				<stop  offset="1" style="stop-color:#222222"/>
			</linearGradient>
			<path opacity="0.2" fill="url(#SVGID_16_)" d="M-5621.265-548.097c0,0-4.484-0.854-4.356,1.196
				c0.129,2.05,0.897,9.737,3.673,11.189c2.776,1.452,4.186,2.151,4.186,2.151s3.075-7.575,0.384-12.102
				C-5617.378-545.662-5618.237-547.349-5621.265-548.097z"/>
			<linearGradient id="SVGID_17_" gradientUnits="userSpaceOnUse" x1="-5624.8311" y1="-541.29" x2="-5616.3789" y2="-541.29">
				<stop  offset="0" style="stop-color:#EFEFEF"/>
				<stop  offset="0.25" style="stop-color:#FFFFFF"/>
				<stop  offset="0.75" style="stop-color:#FFFFFF"/>
				<stop  offset="1" style="stop-color:#EFEFEF"/>
			</linearGradient>
			<path fill="url(#SVGID_17_)" d="M-5621.157-547.755c0,0-3.737-0.939-3.673,1.025c0.063,1.964,0.427,6.961,1.559,8.798
				c1.131,1.836,4.079,3.182,4.079,3.182s0.982,0.555,1.494-0.47c0.513-1.025,2.605-6.77,0.15-10.4
				C-5617.548-545.62-5618.51-547.263-5621.157-547.755z"/>
			<linearGradient id="SVGID_18_" gradientUnits="userSpaceOnUse" x1="-5623.8872" y1="-542.2607" x2="-5617.4941" y2="-542.2607">
				<stop  offset="0" style="stop-color:#222222"/>
				<stop  offset="0.25" style="stop-color:#444444"/>
				<stop  offset="0.75" style="stop-color:#444444"/>
				<stop  offset="1" style="stop-color:#222222"/>
			</linearGradient>
			<circle opacity="0.1" fill="url(#SVGID_18_)" cx="-5620.69" cy="-542.26" r="3.197"/>
			<linearGradient id="SVGID_19_" gradientUnits="userSpaceOnUse" x1="-5623.3164" y1="-542.27" x2="-5618.0547" y2="-542.27">
				<stop  offset="0" style="stop-color:#EFEFEF"/>
				<stop  offset="0.25" style="stop-color:#FFFFFF"/>
				<stop  offset="0.75" style="stop-color:#FFFFFF"/>
				<stop  offset="1" style="stop-color:#EFEFEF"/>
			</linearGradient>
			<circle fill="url(#SVGID_19_)" cx="-5620.686" cy="-542.27" r="2.631"/>
			<linearGradient id="SVGID_20_" gradientUnits="userSpaceOnUse" x1="-5621.5762" y1="-542.1758" x2="-5619.8047" y2="-542.1758">
				<stop  offset="0" style="stop-color:#EFEFEF"/>
				<stop  offset="0.25" style="stop-color:#FFFFFF"/>
				<stop  offset="0.75" style="stop-color:#FFFFFF"/>
				<stop  offset="1" style="stop-color:#EFEFEF"/>
			</linearGradient>
			<circle fill="url(#SVGID_20_)" cx="-5620.69" cy="-542.176" r="0.886"/>
			<linearGradient id="SVGID_21_" gradientUnits="userSpaceOnUse" x1="-5679.9717" y1="-540.917" x2="-5670.623" y2="-540.917">
				<stop  offset="0" style="stop-color:#222222"/>
				<stop  offset="0.25" style="stop-color:#444444"/>
				<stop  offset="0.75" style="stop-color:#444444"/>
				<stop  offset="1" style="stop-color:#222222"/>
			</linearGradient>
			<path opacity="0.2" fill="url(#SVGID_21_)" d="M-5674.981-548.097c0,0,4.484-0.854,4.355,1.196
				c-0.128,2.05-0.896,9.737-3.673,11.189c-2.775,1.452-4.185,2.151-4.185,2.151s-3.075-7.575-0.384-12.102
				C-5678.868-545.662-5678.009-547.349-5674.981-548.097z"/>
			<linearGradient id="SVGID_22_" gradientUnits="userSpaceOnUse" x1="-5679.8667" y1="-541.29" x2="-5671.415" y2="-541.29">
				<stop  offset="0" style="stop-color:#EFEFEF"/>
				<stop  offset="0.25" style="stop-color:#FFFFFF"/>
				<stop  offset="0.75" style="stop-color:#FFFFFF"/>
				<stop  offset="1" style="stop-color:#EFEFEF"/>
			</linearGradient>
			<path fill="url(#SVGID_22_)" d="M-5675.089-547.755c0,0,3.737-0.939,3.673,1.025c-0.064,1.964-0.427,6.961-1.559,8.798
				c-1.132,1.836-4.078,3.182-4.078,3.182s-0.982,0.555-1.495-0.47c-0.512-1.025-2.604-6.77-0.149-10.4
				C-5678.697-545.62-5677.736-547.263-5675.089-547.755z"/>
			<linearGradient id="SVGID_23_" gradientUnits="userSpaceOnUse" x1="-5678.752" y1="-542.2607" x2="-5672.3589" y2="-542.2607">
				<stop  offset="0" style="stop-color:#222222"/>
				<stop  offset="0.25" style="stop-color:#444444"/>
				<stop  offset="0.75" style="stop-color:#444444"/>
				<stop  offset="1" style="stop-color:#222222"/>
			</linearGradient>
			<circle opacity="0.1" fill="url(#SVGID_23_)" cx="-5675.556" cy="-542.26" r="3.197"/>
			<linearGradient id="SVGID_24_" gradientUnits="userSpaceOnUse" x1="-5678.1904" y1="-542.27" x2="-5672.9292" y2="-542.27">
				<stop  offset="0" style="stop-color:#EFEFEF"/>
				<stop  offset="0.25" style="stop-color:#FFFFFF"/>
				<stop  offset="0.75" style="stop-color:#FFFFFF"/>
				<stop  offset="1" style="stop-color:#EFEFEF"/>
			</linearGradient>
			<circle fill="url(#SVGID_24_)" cx="-5675.56" cy="-542.27" r="2.631"/>
			<linearGradient id="SVGID_25_" gradientUnits="userSpaceOnUse" x1="-5676.4414" y1="-542.1758" x2="-5674.6699" y2="-542.1758">
				<stop  offset="0" style="stop-color:#EFEFEF"/>
				<stop  offset="0.25" style="stop-color:#FFFFFF"/>
				<stop  offset="0.75" style="stop-color:#FFFFFF"/>
				<stop  offset="1" style="stop-color:#EFEFEF"/>
			</linearGradient>
			<circle fill="url(#SVGID_25_)" cx="-5675.556" cy="-542.176" r="0.886"/>
			<linearGradient id="SVGID_26_" gradientUnits="userSpaceOnUse" x1="-5671.1548" y1="-557.8008" x2="-5624.3306" y2="-557.8008">
				<stop  offset="0" style="stop-color:#222222"/>
				<stop  offset="0.25" style="stop-color:#444444"/>
				<stop  offset="0.75" style="stop-color:#444444"/>
				<stop  offset="1" style="stop-color:#222222"/>
			</linearGradient>
			<path fill="url(#SVGID_26_)" d="M-5624.424-560.866c-0.257-2.69-3.844-4.676-3.844-4.676c-3.928-8.477-19.474-8.136-19.474-8.136
				s-15.931-0.812-19.474,8.136c0,0-3.587,1.986-3.844,4.676c0,0-2.882,18.962,23.318,18.962S-5624.424-560.866-5624.424-560.866z"
				/>
			<path opacity="0.3" d="M-5628.141-556.831c0,0-2.626-5.83-3.267-8.007c-0.641-2.178-3.139-2.562-3.139-2.562
				c-4.741-0.705-13.197-0.961-13.197-0.961s-8.456,0.256-13.196,0.961c0,0-2.499,0.384-3.139,2.562
				c-0.641,2.177-3.267,8.007-3.267,8.007s-1.025,1.858,1.088,1.858h18.514h18.514
				C-5627.116-554.973-5628.141-556.831-5628.141-556.831z"/>
		</g>
	</g>
	<g>
		
			<radialGradient id="SVGID_27_" cx="-3166.1426" cy="9.6074" r="151.4131" gradientTransform="matrix(1 0 0 0.6082 0 3.7642)" gradientUnits="userSpaceOnUse">
			<stop  offset="0" style="stop-color:#FFFFFF;stop-opacity:0.75"/>
			<stop  offset="1" style="stop-color:#FFFFFF;stop-opacity:0"/>
		</radialGradient>
		<path fill="url(#SVGID_27_)" d="M-3019.543-99.94c-3.447-13.223-13.798-58.066-41.968-94.285c0,0,13.798,85.086-104.632,85.086
			c-118.432,0-104.631-85.086-104.631-85.086c-28.171,36.218-38.519,81.062-41.971,94.285c-3.449,13.224-13.222,58.64,0,132.804
			c13.224,74.163,146.602,71.865,146.602,71.865s133.379,2.298,146.6-71.865C-3006.319-41.3-3016.093-86.716-3019.543-99.94z"/>
		<g>
			<path d="M-3166.143,45.238c-87.643,0-120.202-35.086-120.202-35.086c3.744,54.722,120.202,52.58,120.202,52.58
				s116.459,2.142,120.204-52.58C-3045.938,10.152-3078.497,45.238-3166.143,45.238z"/>
			<linearGradient id="SVGID_28_" gradientUnits="userSpaceOnUse" x1="-3310.4238" y1="-86.2207" x2="-3021.8623" y2="-86.2207">
				<stop  offset="0" style="stop-color:#EFEFEF"/>
				<stop  offset="0.25" style="stop-color:#FFFFFF"/>
				<stop  offset="0.75" style="stop-color:#FFFFFF"/>
				<stop  offset="1" style="stop-color:#EFEFEF"/>
			</linearGradient>
			<path fill="url(#SVGID_28_)" d="M-3028.187-138.163c-3.245-12.443-12.983-54.64-39.493-88.725c0,0,12.984,80.069-98.463,80.069
				s-98.463-80.069-98.463-80.069c-26.51,34.084-36.247,76.282-39.495,88.725c-3.245,12.443-12.441,55.183,0,124.975
				c12.444,69.791,137.958,67.625,137.958,67.625s125.514,2.166,137.956-67.625C-3015.744-82.98-3024.939-125.719-3028.187-138.163z
				"/>
			<path opacity="0.12" d="M-3166.143,29.28c0,0-89.375,4.871-137.958-42.468c12.444,69.791,137.958,67.625,137.958,67.625
				s125.514,2.166,137.956-67.625C-3076.768,34.151-3166.143,29.28-3166.143,29.28z"/>
			<g>
				<path fill="#B0286C" d="M-3033.001-155.651l-0.03-0.37c9.761,106.031-133.111,101.716-133.111,101.716
					S-3015.607-44.999-3033.001-155.651z"/>
				<path fill="#B0286C" d="M-3299.252-156.021l-0.033,0.37c-17.393,110.652,133.143,101.346,133.143,101.346
					S-3309.011-49.99-3299.252-156.021z"/>
			</g>
			<path fill="#EB9C18" d="M-3166.143-3.179c0,0-118.68,0.265-143.602-56.27v5.336c24.922,56.533,143.602,56.269,143.602,56.269
				s118.682,0.265,143.603-56.269v-5.336C-3047.461-2.914-3166.143-3.179-3166.143-3.179z"/>
			<path fill="#B0286C" d="M-3166.143,6.83c0,0-114.625-2.892-141.845-46.486l1.356,10.12
				c29.463,41.647,140.488,44.446,140.488,44.446s111.026-2.799,140.488-44.446l1.356-10.12
				C-3051.518,3.938-3166.143,6.83-3166.143,6.83z"/>
			<path opacity="0.08" d="M-3061.729-110.3c-36.515-7.575-104.402-7.034-104.414-7.034s-67.899-0.541-104.413,7.034
				c0,0-14.202,2.93-15.149,7.034v1.102c0.947-4.101,15.149-7.033,15.149-7.033c36.511-7.572,104.392-7.032,104.413-7.032l0,0l0,0
				l0,0l0,0c0.023,0,67.903-0.541,104.414,7.032c0,0,14.202,2.932,15.148,7.033v-1.102
				C-3047.526-107.37-3061.729-110.3-3061.729-110.3z"/>
			<path opacity="0.2" fill="#FFFFFF" d="M-3166.143,53.296L-3166.143,53.296L-3166.143,53.296L-3166.143,53.296L-3166.143,53.296
				c-0.049,0.003-126.197,1.446-139.02-73.447v2.159c12.823,74.897,138.994,73.447,139.02,73.447s126.197,1.45,139.021-73.447
				v-2.159C-3039.943,54.742-3166.092,53.299-3166.143,53.296z"/>
			<linearGradient id="SVGID_29_" gradientUnits="userSpaceOnUse" x1="-3072.7412" y1="-142.6484" x2="-3033.2637" y2="-142.6484">
				<stop  offset="0" style="stop-color:#222222"/>
				<stop  offset="0.25" style="stop-color:#444444"/>
				<stop  offset="0.75" style="stop-color:#444444"/>
				<stop  offset="1" style="stop-color:#222222"/>
			</linearGradient>
			<path opacity="0.2" fill="url(#SVGID_29_)" d="M-3054.335-172.967c0,0-18.934-3.606-18.395,5.049
				c0.543,8.657,3.788,41.117,15.509,47.25c11.723,6.13,17.677,9.084,17.677,9.084s12.98-31.987,1.62-51.103
				C-3037.924-162.687-3041.553-169.81-3054.335-172.967z"/>
			<linearGradient id="SVGID_30_" gradientUnits="userSpaceOnUse" x1="-3069.3955" y1="-144.2246" x2="-3033.7051" y2="-144.2246">
				<stop  offset="0" style="stop-color:#EFEFEF"/>
				<stop  offset="0.25" style="stop-color:#FFFFFF"/>
				<stop  offset="0.75" style="stop-color:#FFFFFF"/>
				<stop  offset="1" style="stop-color:#EFEFEF"/>
			</linearGradient>
			<path fill="url(#SVGID_30_)" d="M-3053.885-171.524c0,0-15.777-3.967-15.508,4.329c0.27,8.295,1.803,29.394,6.582,37.15
				c4.78,7.754,17.225,13.436,17.225,13.436s4.146,2.342,6.311-1.984c2.162-4.33,11-28.584,0.631-43.913
				C-3038.645-162.507-3042.703-169.445-3053.885-171.524z"/>
			<linearGradient id="SVGID_31_" gradientUnits="userSpaceOnUse" x1="-3065.4092" y1="-148.3223" x2="-3038.4131" y2="-148.3223">
				<stop  offset="0" style="stop-color:#222222"/>
				<stop  offset="0.25" style="stop-color:#444444"/>
				<stop  offset="0.75" style="stop-color:#444444"/>
				<stop  offset="1" style="stop-color:#222222"/>
			</linearGradient>
			<circle opacity="0.1" fill="url(#SVGID_31_)" cx="-3051.911" cy="-148.321" r="13.498"/>
			<linearGradient id="SVGID_32_" gradientUnits="userSpaceOnUse" x1="-3063" y1="-148.3628" x2="-3040.7822" y2="-148.3628">
				<stop  offset="0" style="stop-color:#EFEFEF"/>
				<stop  offset="0.25" style="stop-color:#FFFFFF"/>
				<stop  offset="0.75" style="stop-color:#FFFFFF"/>
				<stop  offset="1" style="stop-color:#EFEFEF"/>
			</linearGradient>
			<circle fill="url(#SVGID_32_)" cx="-3051.891" cy="-148.363" r="11.109"/>
			<linearGradient id="SVGID_33_" gradientUnits="userSpaceOnUse" x1="-3302.2354" y1="-142.6484" x2="-3262.7568" y2="-142.6484">
				<stop  offset="0" style="stop-color:#222222"/>
				<stop  offset="0.25" style="stop-color:#444444"/>
				<stop  offset="0.75" style="stop-color:#444444"/>
				<stop  offset="1" style="stop-color:#222222"/>
			</linearGradient>
			<path opacity="0.2" fill="url(#SVGID_33_)" d="M-3281.164-172.967c0,0,18.936-3.606,18.396,5.049
				c-0.54,8.657-3.787,41.117-15.51,47.25c-11.721,6.13-17.675,9.084-17.675,9.084s-12.981-31.987-1.621-51.103
				C-3297.574-162.687-3293.945-169.81-3281.164-172.967z"/>
			<linearGradient id="SVGID_34_" gradientUnits="userSpaceOnUse" x1="-3301.793" y1="-144.2246" x2="-3266.1016" y2="-144.2246">
				<stop  offset="0" style="stop-color:#EFEFEF"/>
				<stop  offset="0.25" style="stop-color:#FFFFFF"/>
				<stop  offset="0.75" style="stop-color:#FFFFFF"/>
				<stop  offset="1" style="stop-color:#EFEFEF"/>
			</linearGradient>
			<path fill="url(#SVGID_34_)" d="M-3281.615-171.524c0,0,15.78-3.967,15.51,4.329c-0.27,8.295-1.803,29.394-6.582,37.15
				c-4.779,7.754-17.223,13.436-17.223,13.436s-4.146,2.342-6.312-1.984c-2.164-4.33-10.998-28.584-0.631-43.913
				C-3296.854-162.507-3292.796-169.445-3281.615-171.524z"/>
			<linearGradient id="SVGID_35_" gradientUnits="userSpaceOnUse" x1="-3297.084" y1="-148.3223" x2="-3270.0879" y2="-148.3223">
				<stop  offset="0" style="stop-color:#222222"/>
				<stop  offset="0.25" style="stop-color:#444444"/>
				<stop  offset="0.75" style="stop-color:#444444"/>
				<stop  offset="1" style="stop-color:#222222"/>
			</linearGradient>
			<circle opacity="0.1" fill="url(#SVGID_35_)" cx="-3283.586" cy="-148.321" r="13.498"/>
			<linearGradient id="SVGID_36_" gradientUnits="userSpaceOnUse" x1="-3294.7148" y1="-148.3628" x2="-3272.4961" y2="-148.3628">
				<stop  offset="0" style="stop-color:#EFEFEF"/>
				<stop  offset="0.25" style="stop-color:#FFFFFF"/>
				<stop  offset="0.75" style="stop-color:#FFFFFF"/>
				<stop  offset="1" style="stop-color:#EFEFEF"/>
			</linearGradient>
			<circle fill="url(#SVGID_36_)" cx="-3283.605" cy="-148.363" r="11.109"/>
			<path fill="#444444" d="M-3067.68-226.887c-1.082-11.36-16.23-19.747-16.23-19.747c-16.59-35.796-82.232-34.354-82.232-34.354
				s-67.271-3.427-82.232,34.354c0,0-15.148,8.386-16.23,19.747c0,0-12.171,80.069,98.463,80.069
				C-3055.508-146.818-3067.68-226.887-3067.68-226.887z"/>
			<path opacity="0.3" d="M-3083.369-209.846c0,0-11.09-24.615-13.794-33.813c-2.707-9.197-13.257-10.819-13.257-10.819
				c-20.016-2.976-55.723-4.058-55.723-4.058s-35.707,1.083-55.724,4.058c0,0-10.55,1.623-13.255,10.819
				c-2.706,9.198-13.795,33.813-13.795,33.813s-4.33,7.845,4.598,7.845h78.176h78.175
				C-3079.041-202.001-3083.369-209.846-3083.369-209.846z"/>
		</g>
	</g>
	<g>
		
			<radialGradient id="SVGID_37_" cx="-3166.1426" cy="-803.3525" r="151.4133" gradientTransform="matrix(1 0 0 0.6082 0 -314.756)" gradientUnits="userSpaceOnUse">
			<stop  offset="0" style="stop-color:#FFFFFF;stop-opacity:0.75"/>
			<stop  offset="1" style="stop-color:#FFFFFF;stop-opacity:0"/>
		</radialGradient>
		<path fill="url(#SVGID_37_)" d="M-3019.543-912.899c-3.447-13.223-13.798-58.066-41.968-94.285c0,0,13.798,85.086-104.632,85.086
			c-118.432,0-104.631-85.086-104.631-85.086c-28.171,36.218-38.519,81.062-41.971,94.285c-3.449,13.224-13.222,58.64,0,132.804
			c13.224,74.163,146.602,71.865,146.602,71.865s133.379,2.298,146.6-71.865C-3006.319-854.259-3016.093-899.676-3019.543-912.899z"
			/>
		<path d="M-3166.143-767.721c-87.643,0-120.202-35.086-120.202-35.086c3.744,54.722,120.202,52.58,120.202,52.58
			s116.459,2.142,120.204-52.58C-3045.938-802.807-3078.497-767.721-3166.143-767.721z"/>
		<path fill="#FFFFFF" stroke="#DDDDDD" stroke-miterlimit="10" d="M-3028.187-951.122c-3.245-12.443-12.983-54.64-39.493-88.725
			c0,0,12.984,80.069-98.463,80.069s-98.463-80.069-98.463-80.069c-26.51,34.084-36.247,76.282-39.495,88.725
			c-3.245,12.443-12.441,55.183,0,124.975c12.444,69.791,137.958,67.625,137.958,67.625s125.514,2.166,137.956-67.625
			C-3015.744-895.939-3024.939-938.679-3028.187-951.122z"/>
		<path opacity="0.12" d="M-3166.143-783.679c0,0-89.375,4.871-137.958-42.468c12.444,69.791,137.958,67.625,137.958,67.625
			s125.514,2.166,137.956-67.625C-3076.768-778.808-3166.143-783.679-3166.143-783.679z"/>
		<g>
			<path fill="#B0286C" stroke="#DDDDDD" stroke-miterlimit="10" d="M-3033.001-968.611l-0.03-0.37
				c9.761,106.031-133.111,101.716-133.111,101.716S-3015.607-857.958-3033.001-968.611z"/>
			<path fill="#B0286C" stroke="#DDDDDD" stroke-miterlimit="10" d="M-3299.252-968.981l-0.033,0.37
				c-17.393,110.652,133.143,101.346,133.143,101.346S-3309.011-862.95-3299.252-968.981z"/>
		</g>
		<path fill="#EB9C18" stroke="#DDDDDD" stroke-miterlimit="10" d="M-3166.143-816.138c0,0-118.68,0.265-143.602-56.27v5.336
			c24.922,56.533,143.602,56.269,143.602,56.269s118.682,0.265,143.603-56.269v-5.336
			C-3047.461-815.874-3166.143-816.138-3166.143-816.138z"/>
		<path fill="#B0286C" stroke="#DDDDDD" stroke-miterlimit="10" d="M-3166.143-806.129c0,0-114.625-2.892-141.845-46.486
			l1.356,10.12c29.463,41.647,140.488,44.446,140.488,44.446s111.026-2.799,140.488-44.446l1.356-10.12
			C-3051.518-809.021-3166.143-806.129-3166.143-806.129z"/>
		<path opacity="0.08" d="M-3061.729-923.26c-36.515-7.575-104.402-7.034-104.414-7.034s-67.899-0.541-104.413,7.034
			c0,0-14.202,2.93-15.149,7.034v1.102c0.947-4.101,15.149-7.033,15.149-7.033c36.511-7.572,104.392-7.032,104.413-7.032l0,0l0,0
			l0,0l0,0c0.023,0,67.903-0.541,104.414,7.032c0,0,14.202,2.932,15.148,7.033v-1.102
			C-3047.526-920.33-3061.729-923.26-3061.729-923.26z"/>
		<path opacity="0.2" fill="#FFFFFF" d="M-3166.143-759.664L-3166.143-759.664L-3166.143-759.664L-3166.143-759.664
			L-3166.143-759.664c-0.049,0.003-126.197,1.446-139.02-73.447v2.159c12.823,74.897,138.994,73.447,139.02,73.447
			s126.197,1.45,139.021-73.447v-2.159C-3039.943-758.217-3166.092-759.661-3166.143-759.664z"/>
		<path fill="none" stroke="#DDDDDD" stroke-miterlimit="10" d="M-3054.335-985.927c0,0-18.934-3.606-18.395,5.049
			c0.543,8.657,3.788,41.117,15.509,47.25c11.723,6.13,17.677,9.084,17.677,9.084s12.98-31.987,1.62-51.103
			C-3037.924-975.646-3041.553-982.77-3054.335-985.927z"/>
		<path fill="#FFFFFF" d="M-3053.885-984.484c0,0-15.777-3.967-15.508,4.329c0.27,8.295,1.803,29.394,6.582,37.15
			c4.78,7.754,17.225,13.436,17.225,13.436s4.146,2.342,6.311-1.984c2.162-4.33,11-28.584,0.631-43.913
			C-3038.645-975.467-3042.703-982.405-3053.885-984.484z"/>
		<circle fill="#FFFFFF" stroke="#DDDDDD" stroke-miterlimit="10" cx="-3051.911" cy="-961.281" r="13.498"/>
		<path fill="none" stroke="#DDDDDD" stroke-miterlimit="10" d="M-3278.164-985.927c0,0,18.936-3.606,18.396,5.049
			c-0.54,8.657-3.787,41.117-15.51,47.25c-11.721,6.13-17.675,9.084-17.675,9.084s-12.981-31.987-1.621-51.103
			C-3294.574-975.646-3290.945-982.77-3278.164-985.927z"/>
		<path fill="#FFFFFF" d="M-3278.615-984.484c0,0,15.78-3.967,15.51,4.329c-0.27,8.295-1.803,29.394-6.582,37.15
			c-4.779,7.754-17.223,13.436-17.223,13.436s-4.146,2.342-6.312-1.984c-2.164-4.33-10.998-28.584-0.631-43.913
			C-3293.854-975.467-3289.796-982.405-3278.615-984.484z"/>
		<circle fill="#FFFFFF" stroke="#DDDDDD" stroke-miterlimit="10" cx="-3280.586" cy="-961.281" r="13.498"/>
		<path stroke="#DDDDDD" stroke-miterlimit="10" d="M-3067.68-1039.847c-1.082-11.36-16.23-19.747-16.23-19.747
			c-16.59-35.796-82.232-34.354-82.232-34.354s-67.271-3.427-82.232,34.354c0,0-15.148,8.386-16.23,19.747
			c0,0-12.171,80.069,98.463,80.069C-3055.508-959.778-3067.68-1039.847-3067.68-1039.847z"/>
		<path stroke="#DDDDDD" stroke-miterlimit="10" d="M-3083.369-1022.805c0,0-11.09-24.615-13.794-33.813
			c-2.707-9.197-13.257-10.819-13.257-10.819c-20.016-2.976-55.723-4.058-55.723-4.058s-35.707,1.083-55.724,4.058
			c0,0-10.55,1.623-13.255,10.819c-2.706,9.198-13.795,33.813-13.795,33.813s-4.33,7.845,4.598,7.845h78.176h78.175
			C-3079.041-1014.96-3083.369-1022.805-3083.369-1022.805z"/>
	</g>
	<rect x="-2733.394" y="-158.917" fill="#FFFFFF" width="495.072" height="70.555"/>
	<rect x="-2733.394" y="-77.443" fill="#FFFFFF" width="495.072" height="70.555"/>
	<rect x="-2733.394" y="4.571" fill="#FFFFFF" width="495.072" height="70.555"/>
	<g>
		<radialGradient id="SVGID_38_" cx="-1482.9746" cy="-44.7437" r="151.4133" gradientUnits="userSpaceOnUse">
			<stop  offset="0.7546" style="stop-color:#C4C4C4;stop-opacity:0.75"/>
			<stop  offset="1" style="stop-color:#FFFFFF;stop-opacity:0"/>
		</radialGradient>
		<path fill="url(#SVGID_38_)" d="M-1336.374-99.94c-3.447-13.223-13.798-58.066-41.968-94.285c0,0,13.798,85.086-104.632,85.086
			c-118.432,0-104.631-85.086-104.631-85.086c-28.171,36.218-38.519,81.062-41.971,94.285c-3.449,13.224-13.222,58.64,0,132.804
			c13.224,74.163,146.602,71.865,146.602,71.865s133.379,2.298,146.6-71.865C-1323.15-41.3-1332.924-86.716-1336.374-99.94z"/>
		<g>
			<path d="M-1482.974,45.238c-87.643,0-120.202-35.086-120.202-35.086c3.744,54.722,120.202,52.58,120.202,52.58
				s116.459,2.142,120.204-52.58C-1362.77,10.152-1395.328,45.238-1482.974,45.238z"/>
			<linearGradient id="SVGID_39_" gradientUnits="userSpaceOnUse" x1="-1627.2549" y1="-86.2207" x2="-1338.6934" y2="-86.2207">
				<stop  offset="0" style="stop-color:#EFEFEF"/>
				<stop  offset="0.25" style="stop-color:#FFFFFF"/>
				<stop  offset="0.75" style="stop-color:#FFFFFF"/>
				<stop  offset="1" style="stop-color:#EFEFEF"/>
			</linearGradient>
			<path fill="url(#SVGID_39_)" d="M-1345.018-138.163c-3.245-12.443-12.983-54.64-39.493-88.725c0,0,12.984,80.069-98.463,80.069
				s-98.463-80.069-98.463-80.069c-26.51,34.084-36.247,76.282-39.495,88.725c-3.245,12.443-12.441,55.183,0,124.975
				c12.444,69.791,137.958,67.625,137.958,67.625s125.514,2.166,137.956-67.625C-1332.575-82.98-1341.771-125.719-1345.018-138.163z
				"/>
			<path opacity="0.12" d="M-1482.974,29.28c0,0-89.375,4.871-137.958-42.468c12.444,69.791,137.958,67.625,137.958,67.625
				s125.514,2.166,137.956-67.625C-1393.599,34.151-1482.974,29.28-1482.974,29.28z"/>
			<g>
				<path fill="#1786DC" d="M-1349.832-155.651l-0.03-0.37c9.761,106.031-133.111,101.716-133.111,101.716
					S-1332.438-44.999-1349.832-155.651z"/>
				<path fill="#1786DC" d="M-1616.083-156.021l-0.033,0.37c-17.393,110.652,133.143,101.346,133.143,101.346
					S-1625.842-49.99-1616.083-156.021z"/>
			</g>
			<path fill="#AFAFAF" d="M-1482.974-3.179c0,0-118.68,0.265-143.602-56.27v5.336c24.922,56.533,143.602,56.269,143.602,56.269
				s118.682,0.265,143.603-56.269v-5.336C-1364.292-2.914-1482.974-3.179-1482.974-3.179z"/>
			<path fill="#1786DC" d="M-1482.974,6.83c0,0-114.625-2.892-141.845-46.486l1.356,10.12
				c29.463,41.647,140.488,44.446,140.488,44.446s111.026-2.799,140.488-44.446l1.356-10.12
				C-1368.349,3.938-1482.974,6.83-1482.974,6.83z"/>
			<path opacity="0.08" d="M-1378.56-110.3c-36.515-7.575-104.402-7.034-104.414-7.034s-67.899-0.541-104.413,7.034
				c0,0-14.202,2.93-15.149,7.034v1.102c0.947-4.101,15.149-7.033,15.149-7.033c36.511-7.572,104.392-7.032,104.413-7.032l0,0l0,0
				l0,0l0,0c0.022,0,67.903-0.541,104.414,7.032c0,0,14.202,2.932,15.148,7.033v-1.102
				C-1364.357-107.37-1378.56-110.3-1378.56-110.3z"/>
			<path opacity="0.2" fill="#FFFFFF" d="M-1482.974,53.296L-1482.974,53.296L-1482.974,53.296L-1482.974,53.296L-1482.974,53.296
				c-0.049,0.003-126.197,1.446-139.02-73.447v2.159c12.823,74.897,138.993,73.447,139.02,73.447
				c0.025,0,126.197,1.45,139.021-73.447v-2.159C-1356.774,54.742-1482.923,53.299-1482.974,53.296z"/>
			<linearGradient id="SVGID_40_" gradientUnits="userSpaceOnUse" x1="-1389.5723" y1="-142.6484" x2="-1350.0938" y2="-142.6484">
				<stop  offset="0" style="stop-color:#222222"/>
				<stop  offset="0.25" style="stop-color:#444444"/>
				<stop  offset="0.75" style="stop-color:#444444"/>
				<stop  offset="1" style="stop-color:#222222"/>
			</linearGradient>
			<path opacity="0.2" fill="url(#SVGID_40_)" d="M-1371.166-172.967c0,0-18.934-3.606-18.395,5.049
				c0.543,8.657,3.788,41.117,15.509,47.25c11.723,6.13,17.677,9.084,17.677,9.084s12.98-31.987,1.62-51.103
				C-1354.755-162.687-1358.385-169.81-1371.166-172.967z"/>
			<linearGradient id="SVGID_41_" gradientUnits="userSpaceOnUse" x1="-1386.2275" y1="-144.2246" x2="-1350.5361" y2="-144.2246">
				<stop  offset="0" style="stop-color:#EFEFEF"/>
				<stop  offset="0.25" style="stop-color:#FFFFFF"/>
				<stop  offset="0.75" style="stop-color:#FFFFFF"/>
				<stop  offset="1" style="stop-color:#EFEFEF"/>
			</linearGradient>
			<path fill="url(#SVGID_41_)" d="M-1370.717-171.524c0,0-15.776-3.967-15.507,4.329c0.27,8.295,1.803,29.394,6.582,37.15
				c4.78,7.754,17.225,13.436,17.225,13.436s4.146,2.342,6.311-1.984c2.162-4.33,11-28.584,0.631-43.913
				C-1355.476-162.507-1359.535-169.445-1370.717-171.524z"/>
			<linearGradient id="SVGID_42_" gradientUnits="userSpaceOnUse" x1="-1382.2402" y1="-148.3223" x2="-1355.2441" y2="-148.3223">
				<stop  offset="0" style="stop-color:#222222"/>
				<stop  offset="0.25" style="stop-color:#444444"/>
				<stop  offset="0.75" style="stop-color:#444444"/>
				<stop  offset="1" style="stop-color:#222222"/>
			</linearGradient>
			<circle opacity="0.1" fill="url(#SVGID_42_)" cx="-1368.742" cy="-148.321" r="13.498"/>
			<linearGradient id="SVGID_43_" gradientUnits="userSpaceOnUse" x1="-1379.832" y1="-148.3628" x2="-1357.6133" y2="-148.3628">
				<stop  offset="0" style="stop-color:#EFEFEF"/>
				<stop  offset="0.25" style="stop-color:#FFFFFF"/>
				<stop  offset="0.75" style="stop-color:#FFFFFF"/>
				<stop  offset="1" style="stop-color:#EFEFEF"/>
			</linearGradient>
			<circle fill="url(#SVGID_43_)" cx="-1368.723" cy="-148.363" r="11.109"/>
			<linearGradient id="SVGID_44_" gradientUnits="userSpaceOnUse" x1="-1619.0654" y1="-142.6484" x2="-1579.5879" y2="-142.6484">
				<stop  offset="0" style="stop-color:#222222"/>
				<stop  offset="0.25" style="stop-color:#444444"/>
				<stop  offset="0.75" style="stop-color:#444444"/>
				<stop  offset="1" style="stop-color:#222222"/>
			</linearGradient>
			<path opacity="0.2" fill="url(#SVGID_44_)" d="M-1597.995-172.967c0,0,18.936-3.606,18.396,5.049
				c-0.54,8.657-3.787,41.117-15.51,47.25c-11.721,6.13-17.675,9.084-17.675,9.084s-12.981-31.987-1.621-51.103
				C-1614.405-162.687-1610.776-169.81-1597.995-172.967z"/>
			<linearGradient id="SVGID_45_" gradientUnits="userSpaceOnUse" x1="-1618.624" y1="-144.2246" x2="-1582.9326" y2="-144.2246">
				<stop  offset="0" style="stop-color:#EFEFEF"/>
				<stop  offset="0.25" style="stop-color:#FFFFFF"/>
				<stop  offset="0.75" style="stop-color:#FFFFFF"/>
				<stop  offset="1" style="stop-color:#EFEFEF"/>
			</linearGradient>
			<path fill="url(#SVGID_45_)" d="M-1598.446-171.524c0,0,15.78-3.967,15.51,4.329c-0.27,8.295-1.803,29.394-6.582,37.15
				c-4.779,7.754-17.223,13.436-17.223,13.436s-4.146,2.342-6.312-1.984c-2.164-4.33-10.998-28.584-0.631-43.913
				C-1613.685-162.507-1609.627-169.445-1598.446-171.524z"/>
			<linearGradient id="SVGID_46_" gradientUnits="userSpaceOnUse" x1="-1613.915" y1="-148.3223" x2="-1586.9189" y2="-148.3223">
				<stop  offset="0" style="stop-color:#222222"/>
				<stop  offset="0.25" style="stop-color:#444444"/>
				<stop  offset="0.75" style="stop-color:#444444"/>
				<stop  offset="1" style="stop-color:#222222"/>
			</linearGradient>
			<circle opacity="0.1" fill="url(#SVGID_46_)" cx="-1600.417" cy="-148.321" r="13.498"/>
			<linearGradient id="SVGID_47_" gradientUnits="userSpaceOnUse" x1="-1611.5459" y1="-148.3628" x2="-1589.3271" y2="-148.3628">
				<stop  offset="0" style="stop-color:#EFEFEF"/>
				<stop  offset="0.25" style="stop-color:#FFFFFF"/>
				<stop  offset="0.75" style="stop-color:#FFFFFF"/>
				<stop  offset="1" style="stop-color:#EFEFEF"/>
			</linearGradient>
			<circle fill="url(#SVGID_47_)" cx="-1600.437" cy="-148.363" r="11.109"/>
			<path fill="#444444" d="M-1384.511-226.887c-1.082-11.36-16.23-19.747-16.23-19.747c-16.591-35.796-82.232-34.354-82.232-34.354
				s-67.271-3.427-82.232,34.354c0,0-15.148,8.386-16.23,19.747c0,0-12.171,80.069,98.463,80.069
				C-1372.339-146.818-1384.511-226.887-1384.511-226.887z"/>
			<path opacity="0.3" d="M-1400.2-209.846c0,0-11.09-24.615-13.794-33.813c-2.707-9.197-13.258-10.819-13.258-10.819
				c-20.015-2.976-55.722-4.058-55.722-4.058s-35.707,1.083-55.724,4.058c0,0-10.551,1.623-13.255,10.819
				c-2.706,9.198-13.796,33.813-13.796,33.813s-4.329,7.845,4.598,7.845h78.177h78.175
				C-1395.872-202.001-1400.2-209.846-1400.2-209.846z"/>
		</g>
	</g>
	<rect x="-1050.225" y="-158.917" fill="#F4F4F4" width="495.072" height="70.555"/>
	<rect x="-1050.225" y="-77.443" fill="#F4F4F4" width="495.072" height="70.555"/>
	<rect x="-1050.225" y="4.571" fill="#F4F4F4" width="495.072" height="70.555"/>
	<rect x="-1050.225" y="91.566" fill="#1786DC" width="271.33" height="81.919"/>
	<rect x="791.091" y="-158.917" fill="#F4F4F4" width="495.072" height="70.555"/>
	<rect x="791.091" y="-77.443" fill="#F4F4F4" width="495.072" height="70.555"/>
	<rect x="791.091" y="4.571" fill="#F4F4F4" width="495.072" height="70.555"/>
	<rect x="791.091" y="91.566" fill="#1786DC" width="271.329" height="81.919"/>
</g>
<g id="Capa_4">
	
		<text transform="matrix(1 0 0 1 -5350.0737 209.0586)" fill="#FFFFFF" font-family="'Lato-Light'" font-size="64.234" letter-spacing="-1">Tweetren</text>
	<text transform="matrix(1 0 0 1 -4561.9678 -529.6455)" fill="#FFFFFF" font-family="'Lato-Light'" font-size="36.1601">Tweetren</text>
	<g>
		<text transform="matrix(1 0 0 1 -4755.4844 -421.5762)"><tspan x="0" y="0" fill="#FFFFFF" font-family="'Lato-Regular'" font-size="31">colmenar</tspan><tspan x="0" y="29" fill="#FFFFFF" font-family="'Lato-Regular'" font-size="31">viejo</tspan></text>
	</g>
	<g>
		<text transform="matrix(1 0 0 1 -4755.4854 -247.2275)" fill="#777777" font-family="'Lato-Bold'" font-size="14">colmenar viejo</text>
	</g>
	<g>
		<text transform="matrix(1 0 0 1 -4498.416 -247.2275)" fill="#777777" font-family="'Lato-Bold'" font-size="14">MINUTOS</text>
	</g>
	<g>
		<text transform="matrix(1 0 0 1 -4264.4229 -247.2275)" fill="#777777" font-family="'Lato-Bold'" font-size="14">PRÍNCIPE PÍO</text>
	</g>
	<g>
		<text transform="matrix(1 0 0 1 -4755.4844 -454.8281)" fill="#FFFFFF" font-family="'Lato-Bold'" font-size="16">ORIGEN</text>
	</g>
	<g>
		<text transform="matrix(1 0 0 1 -4244.4707 -454.8281)" fill="#FFFFFF" font-family="'Lato-Bold'" font-size="16">DESTINO</text>
	</g>
	<text transform="matrix(1 0 0 1 -4755.4854 -268.9839)" fill="#4B7AC9" font-family="'Lato-Bold'" font-size="30.8534">13:55</text>
	
		<text transform="matrix(1 0 0 1 -4490.7129 -271.2627)" fill="#4B7AC9" font-family="'Lato-Light'" font-size="84.3684" letter-spacing="-2">8</text>
	<g>
		<text transform="matrix(1 0 0 1 -4755.4854 -317.9243)" fill="#444444" font-family="'Lato-Bold'" font-size="17.2848">LÍNEA c4b</text>
	</g>
	<text transform="matrix(1 0 0 1 -4329.4619 -317.9243)" fill="#444444" font-family="'Lato-Bold'" font-size="17.2848">con trasbordos</text>
	<g>
		<text transform="matrix(1 0 0 1 -4311.4951 -420.4463)"><tspan x="0" y="0" fill="#FFFFFF" font-family="'Lato-Regular'" font-size="31">príncipe</tspan><tspan x="82.49" y="29" fill="#FFFFFF" font-family="'Lato-Regular'" font-size="31">pío</tspan></text>
	</g>
	<text transform="matrix(1 0 0 1 -4254.0322 -268.9839)" fill="#4B7AC9" font-family="'Lato-Bold'" font-size="30.8534">15:00</text>
	<g>
		<path fill="none" stroke="#FFFFFF" stroke-miterlimit="10" d="M-4726.985-520.865c-11.837,0-16.234-4.739-16.234-4.739
			c0.505,7.391,16.234,7.102,16.234,7.102s15.729,0.29,16.234-7.102C-4710.751-525.604-4715.148-520.865-4726.985-520.865z"/>
		<path fill="none" stroke="#FFFFFF" stroke-miterlimit="10" d="M-4708.353-545.635c-0.438-1.681-1.755-7.38-5.334-11.983
			c0,0,1.754,10.814-13.299,10.814s-13.299-10.814-13.299-10.814c-3.579,4.603-4.896,10.302-5.334,11.983
			c-0.438,1.68-1.681,7.453,0,16.879s18.633,9.133,18.633,9.133s16.953,0.292,18.633-9.133
			C-4706.672-538.182-4707.915-543.955-4708.353-545.635z"/>
		<path opacity="0.08" fill="none" stroke="#FFFFFF" stroke-miterlimit="10" d="M-4712.234-550.541c0,0-2.757-0.525-2.679,0.735
			c0.079,1.26,0.552,5.985,2.258,6.877c1.706,0.893,2.769,0.883,2.769,0.883s1.694-4.217,0.041-7
			C-4709.846-549.044-4710.374-550.081-4712.234-550.541z"/>
		<path opacity="0.08" fill="none" stroke="#FFFFFF" stroke-miterlimit="10" d="M-4742.17-550.541c0,0,2.756-0.525,2.679,0.735
			c-0.079,1.26-0.552,5.985-2.258,6.877c-1.706,0.893-2.769,0.883-2.769,0.883s-1.694-4.217-0.041-7
			C-4744.559-549.044-4744.03-550.081-4742.17-550.541z"/>
		<path opacity="0.12" fill="none" stroke="#FFFFFF" stroke-miterlimit="10" d="M-4726.985-523.02c0,0-12.07,0.658-18.633-5.736
			c1.681,9.426,18.633,9.133,18.633,9.133s16.953,0.292,18.633-9.133C-4714.915-522.362-4726.985-523.02-4726.985-523.02z"/>
		<g>
			<path fill="none" stroke="#FFFFFF" stroke-miterlimit="10" d="M-4709.003-547.997l-0.005-0.05
				c1.318,14.321-17.978,13.738-17.978,13.738S-4706.654-533.052-4709.003-547.997z"/>
			<path fill="none" stroke="#FFFFFF" stroke-miterlimit="10" d="M-4744.963-548.047l-0.005,0.05
				c-2.349,14.945,17.982,13.688,17.982,13.688S-4746.281-533.726-4744.963-548.047z"/>
		</g>
		<path fill="none" stroke="#FFFFFF" stroke-miterlimit="10" d="M-4726.985-527.404c0,0-16.029,0.036-19.396-7.6v0.72
			c3.366,7.636,19.396,7.6,19.396,7.6s16.029,0.036,19.396-7.6v-0.72C-4710.956-527.368-4726.985-527.404-4726.985-527.404z"/>
		<path fill="none" stroke="#FFFFFF" stroke-miterlimit="10" d="M-4726.985-526.052c0,0-15.481-0.391-19.157-6.278l0.183,1.367
			c3.979,5.625,18.975,6.003,18.975,6.003s14.995-0.378,18.975-6.003l0.183-1.367
			C-4711.504-526.443-4726.985-526.052-4726.985-526.052z"/>
		<path opacity="0.08" fill="none" stroke="#FFFFFF" stroke-miterlimit="10" d="M-4712.883-541.872
			c-4.932-1.023-14.101-0.95-14.103-0.95s-9.171-0.073-14.103,0.95c0,0-1.918,0.396-2.046,0.95v0.149
			c0.128-0.554,2.046-0.95,2.046-0.95c4.932-1.023,14.1-0.95,14.103-0.95l0,0l0,0l0,0l0,0c0.003,0,9.171-0.073,14.103,0.95
			c0,0,1.918,0.396,2.046,0.95v-0.149C-4710.965-541.476-4712.883-541.872-4712.883-541.872z"/>
		<path opacity="0.08" fill="none" stroke="#FFFFFF" stroke-miterlimit="10" d="M-4726.985-519.893L-4726.985-519.893
			L-4726.985-519.893L-4726.985-519.893L-4726.985-519.893c-0.006,0-15.82,0.181-17.427-9.207v0.271
			c1.607,9.389,17.424,9.207,17.427,9.207s15.819,0.182,17.427-9.207v-0.271C-4711.165-519.712-4726.979-519.893-4726.985-519.893z"
			/>
		<path opacity="0.2" fill="none" stroke="#FFFFFF" stroke-miterlimit="10" d="M-4711.885-550.335c0,0-2.558-0.487-2.484,0.682
			c0.074,1.169,0.512,5.554,2.095,6.381c1.584,0.828,2.388,1.228,2.388,1.228s1.753-4.321,0.219-6.902
			C-4709.668-548.947-4710.158-549.909-4711.885-550.335z"/>
		<path fill="none" stroke="#FFFFFF" stroke-miterlimit="10" d="M-4711.823-550.141c0,0-2.131-0.536-2.095,0.585
			c0.036,1.12,0.244,3.97,0.889,5.017c0.646,1.048,2.327,1.815,2.327,1.815s0.559,0.316,0.852-0.268
			c0.292-0.584,1.486-3.86,0.085-5.931C-4709.766-548.923-4710.313-549.86-4711.823-550.141z"/>
		<circle opacity="0.1" fill="none" stroke="#FFFFFF" stroke-miterlimit="10" cx="-4711.557" cy="-547.007" r="1.823"/>
		<circle fill="none" stroke="#FFFFFF" stroke-miterlimit="10" cx="-4711.555" cy="-547.013" r="1.5"/>
		<circle fill="none" stroke="#FFFFFF" stroke-miterlimit="10" cx="-4711.557" cy="-546.959" r="0.505"/>
		<path opacity="0.2" fill="none" stroke="#FFFFFF" stroke-miterlimit="10" d="M-4742.521-550.335c0,0,2.558-0.487,2.485,0.682
			c-0.074,1.169-0.512,5.554-2.095,6.381c-1.584,0.828-2.388,1.228-2.388,1.228s-1.754-4.321-0.219-6.902
			C-4744.736-548.947-4744.247-549.909-4742.521-550.335z"/>
		<path fill="none" stroke="#FFFFFF" stroke-miterlimit="10" d="M-4742.581-550.141c0,0,2.131-0.536,2.095,0.585
			c-0.036,1.12-0.244,3.97-0.89,5.017c-0.646,1.048-2.326,1.815-2.326,1.815s-0.56,0.316-0.852-0.268s-1.486-3.86-0.085-5.931
			C-4744.639-548.923-4744.092-549.86-4742.581-550.141z"/>
		<circle opacity="0.1" fill="none" stroke="#FFFFFF" stroke-miterlimit="10" cx="-4742.847" cy="-547.007" r="1.823"/>
		<circle fill="none" stroke="#FFFFFF" stroke-miterlimit="10" cx="-4742.85" cy="-547.013" r="1.5"/>
		<circle fill="none" stroke="#FFFFFF" stroke-miterlimit="10" cx="-4742.847" cy="-546.959" r="0.505"/>
		<path fill="none" stroke="#FFFFFF" stroke-miterlimit="10" d="M-4713.687-557.618c-0.146-1.535-2.191-2.667-2.191-2.667
			c-2.242-4.834-11.107-4.64-11.107-4.64s-9.086-0.462-11.107,4.64c0,0-2.045,1.132-2.191,2.667c0,0-1.644,10.814,13.299,10.814
			S-4713.687-557.618-4713.687-557.618z"/>
		<path opacity="0.7" fill="none" stroke="#FFFFFF" stroke-miterlimit="10" d="M-4715.806-555.316c0,0-1.498-3.325-1.863-4.567
			c-0.365-1.242-1.79-1.461-1.79-1.461c-2.703-0.402-7.526-0.548-7.526-0.548s-4.823,0.146-7.526,0.548c0,0-1.425,0.219-1.79,1.461
			c-0.365,1.242-1.863,4.567-1.863,4.567s-0.584,1.06,0.621,1.06h10.559h10.559
			C-4715.222-554.257-4715.806-555.316-4715.806-555.316z"/>
		<path fill="none" stroke="#FFFFFF" stroke-miterlimit="10" d="M-4716.417-555.65c0,0-1.25-2.772-1.555-3.809
			c-0.305-1.036-1.493-1.219-1.493-1.219c-2.255-0.335-7.521-0.457-7.521-0.457s-5.266,0.122-7.521,0.457
			c0,0-1.188,0.183-1.492,1.219c-0.306,1.037-1.556,3.809-1.556,3.809s-0.487,0.884,0.519,0.884h10.05h10.05
			C-4715.93-554.766-4716.417-555.65-4716.417-555.65z"/>
	</g>
	<g>
		<g>
			<path fill="#FFFFFF" d="M-4193.392-525.912c-0.196,0.196-0.473,0.323-0.776,0.322c-0.604,0-1.09-0.485-1.092-1.093l-0.005-14.032
				l-14.038-0.01c-0.6-0.005-1.089-0.494-1.094-1.094c-0.001-0.604,0.493-1.099,1.099-1.099l15.126,0.011
				c0.604,0,1.094,0.489,1.095,1.094l0.008,15.124C-4193.068-526.386-4193.194-526.109-4193.392-525.912L-4193.392-525.912z
				 M-4193.392-525.912"/>
		</g>
		<g>
			<path fill="#FFFFFF" d="M-4195.14-557.524c0.197-0.196,0.475-0.322,0.775-0.322c0.605,0,1.092,0.486,1.094,1.094l0.005,14.031
				l14.038,0.011c0.6,0.005,1.088,0.493,1.093,1.093c0,0.604-0.493,1.098-1.099,1.098l-15.125-0.01
				c-0.604,0-1.093-0.488-1.095-1.094l-0.009-15.125C-4195.462-557.05-4195.336-557.327-4195.14-557.524L-4195.14-557.524z
				 M-4195.14-557.524"/>
		</g>
	</g>
	<g>
		<g>
			<g>
				<path fill="#4B7AC9" d="M-3907.739-470.41c-0.277,0-0.562-0.107-0.775-0.32c-0.428-0.428-0.428-1.115,0-1.547l9.918-9.925
					l-9.918-9.934c-0.422-0.428-0.422-1.118,0-1.546c0.428-0.428,1.125-0.428,1.553,0l10.688,10.702
					c0.428,0.428,0.428,1.118,0.002,1.548l-10.689,10.701C-3907.175-470.517-3907.46-470.41-3907.739-470.41L-3907.739-470.41z
					 M-3907.739-470.41"/>
			</g>
		</g>
		<g>
			<g>
				<path fill="#4B7AC9" d="M-3897.382-480.894l-29.514-0.005c-0.6-0.005-1.088-0.493-1.094-1.093c0-0.605,0.494-1.098,1.1-1.099
					l29.539,0.004L-3897.382-480.894z"/>
			</g>
		</g>
	</g>
	<g>
		<g>
			<path fill="#FFFFFF" d="M-4481.224-418.313h-6.05c0.795,2.773,3.15,4.876,6.05,5.31c0.37,0.055,0.741,0.094,1.119,0.094h30.552
				v-5.404H-4481.224z M-4481.224-430.146c0.37-0.055,0.741-0.095,1.119-0.095h16.214c1.639,0,3.206,0.553,4.49,1.537
				c-5.317,0.229-9.336,1.285-9.336,2.562c0,1.439,5.129,2.616,11.455,2.616c1.654,0,3.23-0.087,4.648-0.229
				c1.056,0.614,2.127,1.135,3.088,1.449v3.245h-37.729c-0.182-0.646-0.284-1.332-0.284-2.046v-1.678
				C-4487.558-426.521-4484.808-429.601-4481.224-430.146L-4481.224-430.146z M-4477.489-424.646c0,1.125,0.914,2.046,2.049,2.046
				c1.126,0,2.048-0.913,2.048-2.046c0-1.135-0.914-2.049-2.048-2.049C-4476.583-426.695-4477.489-425.781-4477.489-424.646
				L-4477.489-424.646z M-4484.391-424.646c0,1.125,0.914,2.046,2.049,2.046c0.417,0,0.795-0.125,1.118-0.331
				c0.56-0.369,0.93-1,0.93-1.716c0-0.727-0.37-1.356-0.93-1.718c-0.323-0.212-0.701-0.331-1.118-0.331
				C-4483.477-426.695-4484.391-425.781-4484.391-424.646L-4484.391-424.646z M-4443.061-418.313h-5.743v5.404
				c1.859,0,3.829-0.851,5.271-2.214C-4442.533-416.06-4442.501-417.242-4443.061-418.313L-4443.061-418.313z M-4447.599-422.014
				c-0.37-0.049-0.772-0.151-1.197-0.292v3.253h5.735C-4443.809-420.511-4445.629-421.77-4447.599-422.014L-4447.599-422.014z
				 M-4447.599-422.014"/>
		</g>
		<g>
			<path fill="#FFFFFF" d="M-4498.527-424.646L-4498.527-424.646c0,1.125,0.913,2.046,2.048,2.046c1.127,0,2.049-0.913,2.049-2.046
				c0-1.135-0.914-2.049-2.049-2.049S-4498.527-425.781-4498.527-424.646"/>
			<path fill="#FFFFFF" d="M-4505.524-424.646L-4505.524-424.646c0,1.125,0.913,2.046,2.048,2.046c1.127,0,2.049-0.913,2.049-2.046
				c0-1.135-0.914-2.049-2.049-2.049S-4505.524-425.781-4505.524-424.646"/>
			<path fill="#FFFFFF" d="M-4512.521-424.646L-4512.521-424.646c0,1.125,0.913,2.046,2.048,2.046c1.127,0,2.049-0.913,2.049-2.046
				c0-1.135-0.914-2.049-2.049-2.049S-4512.521-425.781-4512.521-424.646"/>
			<path fill="#FFFFFF" d="M-4519.519-424.646L-4519.519-424.646c0,1.125,0.913,2.046,2.048,2.046c1.127,0,2.049-0.913,2.049-2.046
				c0-1.135-0.914-2.049-2.049-2.049S-4519.519-425.781-4519.519-424.646"/>
		</g>
		<g>
			<path fill="#FFFFFF" d="M-4419.182-424.646L-4419.182-424.646c0,1.125,0.913,2.046,2.048,2.046c1.127,0,2.049-0.913,2.049-2.046
				c0-1.135-0.914-2.049-2.049-2.049S-4419.182-425.781-4419.182-424.646"/>
			<path fill="#FFFFFF" d="M-4426.179-424.646L-4426.179-424.646c0,1.125,0.913,2.046,2.048,2.046c1.127,0,2.049-0.913,2.049-2.046
				c0-1.135-0.914-2.049-2.049-2.049S-4426.179-425.781-4426.179-424.646"/>
			<path fill="#FFFFFF" d="M-4433.176-424.646L-4433.176-424.646c0,1.125,0.913,2.046,2.048,2.046c1.127,0,2.049-0.913,2.049-2.046
				c0-1.135-0.914-2.049-2.049-2.049S-4433.176-425.781-4433.176-424.646"/>
			<path fill="#FFFFFF" d="M-4440.173-424.646L-4440.173-424.646c0,1.125,0.913,2.046,2.048,2.046c1.127,0,2.049-0.913,2.049-2.046
				c0-1.135-0.914-2.049-2.049-2.049S-4440.173-425.781-4440.173-424.646"/>
		</g>
	</g>
	<g>
		<text transform="matrix(1 0 0 1 -3386.8652 -438.8145)" fill="#FFFFFF" font-family="'Raleway'" font-size="38.8081">PróximoTren</text>
	</g>
	<g>
		<text transform="matrix(1 0 0 1 -2732.8652 -466.8145)" fill="#FFFFFF" font-family="'Raleway'" font-size="18">Horarios</text>
	</g>
	<g>
		<text transform="matrix(1 0 0 1 -2611.8652 -466.8145)" fill="#FFFFFF" font-family="'Raleway'" font-size="18">Ciudades</text>
	</g>
	<g>
		<text transform="matrix(1 0 0 1 -2481.8652 -466.8145)" fill="#FFFFFF" font-family="'Raleway'" font-size="18">Planea tu viaje</text>
	</g>
	<g>
		<text transform="matrix(1 0 0 1 -2319.8574 -466.8145)" fill="#FFFFFF" font-family="'Raleway'" font-size="18">Ayuda</text>
	</g>
	<g>
		<text transform="matrix(1 0 0 1 -2200.8574 -466.8145)" fill="#FFFFFF" font-family="'Raleway'" font-size="18">Español</text>
	</g>
	<text transform="matrix(1 0 0 1 -2733.3936 -304.5635)"><tspan x="0" y="0" fill="#FFFFFF" font-family="'Raleway'" font-size="38.8081">Consulta el horario de tu tren</tspan><tspan x="0" y="46.57" fill="#FFFFFF" font-family="'Raleway'" font-size="38.8081">en tiempo real</tspan></text>
	<text transform="matrix(1 0 0 1 -2733.3936 -175.5684)" fill="#FFFFFF" font-family="'Raleway-SemiBold'" font-size="18">Selecciona</text>
	<text transform="matrix(1 0 0 1 -2711.3936 -115.5684)" fill="#444444" font-family="'Raleway-Medium'" font-size="24">Ciudad</text>
	<text transform="matrix(1 0 0 1 -2711.3936 -34.0938)" fill="#444444" font-family="'Raleway-Medium'" font-size="24">Origen</text>
	<text transform="matrix(1 0 0 1 -2711.3936 47.9199)" fill="#444444" font-family="'Raleway-Medium'" font-size="24">Destino</text>
	<g>
		<g>
			<path fill="#444444" d="M-2266.487-123.402l-6.576-6.576c-0.401-0.401-1.052-0.401-1.452,0c-0.402,0.4-0.402,1.051,0,1.453
				l4.82,4.821h-17.562c-0.567,0-1.027,0.46-1.027,1.028c0,0.566,0.46,1.027,1.027,1.027h17.562l-4.82,4.822
				c-0.402,0.4-0.402,1.051,0,1.452c0.2,0.201,0.463,0.302,0.727,0.302c0.262,0,0.525-0.101,0.726-0.302l6.576-6.576
				C-2266.086-122.352-2266.086-123.002-2266.487-123.402L-2266.487-123.402z M-2266.487-123.402"/>
		</g>
	</g>
	<g>
		<g>
			<g>
				<path fill="#FFFFFF" d="M-2118.275-465.098l4.455-4.455c0.271-0.271,0.271-0.712,0-0.983c-0.271-0.272-0.712-0.272-0.984,0
					l-3.266,3.265v-11.896c0-0.384-0.312-0.696-0.697-0.696c-0.384,0-0.695,0.312-0.695,0.696v11.896l-3.268-3.265
					c-0.271-0.272-0.711-0.272-0.983,0c-0.136,0.136-0.204,0.313-0.204,0.492c0,0.177,0.068,0.356,0.204,0.491l4.455,4.455
					C-2118.987-464.826-2118.547-464.826-2118.275-465.098L-2118.275-465.098z M-2118.275-465.098"/>
			</g>
		</g>
	</g>
	<g>
		<g>
			<path fill="#444444" d="M-2266.487-42.892l-6.576-6.576c-0.401-0.401-1.052-0.401-1.452,0c-0.402,0.4-0.402,1.051,0,1.453
				l4.82,4.821h-17.562c-0.567,0-1.027,0.46-1.027,1.028c0,0.566,0.46,1.027,1.027,1.027h17.562l-4.82,4.822
				c-0.402,0.4-0.402,1.051,0,1.452c0.2,0.201,0.463,0.302,0.727,0.302c0.262,0,0.525-0.101,0.726-0.302l6.576-6.576
				C-2266.086-41.841-2266.086-42.491-2266.487-42.892L-2266.487-42.892z M-2266.487-42.892"/>
		</g>
	</g>
	<g>
		<g>
			<path fill="#444444" d="M-2266.487,39.122l-6.576-6.576c-0.401-0.401-1.052-0.401-1.452,0c-0.402,0.4-0.402,1.051,0,1.453
				l4.82,4.821h-17.562c-0.567,0-1.027,0.46-1.027,1.028c0,0.566,0.46,1.027,1.027,1.027h17.562l-4.82,4.822
				c-0.402,0.4-0.402,1.051,0,1.452c0.2,0.201,0.463,0.302,0.727,0.302c0.262,0,0.525-0.101,0.726-0.302l6.576-6.576
				C-2266.086,40.173-2266.086,39.522-2266.487,39.122L-2266.487,39.122z M-2266.487,39.122"/>
		</g>
	</g>
	<g>
		<text transform="matrix(1 0 0 1 -1703.6963 -438.8145)" fill="#1786DC" font-family="'Raleway'" font-size="38.8081">PróximoTren</text>
	</g>
	<g>
		<text transform="matrix(1 0 0 1 -1049.6963 -466.8145)" fill="#444444" font-family="'Raleway'" font-size="18">Horarios</text>
	</g>
	<g>
		<text transform="matrix(1 0 0 1 -928.6963 -466.8145)" fill="#444444" font-family="'Raleway'" font-size="18">Ciudades</text>
	</g>
	<g>
		<text transform="matrix(1 0 0 1 -798.6963 -466.8145)" fill="#444444" font-family="'Raleway'" font-size="18">Planea tu viaje</text>
	</g>
	<g>
		<text transform="matrix(1 0 0 1 -636.6885 -466.8145)" fill="#444444" font-family="'Raleway'" font-size="18">Ayuda</text>
	</g>
	<g>
		<text transform="matrix(1 0 0 1 -517.6885 -466.8145)" fill="#444444" font-family="'Raleway'" font-size="18">Español</text>
	</g>
	<text transform="matrix(1 0 0 1 -1050.2246 -304.5635)"><tspan x="0" y="0" fill="#444444" font-family="'Raleway'" font-size="38.8081">Consulta el horario de tu tren</tspan><tspan x="0" y="46.57" fill="#444444" font-family="'Raleway'" font-size="38.8081">en tiempo real</tspan></text>
	<text transform="matrix(1 0 0 1 -1050.2246 -175.5684)" fill="#444444" font-family="'Raleway-SemiBold'" font-size="18">Selecciona</text>
	<text transform="matrix(1 0 0 1 -1028.2246 -115.5684)" fill="#444444" font-family="'Raleway-Medium'" font-size="24">Ciudad</text>
	<text transform="matrix(1 0 0 1 -1028.2246 -34.0938)" fill="#444444" font-family="'Raleway-Medium'" font-size="24">Origen</text>
	<text transform="matrix(1 0 0 1 -1028.2246 47.9199)" fill="#444444" font-family="'Raleway-Medium'" font-size="24">Destino</text>
	<text transform="matrix(1 0 0 1 -960.1465 143.4141)" fill="#FFFFFF" font-family="'Raleway-SemiBold'" font-size="29">Buscar</text>
	<g>
		<g>
			<path fill="#444444" d="M-583.318-123.402l-6.576-6.576c-0.402-0.401-1.053-0.401-1.453,0c-0.401,0.4-0.401,1.051,0,1.453
				l4.821,4.821h-17.562c-0.567,0-1.027,0.46-1.027,1.028c0,0.566,0.46,1.027,1.027,1.027h17.562l-4.821,4.822
				c-0.401,0.4-0.401,1.051,0,1.452c0.201,0.201,0.463,0.302,0.728,0.302c0.262,0,0.525-0.101,0.726-0.302l6.576-6.576
				C-582.917-122.352-582.917-123.002-583.318-123.402L-583.318-123.402z M-583.318-123.402"/>
		</g>
	</g>
	<g>
		<g>
			<g>
				<path fill="#444444" d="M-435.106-465.098l4.455-4.455c0.271-0.271,0.271-0.712,0-0.983c-0.271-0.272-0.712-0.272-0.984,0
					l-3.266,3.265v-11.896c0-0.384-0.312-0.696-0.696-0.696c-0.385,0-0.696,0.312-0.696,0.696v11.896l-3.268-3.265
					c-0.271-0.272-0.711-0.272-0.983,0c-0.135,0.136-0.204,0.313-0.204,0.492c0,0.177,0.069,0.356,0.204,0.491l4.455,4.455
					C-435.818-464.826-435.378-464.826-435.106-465.098L-435.106-465.098z M-435.106-465.098"/>
			</g>
		</g>
	</g>
	<g>
		<text transform="matrix(1 0 0 1 1251.2568 -466.8145)" fill="#444444" font-family="'Raleway'" font-size="18">Español</text>
	</g>
	<g>
		<g>
			<g>
				<path fill="#444444" d="M1333.839-465.098l4.454-4.455c0.271-0.271,0.271-0.712,0-0.983c-0.271-0.272-0.711-0.272-0.983,0
					l-3.266,3.265v-11.896c0-0.384-0.313-0.696-0.696-0.696c-0.385,0-0.695,0.312-0.695,0.696v11.896l-3.269-3.265
					c-0.272-0.272-0.712-0.272-0.983,0c-0.135,0.136-0.205,0.313-0.205,0.492c0,0.177,0.07,0.356,0.205,0.491l4.455,4.455
					C1333.127-464.826,1333.568-464.826,1333.839-465.098L1333.839-465.098z M1333.839-465.098"/>
			</g>
		</g>
	</g>
	<g>
		<g>
			<path fill="#444444" d="M-583.318-42.892l-6.576-6.576c-0.402-0.401-1.053-0.401-1.453,0c-0.401,0.4-0.401,1.051,0,1.453
				l4.821,4.821h-17.562c-0.567,0-1.027,0.46-1.027,1.028c0,0.566,0.46,1.027,1.027,1.027h17.562l-4.821,4.822
				c-0.401,0.4-0.401,1.051,0,1.452c0.201,0.201,0.463,0.302,0.728,0.302c0.262,0,0.525-0.101,0.726-0.302l6.576-6.576
				C-582.917-41.841-582.917-42.491-583.318-42.892L-583.318-42.892z M-583.318-42.892"/>
		</g>
	</g>
	<g>
		<g>
			<path fill="#444444" d="M-583.318,39.122l-6.576-6.576c-0.402-0.401-1.053-0.401-1.453,0c-0.401,0.4-0.401,1.051,0,1.453
				l4.821,4.821h-17.562c-0.567,0-1.027,0.46-1.027,1.028c0,0.566,0.46,1.027,1.027,1.027h17.562l-4.821,4.822
				c-0.401,0.4-0.401,1.051,0,1.452c0.201,0.201,0.463,0.302,0.728,0.302c0.262,0,0.525-0.101,0.726-0.302l6.576-6.576
				C-582.917,40.173-582.917,39.522-583.318,39.122L-583.318,39.122z M-583.318,39.122"/>
		</g>
	</g>
	<text transform="matrix(1 0 0 1 791.0908 -304.5635)"><tspan x="0" y="0" fill="#160C2C" font-family="'Raleway'" font-size="38.8081">Consulta el horario de tu tren</tspan><tspan x="0" y="46.57" fill="#EF4C5A" font-family="'Raleway-SemiBold'" font-size="38.8081">en tiempo real</tspan></text>
	<text transform="matrix(1 0 0 1 791.0908 -175.5684)" fill="#444444" font-family="'Raleway-SemiBold'" font-size="18">Selecciona</text>
	<text transform="matrix(1 0 0 1 813.0908 -115.5684)" fill="#444444" font-family="'Raleway-Medium'" font-size="24">Ciudad</text>
	<text transform="matrix(1 0 0 1 813.0908 -34.0938)" fill="#444444" font-family="'Raleway-Medium'" font-size="24">Origen</text>
	<text transform="matrix(1 0 0 1 813.0908 47.9199)" fill="#444444" font-family="'Raleway-Medium'" font-size="24">Destino</text>
	<text transform="matrix(1 0 0 1 881.1689 143.4141)" fill="#FFFFFF" font-family="'Raleway-SemiBold'" font-size="29">Buscar</text>
	<g>
		<g>
			<path fill="#444444" d="M1257.996-123.402l-6.576-6.576c-0.402-0.401-1.053-0.401-1.452,0c-0.401,0.4-0.401,1.051,0,1.453
				l4.821,4.821h-17.561c-0.568,0-1.029,0.46-1.029,1.028c0,0.566,0.461,1.027,1.029,1.027h17.561l-4.821,4.822
				c-0.401,0.4-0.401,1.051,0,1.452c0.2,0.201,0.462,0.302,0.728,0.302c0.262,0,0.525-0.101,0.725-0.302l6.576-6.576
				C1258.398-122.352,1258.398-123.002,1257.996-123.402L1257.996-123.402z M1257.996-123.402"/>
		</g>
	</g>
	<g>
		<g>
			<path fill="#444444" d="M1257.996-42.892l-6.576-6.576c-0.402-0.401-1.053-0.401-1.452,0c-0.401,0.4-0.401,1.051,0,1.453
				l4.821,4.821h-17.561c-0.568,0-1.029,0.46-1.029,1.028c0,0.566,0.461,1.027,1.029,1.027h17.561l-4.821,4.822
				c-0.401,0.4-0.401,1.051,0,1.452c0.2,0.201,0.462,0.302,0.728,0.302c0.262,0,0.525-0.101,0.725-0.302l6.576-6.576
				C1258.398-41.841,1258.398-42.491,1257.996-42.892L1257.996-42.892z M1257.996-42.892"/>
		</g>
	</g>
	<g>
		<g>
			<path fill="#444444" d="M1257.996,39.122l-6.576-6.576c-0.402-0.401-1.053-0.401-1.452,0c-0.401,0.4-0.401,1.051,0,1.453
				l4.821,4.821h-17.561c-0.568,0-1.029,0.46-1.029,1.028c0,0.566,0.461,1.027,1.029,1.027h17.561l-4.821,4.822
				c-0.401,0.4-0.401,1.051,0,1.452c0.2,0.201,0.462,0.302,0.728,0.302c0.262,0,0.525-0.101,0.725-0.302l6.576-6.576
				C1258.398,40.173,1258.398,39.522,1257.996,39.122L1257.996,39.122z M1257.996,39.122"/>
		</g>
	</g>
	<g>
		
			<text transform="matrix(1 0 0 1 145.1172 -352.1255)" fill="#FFFFFF" font-family="'Choplin-ExtraLight-DEMO'" font-size="41.9748" letter-spacing="-1">Proximo</text>
	</g>
	<g>
		<path fill="#FFFFFF" d="M201.214-376.958l6.727-7.017l-0.882-0.765l-6.686,6.975L201.214-376.958z"/>
	</g>
	<g>
		<path fill="#FFFFFF" d="M203.477-374.695l6.727-7.017l-0.882-0.765l-6.687,6.975L203.477-374.695z"/>
	</g>
	<g>
		
			<text transform="matrix(1 0 0 1 -64.8672 -446.3701)" fill="#FFFFFF" font-family="'Choplin-ExtraLight-DEMO'" font-size="19.5222">Menu</text>
	</g>
	<g>
		
			<text transform="matrix(1 0 0 1 148.0195 -303.0972)" fill="#EF4C5A" stroke="#EF4C5A" stroke-miterlimit="10" font-family="'Choplin-Medium-DEMO'" font-size="57.1712" letter-spacing="-1">TREN</text>
	</g>
	<g>
		<path fill="#FFFFFF" d="M-87.688-463.497h-23.909c-0.328,0-0.594,0.267-0.594,0.595c0,0.325,0.266,0.591,0.594,0.591h23.909
			c0.325,0,0.593-0.266,0.593-0.591C-87.096-463.229-87.363-463.497-87.688-463.497z"/>
		<path fill="#FFFFFF" d="M-111.598-454.339h16.582c0.326,0,0.592-0.268,0.592-0.594c0-0.327-0.266-0.594-0.592-0.594h-16.582
			c-0.328,0-0.594,0.267-0.594,0.594C-112.191-454.606-111.926-454.339-111.598-454.339z"/>
		<path fill="#FFFFFF" d="M-111.598-446.37h16.424c0.328,0,0.594-0.266,0.594-0.594c0-0.325-0.266-0.592-0.594-0.592h-16.424
			c-0.328,0-0.594,0.267-0.594,0.592C-112.191-446.636-111.926-446.37-111.598-446.37z"/>
		<path fill="#FFFFFF" d="M-87.688-439.592h-23.909c-0.328,0-0.594,0.268-0.594,0.594c0,0.327,0.266,0.594,0.594,0.594h23.909
			c0.325,0,0.593-0.267,0.593-0.594C-87.096-439.324-87.363-439.592-87.688-439.592z"/>
	</g>
	<g>
		
			<text transform="matrix(1 0 0 1 1633.1172 -291.4873)" fill="#FFFFFF" font-family="'Choplin-ExtraLight-DEMO'" font-size="41.9748" letter-spacing="-1">Proximo</text>
	</g>
	<g>
		<path fill="#FFFFFF" d="M1689.214-316.32l6.727-7.017l-0.882-0.765l-6.686,6.975L1689.214-316.32z"/>
	</g>
	<g>
		<path fill="#FFFFFF" d="M1691.477-314.057l6.727-7.017l-0.882-0.765l-6.687,6.975L1691.477-314.057z"/>
	</g>
	<g>
		
			<text transform="matrix(1 0 0 1 1636.0195 -242.459)" fill="#EF4C5A" stroke="#EF4C5A" stroke-miterlimit="10" font-family="'Choplin-Medium-DEMO'" font-size="57.1712" letter-spacing="-1">TREN</text>
	</g>
</g>
</svg>
