<?xml version="1.0" encoding="utf-8"?>
<!-- Generator: Adobe Illustrator 16.0.0, SVG Export Plug-In . SVG Version: 6.00 Build 0)  -->
<!DOCTYPE svg PUBLIC "-//W3C//DTD SVG 1.1//EN" "http://www.w3.org/Graphics/SVG/1.1/DTD/svg11.dtd">
<svg version="1.1" xmlns="http://www.w3.org/2000/svg" xmlns:xlink="http://www.w3.org/1999/xlink" x="0px" y="0px"
	 width="338.092px" height="279.325px" viewBox="0 0 338.092 279.325" enable-background="new 0 0 338.092 279.325"
	 xml:space="preserve">
<g id="Capa_1">
	<rect x="-3661.503" y="-345.441" fill="#4B7AC9" width="1599.71" height="958.633"/>
	<rect x="-4850.329" y="-422.675" fill="#4B7AC9" width="640" height="96.512"/>
	<rect x="-4850.329" y="-324.437" fill="#6091D8" width="640" height="130.095"/>
	<rect x="-4850.329" y="-194.661" fill="#EFEFEF" width="640" height="151.986"/>
	<rect x="-5773.27" y="-422.675" fill="#4B7AC9" width="125" height="125"/>
</g>
<g id="Capa_2">
	
		<radialGradient id="SVGID_1_" cx="-5248.793" cy="146.4648" r="151.5655" gradientTransform="matrix(1 0 0 0.6082 0 57.3854)" gradientUnits="userSpaceOnUse">
		<stop  offset="0" style="stop-color:#FFFFFF;stop-opacity:0.75"/>
		<stop  offset="1" style="stop-color:#FFFFFF;stop-opacity:0"/>
	</radialGradient>
	<path fill="url(#SVGID_1_)" d="M-5102.045,36.809c-3.452-13.235-13.812-58.124-42.011-94.379c0,0,13.812,85.172-104.737,85.172
		S-5353.53-57.57-5353.53-57.57c-28.199,36.255-38.557,81.144-42.012,94.379c-3.452,13.237-13.234,58.7,0,132.937
		c13.237,74.238,146.749,71.938,146.749,71.938s133.513,2.301,146.748-71.938C-5088.809,95.508-5098.592,50.045-5102.045,36.809z"/>
	<path opacity="0.12" d="M-5107.965,4.113c-3.308-13.236-13.229-58.124-40.237-94.379c0,0,13.229,85.171-100.314,85.171
		c-113.545,0-100.314-85.171-100.314-85.171c-27.009,36.255-36.93,81.143-40.238,94.379c-3.307,13.236-12.676,58.699,0,132.937
		c12.679,74.236,140.553,71.936,140.553,71.936s127.875,2.301,140.552-71.936C-5095.288,62.812-5104.657,17.349-5107.965,4.113z"/>
</g>
<g id="Capa_3">
	<g>
		<path d="M-5248.793,182.132c-87.731,0-120.324-35.121-120.324-35.121c3.749,54.777,120.324,52.633,120.324,52.633
			s116.576,2.145,120.325-52.633C-5128.468,147.011-5161.061,182.132-5248.793,182.132z"/>
		<linearGradient id="SVGID_2_" gradientUnits="userSpaceOnUse" x1="-5393.2197" y1="50.5415" x2="-5104.3662" y2="50.5415">
			<stop  offset="0" style="stop-color:#EFEFEF"/>
			<stop  offset="0.25" style="stop-color:#FFFFFF"/>
			<stop  offset="0.75" style="stop-color:#FFFFFF"/>
			<stop  offset="1" style="stop-color:#EFEFEF"/>
		</linearGradient>
		<path fill="url(#SVGID_2_)" d="M-5110.697-1.452c-3.249-12.455-12.997-54.696-39.533-88.813c0,0,12.997,80.149-98.562,80.149
			s-98.562-80.149-98.562-80.149c-26.536,34.118-36.283,76.359-39.534,88.813c-3.248,12.456-12.454,55.238,0,125.1
			c12.457,69.861,138.097,67.693,138.097,67.693s125.64,2.168,138.096-67.693C-5098.242,53.786-5107.448,11.004-5110.697-1.452z"/>
		<path opacity="0.08" d="M-5139.472-37.811c0,0-20.428-3.892-19.844,5.447c0.583,9.338,4.086,44.356,16.731,50.973
			c12.646,6.615,20.517,6.543,20.517,6.543s12.558-31.252,0.301-51.875C-5121.767-26.722-5125.683-34.406-5139.472-37.811z"/>
		<path opacity="0.08" d="M-5361.329-37.811c0,0,20.427-3.892,19.844,5.447c-0.583,9.338-4.086,44.356-16.732,50.973
			c-12.645,6.615-20.516,6.543-20.516,6.543s-12.557-31.252-0.301-51.875C-5379.034-26.722-5375.119-34.406-5361.329-37.811z"/>
		<path opacity="0.12" d="M-5248.793,166.159c0,0-89.464,4.875-138.097-42.512c12.457,69.861,138.097,67.693,138.097,67.693
			s125.64,2.168,138.096-67.693C-5159.329,171.034-5248.793,166.159-5248.793,166.159z"/>
		<g>
			<path fill="#B0286C" d="M-5115.517-18.958l-0.032-0.37c9.771,106.138-133.244,101.818-133.244,101.818
				S-5098.106,91.805-5115.517-18.958z"/>
			<path fill="#B0286C" d="M-5382.036-19.329l-0.033,0.37c-17.41,110.763,133.276,101.448,133.276,101.448
				S-5391.806,86.81-5382.036-19.329z"/>
		</g>
		<path fill="#EB9C18" d="M-5248.793,133.667c0,0-118.8,0.266-143.747-56.326v5.342c24.947,56.589,143.747,56.324,143.747,56.324
			s118.801,0.266,143.747-56.324v-5.342C-5129.992,133.933-5248.793,133.667-5248.793,133.667z"/>
		<path fill="#B0286C" d="M-5248.793,143.685c0,0-114.739-2.893-141.987-46.532l1.358,10.132
			c29.492,41.687,140.629,44.49,140.629,44.49s111.138-2.803,140.629-44.49l1.358-10.132
			C-5134.054,140.792-5248.793,143.685-5248.793,143.685z"/>
		<path opacity="0.08" d="M-5144.273,26.439c-36.551-7.582-104.508-7.042-104.52-7.042c-0.011,0-67.968-0.541-104.519,7.042
			c0,0-14.216,2.933-15.164,7.041v1.103c0.948-4.105,15.164-7.04,15.164-7.04c36.548-7.581,104.496-7.04,104.519-7.04l0,0l0,0l0,0
			l0,0c0.023,0,67.971-0.541,104.52,7.04c0,0,14.216,2.934,15.164,7.04v-1.103C-5130.058,29.372-5144.273,26.439-5144.273,26.439z"
			/>
		<path opacity="0.2" fill="#FFFFFF" d="M-5248.793,190.198L-5248.793,190.198L-5248.793,190.198L-5248.793,190.198
			L-5248.793,190.198c-0.049,0.004-126.325,1.447-139.159-73.52v2.161c12.836,74.972,139.135,73.519,139.159,73.519
			s126.324,1.453,139.16-73.519v-2.161C-5122.467,191.646-5248.743,190.202-5248.793,190.198z"/>
		<linearGradient id="SVGID_3_" gradientUnits="userSpaceOnUse" x1="-5155.2969" y1="-5.9424" x2="-5115.7793" y2="-5.9424">
			<stop  offset="0" style="stop-color:#222222"/>
			<stop  offset="0.25" style="stop-color:#444444"/>
			<stop  offset="0.75" style="stop-color:#444444"/>
			<stop  offset="1" style="stop-color:#222222"/>
		</linearGradient>
		<path opacity="0.2" fill="url(#SVGID_3_)" d="M-5136.872-36.292c0,0-18.954-3.61-18.413,5.055
			c0.542,8.665,3.791,41.157,15.524,47.296c11.733,6.138,17.693,9.094,17.693,9.094s12.994-32.02,1.622-51.154
			C-5120.445-26.001-5124.078-33.132-5136.872-36.292z"/>
		<linearGradient id="SVGID_4_" gradientUnits="userSpaceOnUse" x1="-5151.9492" y1="-7.5205" x2="-5116.2217" y2="-7.5205">
			<stop  offset="0" style="stop-color:#EFEFEF"/>
			<stop  offset="0.25" style="stop-color:#FFFFFF"/>
			<stop  offset="0.75" style="stop-color:#FFFFFF"/>
			<stop  offset="1" style="stop-color:#EFEFEF"/>
		</linearGradient>
		<path fill="url(#SVGID_4_)" d="M-5136.421-34.847c0,0-15.795-3.971-15.524,4.333s1.805,29.424,6.589,37.187
			s17.24,13.449,17.24,13.449s4.151,2.345,6.317-1.986c2.166-4.334,11.012-28.613,0.632-43.957
			C-5121.167-25.821-5125.229-32.767-5136.421-34.847z"/>
		<linearGradient id="SVGID_5_" gradientUnits="userSpaceOnUse" x1="-5147.958" y1="-11.6216" x2="-5120.9355" y2="-11.6216">
			<stop  offset="0" style="stop-color:#222222"/>
			<stop  offset="0.25" style="stop-color:#444444"/>
			<stop  offset="0.75" style="stop-color:#444444"/>
			<stop  offset="1" style="stop-color:#222222"/>
		</linearGradient>
		<circle opacity="0.1" fill="url(#SVGID_5_)" cx="-5134.447" cy="-11.621" r="13.511"/>
		<linearGradient id="SVGID_6_" gradientUnits="userSpaceOnUse" x1="-5145.5459" y1="-11.6626" x2="-5123.3066" y2="-11.6626">
			<stop  offset="0" style="stop-color:#EFEFEF"/>
			<stop  offset="0.25" style="stop-color:#FFFFFF"/>
			<stop  offset="0.75" style="stop-color:#FFFFFF"/>
			<stop  offset="1" style="stop-color:#EFEFEF"/>
		</linearGradient>
		<circle fill="url(#SVGID_6_)" cx="-5134.426" cy="-11.663" r="11.12"/>
		<linearGradient id="SVGID_7_" gradientUnits="userSpaceOnUse" x1="-5138.1914" y1="-11.2656" x2="-5130.7012" y2="-11.2656">
			<stop  offset="0" style="stop-color:#EFEFEF"/>
			<stop  offset="0.25" style="stop-color:#FFFFFF"/>
			<stop  offset="0.75" style="stop-color:#FFFFFF"/>
			<stop  offset="1" style="stop-color:#EFEFEF"/>
		</linearGradient>
		<circle fill="url(#SVGID_7_)" cx="-5134.446" cy="-11.265" r="3.745"/>
		<linearGradient id="SVGID_8_" gradientUnits="userSpaceOnUse" x1="-5385.0215" y1="-5.9424" x2="-5345.5054" y2="-5.9424">
			<stop  offset="0" style="stop-color:#222222"/>
			<stop  offset="0.25" style="stop-color:#444444"/>
			<stop  offset="0.75" style="stop-color:#444444"/>
			<stop  offset="1" style="stop-color:#222222"/>
		</linearGradient>
		<path opacity="0.2" fill="url(#SVGID_8_)" d="M-5363.93-36.292c0,0,18.954-3.61,18.413,5.055s-3.791,41.157-15.524,47.296
			c-11.733,6.138-17.692,9.094-17.692,9.094s-12.995-32.02-1.623-51.154C-5380.356-26.001-5376.724-33.132-5363.93-36.292z"/>
		<linearGradient id="SVGID_9_" gradientUnits="userSpaceOnUse" x1="-5384.5791" y1="-7.5205" x2="-5348.853" y2="-7.5205">
			<stop  offset="0" style="stop-color:#EFEFEF"/>
			<stop  offset="0.25" style="stop-color:#FFFFFF"/>
			<stop  offset="0.75" style="stop-color:#FFFFFF"/>
			<stop  offset="1" style="stop-color:#EFEFEF"/>
		</linearGradient>
		<path fill="url(#SVGID_9_)" d="M-5364.381-34.847c0,0,15.796-3.971,15.524,4.333c-0.271,8.304-1.805,29.424-6.589,37.187
			s-17.239,13.449-17.239,13.449s-4.152,2.345-6.318-1.986c-2.166-4.334-11.01-28.613-0.632-43.957
			C-5379.635-25.821-5375.573-32.767-5364.381-34.847z"/>
		<linearGradient id="SVGID_10_" gradientUnits="userSpaceOnUse" x1="-5379.8662" y1="-11.6216" x2="-5352.8428" y2="-11.6216">
			<stop  offset="0" style="stop-color:#222222"/>
			<stop  offset="0.25" style="stop-color:#444444"/>
			<stop  offset="0.75" style="stop-color:#444444"/>
			<stop  offset="1" style="stop-color:#222222"/>
		</linearGradient>
		<circle opacity="0.1" fill="url(#SVGID_10_)" cx="-5366.354" cy="-11.621" r="13.512"/>
		<linearGradient id="SVGID_11_" gradientUnits="userSpaceOnUse" x1="-5377.4932" y1="-11.6626" x2="-5355.2549" y2="-11.6626">
			<stop  offset="0" style="stop-color:#EFEFEF"/>
			<stop  offset="0.25" style="stop-color:#FFFFFF"/>
			<stop  offset="0.75" style="stop-color:#FFFFFF"/>
			<stop  offset="1" style="stop-color:#EFEFEF"/>
		</linearGradient>
		<circle fill="url(#SVGID_11_)" cx="-5366.374" cy="-11.663" r="11.119"/>
		<linearGradient id="SVGID_12_" gradientUnits="userSpaceOnUse" x1="-5370.1006" y1="-11.2656" x2="-5362.6104" y2="-11.2656">
			<stop  offset="0" style="stop-color:#EFEFEF"/>
			<stop  offset="0.25" style="stop-color:#FFFFFF"/>
			<stop  offset="0.75" style="stop-color:#FFFFFF"/>
			<stop  offset="1" style="stop-color:#EFEFEF"/>
		</linearGradient>
		<circle fill="url(#SVGID_12_)" cx="-5366.355" cy="-11.265" r="3.745"/>
		<linearGradient id="SVGID_13_" gradientUnits="userSpaceOnUse" x1="-5347.7515" y1="-77.3091" x2="-5149.834" y2="-77.3091">
			<stop  offset="0" style="stop-color:#222222"/>
			<stop  offset="0.25" style="stop-color:#444444"/>
			<stop  offset="0.75" style="stop-color:#444444"/>
			<stop  offset="1" style="stop-color:#222222"/>
		</linearGradient>
		<path fill="url(#SVGID_13_)" d="M-5150.23-90.266c-1.084-11.373-16.247-19.767-16.247-19.767
			c-16.606-35.833-82.315-34.389-82.315-34.389s-67.339-3.43-82.315,34.389c0,0-15.164,8.394-16.247,19.767
			c0,0-12.183,80.149,98.562,80.149C-5138.047-10.116-5150.23-90.266-5150.23-90.266z"/>
		<path opacity="0.3" d="M-5165.936-73.207c0,0-11.102-24.641-13.81-33.847c-2.708-9.207-13.269-10.831-13.269-10.831
			c-20.036-2.979-55.779-4.062-55.779-4.062s-35.743,1.083-55.779,4.062c0,0-10.561,1.625-13.269,10.831
			c-2.708,9.206-13.81,33.847-13.81,33.847s-4.333,7.853,4.603,7.853h78.255h78.254
			C-5161.604-65.354-5165.936-73.207-5165.936-73.207z"/>
	</g>
	<g>
		
			<radialGradient id="SVGID_14_" cx="-5710.77" cy="-337.0205" r="35.8575" gradientTransform="matrix(1 0 0 0.6082 0 -132.0457)" gradientUnits="userSpaceOnUse">
			<stop  offset="0" style="stop-color:#FFFFFF;stop-opacity:0.75"/>
			<stop  offset="1" style="stop-color:#FFFFFF;stop-opacity:0"/>
		</radialGradient>
		<path fill="url(#SVGID_14_)" d="M-5676.052-362.963c-0.817-3.131-3.268-13.751-9.938-22.328c0,0,3.268,20.15-24.779,20.15
			s-24.779-20.15-24.779-20.15c-6.671,8.577-9.121,19.197-9.938,22.328c-0.817,3.132-3.132,13.888,0,31.45
			c3.132,17.563,34.718,17.019,34.718,17.019s31.586,0.545,34.718-17.019C-5672.921-349.075-5675.235-359.831-5676.052-362.963z"/>
		<path opacity="0.12" d="M-5677.453-370.698c-0.782-3.131-3.13-13.751-9.52-22.328c0,0,3.13,20.15-23.732,20.15
			c-26.863,0-23.732-20.15-23.732-20.15c-6.39,8.577-8.737,19.197-9.52,22.328c-0.783,3.131-3,13.887,0,31.45
			s33.252,17.019,33.252,17.019s30.253,0.545,33.252-17.019S-5676.67-367.567-5677.453-370.698z"/>
		<g>
			<path d="M-5710.77-328.582c-20.755,0-28.466-8.309-28.466-8.309c0.886,12.959,28.466,12.451,28.466,12.451
				s27.58,0.508,28.467-12.451C-5682.303-336.891-5690.015-328.582-5710.77-328.582z"/>
			<linearGradient id="SVGID_15_" gradientUnits="userSpaceOnUse" x1="-5744.939" y1="-359.7139" x2="-5676.6016" y2="-359.7139">
				<stop  offset="0" style="stop-color:#EFEFEF"/>
				<stop  offset="0.25" style="stop-color:#FFFFFF"/>
				<stop  offset="0.75" style="stop-color:#FFFFFF"/>
				<stop  offset="1" style="stop-color:#EFEFEF"/>
			</linearGradient>
			<path fill="url(#SVGID_15_)" d="M-5678.099-372.015c-0.769-2.947-3.075-12.94-9.353-21.012c0,0,3.075,18.962-23.318,18.962
				s-23.318-18.962-23.318-18.962c-6.277,8.072-8.583,18.065-9.353,21.012c-0.769,2.947-2.947,13.068,0,29.597
				s32.671,16.015,32.671,16.015s29.724,0.514,32.671-16.015S-5677.331-369.068-5678.099-372.015z"/>
			<path opacity="0.08" d="M-5684.907-380.616c0,0-4.833-0.921-4.695,1.288c0.139,2.209,0.967,10.494,3.958,12.06
				c2.992,1.565,4.854,1.548,4.854,1.548s2.972-7.394,0.072-12.272C-5680.718-377.993-5681.645-379.811-5684.907-380.616z"/>
			<path opacity="0.08" d="M-5737.394-380.616c0,0,4.833-0.921,4.695,1.288c-0.138,2.209-0.967,10.494-3.958,12.06
				c-2.992,1.565-4.854,1.548-4.854,1.548s-2.971-7.394-0.071-12.272C-5741.583-377.993-5740.657-379.811-5737.394-380.616z"/>
			<path opacity="0.12" d="M-5710.77-332.362c0,0-21.166,1.154-32.671-10.056c2.947,16.528,32.671,16.015,32.671,16.015
				s29.724,0.514,32.671-16.015C-5689.604-331.208-5710.77-332.362-5710.77-332.362z"/>
			<g>
				<path fill="#B0286C" d="M-5679.239-376.156l-0.008-0.087c2.312,25.11-31.523,24.088-31.523,24.088
					S-5675.12-349.952-5679.239-376.156z"/>
				<path fill="#B0286C" d="M-5742.293-376.244l-0.008,0.087c-4.119,26.204,31.531,24.001,31.531,24.001
					S-5744.604-351.134-5742.293-376.244z"/>
			</g>
			<path fill="#EB9C18" d="M-5710.77-340.049c0,0-28.106,0.064-34.008-13.325v1.264c5.902,13.389,34.008,13.325,34.008,13.325
				s28.106,0.063,34.008-13.325v-1.264C-5682.664-339.984-5710.77-340.049-5710.77-340.049z"/>
			<path fill="#B0286C" d="M-5710.77-337.678c0,0-27.145-0.685-33.592-11.008l0.322,2.396c6.978,9.861,33.27,10.525,33.27,10.525
				s26.293-0.664,33.271-10.525l0.321-2.396C-5683.625-338.362-5710.77-337.678-5710.77-337.678z"/>
			<path opacity="0.08" d="M-5686.042-365.417c-8.647-1.793-24.725-1.666-24.728-1.666c-0.002,0-16.08-0.128-24.728,1.666
				c0,0-3.363,0.694-3.587,1.666v0.261c0.224-0.971,3.587-1.666,3.587-1.666c8.647-1.793,24.722-1.666,24.728-1.666l0,0l0,0l0,0l0,0
				c0.006,0,16.081-0.127,24.728,1.666c0,0,3.363,0.694,3.587,1.666v-0.261C-5682.679-364.723-5686.042-365.417-5686.042-365.417z"
				/>
			<path opacity="0.2" fill="#FFFFFF" d="M-5710.77-326.674L-5710.77-326.674L-5710.77-326.674L-5710.77-326.674L-5710.77-326.674
				c-0.012,0-29.887,0.343-32.922-17.394v0.512c3.037,17.737,32.917,17.393,32.922,17.393s29.886,0.345,32.923-17.393v-0.512
				C-5680.884-326.331-5710.758-326.674-5710.77-326.674z"/>
			<linearGradient id="SVGID_16_" gradientUnits="userSpaceOnUse" x1="-5688.6509" y1="-373.0771" x2="-5679.3018" y2="-373.0771">
				<stop  offset="0" style="stop-color:#222222"/>
				<stop  offset="0.25" style="stop-color:#444444"/>
				<stop  offset="0.75" style="stop-color:#444444"/>
				<stop  offset="1" style="stop-color:#222222"/>
			</linearGradient>
			<path opacity="0.2" fill="url(#SVGID_16_)" d="M-5684.292-380.257c0,0-4.484-0.854-4.356,1.196
				c0.129,2.05,0.897,9.737,3.673,11.189c2.776,1.452,4.186,2.151,4.186,2.151s3.075-7.575,0.384-12.102
				C-5680.405-377.822-5681.265-379.509-5684.292-380.257z"/>
			<linearGradient id="SVGID_17_" gradientUnits="userSpaceOnUse" x1="-5687.8584" y1="-373.4502" x2="-5679.4062" y2="-373.4502">
				<stop  offset="0" style="stop-color:#EFEFEF"/>
				<stop  offset="0.25" style="stop-color:#FFFFFF"/>
				<stop  offset="0.75" style="stop-color:#FFFFFF"/>
				<stop  offset="1" style="stop-color:#EFEFEF"/>
			</linearGradient>
			<path fill="url(#SVGID_17_)" d="M-5684.185-379.916c0,0-3.737-0.939-3.673,1.025c0.063,1.964,0.427,6.961,1.559,8.798
				c1.131,1.836,4.079,3.182,4.079,3.182s0.982,0.555,1.494-0.47c0.513-1.025,2.605-6.77,0.15-10.4
				C-5680.576-377.78-5681.537-379.423-5684.185-379.916z"/>
			<linearGradient id="SVGID_18_" gradientUnits="userSpaceOnUse" x1="-5686.9146" y1="-374.4209" x2="-5680.5215" y2="-374.4209">
				<stop  offset="0" style="stop-color:#222222"/>
				<stop  offset="0.25" style="stop-color:#444444"/>
				<stop  offset="0.75" style="stop-color:#444444"/>
				<stop  offset="1" style="stop-color:#222222"/>
			</linearGradient>
			<circle opacity="0.1" fill="url(#SVGID_18_)" cx="-5683.718" cy="-374.42" r="3.197"/>
			<linearGradient id="SVGID_19_" gradientUnits="userSpaceOnUse" x1="-5686.3438" y1="-374.4302" x2="-5681.082" y2="-374.4302">
				<stop  offset="0" style="stop-color:#EFEFEF"/>
				<stop  offset="0.25" style="stop-color:#FFFFFF"/>
				<stop  offset="0.75" style="stop-color:#FFFFFF"/>
				<stop  offset="1" style="stop-color:#EFEFEF"/>
			</linearGradient>
			<circle fill="url(#SVGID_19_)" cx="-5683.713" cy="-374.43" r="2.631"/>
			<linearGradient id="SVGID_20_" gradientUnits="userSpaceOnUse" x1="-5684.6035" y1="-374.3359" x2="-5682.832" y2="-374.3359">
				<stop  offset="0" style="stop-color:#EFEFEF"/>
				<stop  offset="0.25" style="stop-color:#FFFFFF"/>
				<stop  offset="0.75" style="stop-color:#FFFFFF"/>
				<stop  offset="1" style="stop-color:#EFEFEF"/>
			</linearGradient>
			<circle fill="url(#SVGID_20_)" cx="-5683.718" cy="-374.336" r="0.886"/>
			<linearGradient id="SVGID_21_" gradientUnits="userSpaceOnUse" x1="-5742.999" y1="-373.0771" x2="-5733.6504" y2="-373.0771">
				<stop  offset="0" style="stop-color:#222222"/>
				<stop  offset="0.25" style="stop-color:#444444"/>
				<stop  offset="0.75" style="stop-color:#444444"/>
				<stop  offset="1" style="stop-color:#222222"/>
			</linearGradient>
			<path opacity="0.2" fill="url(#SVGID_21_)" d="M-5738.009-380.257c0,0,4.484-0.854,4.355,1.196
				c-0.128,2.05-0.896,9.737-3.673,11.189c-2.775,1.452-4.185,2.151-4.185,2.151s-3.075-7.575-0.384-12.102
				C-5741.896-377.822-5741.036-379.509-5738.009-380.257z"/>
			<linearGradient id="SVGID_22_" gradientUnits="userSpaceOnUse" x1="-5742.894" y1="-373.4502" x2="-5734.4424" y2="-373.4502">
				<stop  offset="0" style="stop-color:#EFEFEF"/>
				<stop  offset="0.25" style="stop-color:#FFFFFF"/>
				<stop  offset="0.75" style="stop-color:#FFFFFF"/>
				<stop  offset="1" style="stop-color:#EFEFEF"/>
			</linearGradient>
			<path fill="url(#SVGID_22_)" d="M-5738.116-379.916c0,0,3.737-0.939,3.673,1.025c-0.064,1.964-0.427,6.961-1.559,8.798
				c-1.132,1.836-4.078,3.182-4.078,3.182s-0.982,0.555-1.495-0.47c-0.512-1.025-2.604-6.77-0.149-10.4
				C-5741.725-377.78-5740.764-379.423-5738.116-379.916z"/>
			<linearGradient id="SVGID_23_" gradientUnits="userSpaceOnUse" x1="-5741.7793" y1="-374.4209" x2="-5735.3862" y2="-374.4209">
				<stop  offset="0" style="stop-color:#222222"/>
				<stop  offset="0.25" style="stop-color:#444444"/>
				<stop  offset="0.75" style="stop-color:#444444"/>
				<stop  offset="1" style="stop-color:#222222"/>
			</linearGradient>
			<circle opacity="0.1" fill="url(#SVGID_23_)" cx="-5738.583" cy="-374.42" r="3.197"/>
			<linearGradient id="SVGID_24_" gradientUnits="userSpaceOnUse" x1="-5741.2178" y1="-374.4302" x2="-5735.9565" y2="-374.4302">
				<stop  offset="0" style="stop-color:#EFEFEF"/>
				<stop  offset="0.25" style="stop-color:#FFFFFF"/>
				<stop  offset="0.75" style="stop-color:#FFFFFF"/>
				<stop  offset="1" style="stop-color:#EFEFEF"/>
			</linearGradient>
			<circle fill="url(#SVGID_24_)" cx="-5738.587" cy="-374.43" r="2.631"/>
			<linearGradient id="SVGID_25_" gradientUnits="userSpaceOnUse" x1="-5739.4688" y1="-374.3359" x2="-5737.6973" y2="-374.3359">
				<stop  offset="0" style="stop-color:#EFEFEF"/>
				<stop  offset="0.25" style="stop-color:#FFFFFF"/>
				<stop  offset="0.75" style="stop-color:#FFFFFF"/>
				<stop  offset="1" style="stop-color:#EFEFEF"/>
			</linearGradient>
			<circle fill="url(#SVGID_25_)" cx="-5738.583" cy="-374.336" r="0.886"/>
			<linearGradient id="SVGID_26_" gradientUnits="userSpaceOnUse" x1="-5734.1821" y1="-389.9609" x2="-5687.3579" y2="-389.9609">
				<stop  offset="0" style="stop-color:#222222"/>
				<stop  offset="0.25" style="stop-color:#444444"/>
				<stop  offset="0.75" style="stop-color:#444444"/>
				<stop  offset="1" style="stop-color:#222222"/>
			</linearGradient>
			<path fill="url(#SVGID_26_)" d="M-5687.452-393.026c-0.257-2.69-3.844-4.676-3.844-4.676c-3.928-8.477-19.474-8.136-19.474-8.136
				s-15.931-0.812-19.474,8.136c0,0-3.587,1.986-3.844,4.676c0,0-2.882,18.962,23.318,18.962S-5687.452-393.026-5687.452-393.026z"
				/>
			<path opacity="0.3" d="M-5691.168-388.991c0,0-2.626-5.83-3.267-8.007c-0.641-2.178-3.139-2.562-3.139-2.562
				c-4.741-0.705-13.197-0.961-13.197-0.961s-8.456,0.256-13.196,0.961c0,0-2.499,0.384-3.139,2.562
				c-0.641,2.177-3.267,8.007-3.267,8.007s-1.025,1.858,1.088,1.858h18.514h18.514
				C-5690.143-387.133-5691.168-388.991-5691.168-388.991z"/>
		</g>
	</g>
	<g>
		
			<radialGradient id="SVGID_27_" cx="-3229.1699" cy="177.4473" r="151.4131" gradientTransform="matrix(1 0 0 0.6082 0 69.5244)" gradientUnits="userSpaceOnUse">
			<stop  offset="0" style="stop-color:#FFFFFF;stop-opacity:0.75"/>
			<stop  offset="1" style="stop-color:#FFFFFF;stop-opacity:0"/>
		</radialGradient>
		<path fill="url(#SVGID_27_)" d="M-3082.57,67.9c-3.447-13.223-13.798-58.066-41.968-94.285c0,0,13.798,85.086-104.632,85.086
			c-118.432,0-104.631-85.086-104.631-85.086c-28.171,36.218-38.519,81.062-41.971,94.285c-3.449,13.224-13.222,58.64,0,132.804
			c13.224,74.163,146.602,71.865,146.602,71.865s133.379,2.298,146.6-71.865C-3069.347,126.54-3079.12,81.124-3082.57,67.9z"/>
		<g>
			<path d="M-3229.17,213.078c-87.643,0-120.202-35.086-120.202-35.086c3.744,54.722,120.202,52.58,120.202,52.58
				s116.459,2.142,120.204-52.58C-3108.966,177.992-3141.524,213.078-3229.17,213.078z"/>
			<linearGradient id="SVGID_28_" gradientUnits="userSpaceOnUse" x1="-3373.4512" y1="81.6191" x2="-3084.8896" y2="81.6191">
				<stop  offset="0" style="stop-color:#EFEFEF"/>
				<stop  offset="0.25" style="stop-color:#FFFFFF"/>
				<stop  offset="0.75" style="stop-color:#FFFFFF"/>
				<stop  offset="1" style="stop-color:#EFEFEF"/>
			</linearGradient>
			<path fill="url(#SVGID_28_)" d="M-3091.214,29.677c-3.245-12.443-12.983-54.64-39.493-88.725c0,0,12.984,80.069-98.463,80.069
				s-98.463-80.069-98.463-80.069c-26.51,34.084-36.247,76.282-39.495,88.725c-3.245,12.443-12.441,55.183,0,124.975
				c12.444,69.791,137.958,67.625,137.958,67.625s125.514,2.166,137.956-67.625C-3078.771,84.86-3087.967,42.121-3091.214,29.677z"
				/>
			<path opacity="0.12" d="M-3229.17,197.12c0,0-89.375,4.871-137.958-42.468c12.444,69.791,137.958,67.625,137.958,67.625
				s125.514,2.166,137.956-67.625C-3139.795,201.991-3229.17,197.12-3229.17,197.12z"/>
			<g>
				<path fill="#B0286C" d="M-3096.028,12.188l-0.03-0.37c9.761,106.031-133.111,101.716-133.111,101.716
					S-3078.635,122.841-3096.028,12.188z"/>
				<path fill="#B0286C" d="M-3362.279,11.818l-0.033,0.37c-17.393,110.652,133.143,101.346,133.143,101.346
					S-3372.038,117.85-3362.279,11.818z"/>
			</g>
			<path fill="#EB9C18" d="M-3229.17,164.661c0,0-118.68,0.265-143.602-56.27v5.336c24.922,56.533,143.602,56.269,143.602,56.269
				s118.682,0.265,143.603-56.269v-5.336C-3110.488,164.926-3229.17,164.661-3229.17,164.661z"/>
			<path fill="#B0286C" d="M-3229.17,174.67c0,0-114.625-2.892-141.845-46.486l1.356,10.12
				c29.463,41.647,140.488,44.446,140.488,44.446s111.026-2.799,140.488-44.446l1.356-10.12
				C-3114.545,171.778-3229.17,174.67-3229.17,174.67z"/>
			<path opacity="0.08" d="M-3124.756,57.54c-36.515-7.575-104.402-7.034-104.414-7.034s-67.899-0.541-104.413,7.034
				c0,0-14.202,2.93-15.149,7.034v1.102c0.947-4.101,15.149-7.033,15.149-7.033c36.511-7.572,104.392-7.032,104.413-7.032l0,0l0,0
				l0,0l0,0c0.023,0,67.903-0.541,104.414,7.032c0,0,14.202,2.932,15.148,7.033v-1.102
				C-3110.554,60.47-3124.756,57.54-3124.756,57.54z"/>
			<path opacity="0.2" fill="#FFFFFF" d="M-3229.17,221.136L-3229.17,221.136L-3229.17,221.136L-3229.17,221.136L-3229.17,221.136
				c-0.049,0.003-126.197,1.446-139.02-73.447v2.159c12.823,74.897,138.994,73.447,139.02,73.447s126.197,1.45,139.021-73.447
				v-2.159C-3102.971,222.582-3229.119,221.139-3229.17,221.136z"/>
			<linearGradient id="SVGID_29_" gradientUnits="userSpaceOnUse" x1="-3135.7686" y1="25.1914" x2="-3096.291" y2="25.1914">
				<stop  offset="0" style="stop-color:#222222"/>
				<stop  offset="0.25" style="stop-color:#444444"/>
				<stop  offset="0.75" style="stop-color:#444444"/>
				<stop  offset="1" style="stop-color:#222222"/>
			</linearGradient>
			<path opacity="0.2" fill="url(#SVGID_29_)" d="M-3117.362-5.127c0,0-18.934-3.606-18.395,5.049
				c0.543,8.657,3.788,41.117,15.509,47.25c11.723,6.13,17.677,9.084,17.677,9.084s12.98-31.987,1.62-51.103
				C-3100.951,5.153-3104.58-1.97-3117.362-5.127z"/>
			<linearGradient id="SVGID_30_" gradientUnits="userSpaceOnUse" x1="-3132.4229" y1="23.6152" x2="-3096.7324" y2="23.6152">
				<stop  offset="0" style="stop-color:#EFEFEF"/>
				<stop  offset="0.25" style="stop-color:#FFFFFF"/>
				<stop  offset="0.75" style="stop-color:#FFFFFF"/>
				<stop  offset="1" style="stop-color:#EFEFEF"/>
			</linearGradient>
			<path fill="url(#SVGID_30_)" d="M-3116.912-3.685c0,0-15.777-3.967-15.508,4.329c0.27,8.295,1.803,29.394,6.582,37.15
				c4.78,7.754,17.225,13.436,17.225,13.436s4.146,2.342,6.311-1.984c2.162-4.33,11-28.584,0.631-43.913
				C-3101.672,5.333-3105.73-1.605-3116.912-3.685z"/>
			<linearGradient id="SVGID_31_" gradientUnits="userSpaceOnUse" x1="-3128.4365" y1="19.5176" x2="-3101.4404" y2="19.5176">
				<stop  offset="0" style="stop-color:#222222"/>
				<stop  offset="0.25" style="stop-color:#444444"/>
				<stop  offset="0.75" style="stop-color:#444444"/>
				<stop  offset="1" style="stop-color:#222222"/>
			</linearGradient>
			<circle opacity="0.1" fill="url(#SVGID_31_)" cx="-3114.938" cy="19.519" r="13.498"/>
			<linearGradient id="SVGID_32_" gradientUnits="userSpaceOnUse" x1="-3126.0273" y1="19.4771" x2="-3103.8096" y2="19.4771">
				<stop  offset="0" style="stop-color:#EFEFEF"/>
				<stop  offset="0.25" style="stop-color:#FFFFFF"/>
				<stop  offset="0.75" style="stop-color:#FFFFFF"/>
				<stop  offset="1" style="stop-color:#EFEFEF"/>
			</linearGradient>
			<circle fill="url(#SVGID_32_)" cx="-3114.918" cy="19.477" r="11.109"/>
			<linearGradient id="SVGID_33_" gradientUnits="userSpaceOnUse" x1="-3365.2627" y1="25.1914" x2="-3325.7842" y2="25.1914">
				<stop  offset="0" style="stop-color:#222222"/>
				<stop  offset="0.25" style="stop-color:#444444"/>
				<stop  offset="0.75" style="stop-color:#444444"/>
				<stop  offset="1" style="stop-color:#222222"/>
			</linearGradient>
			<path opacity="0.2" fill="url(#SVGID_33_)" d="M-3344.191-5.127c0,0,18.936-3.606,18.396,5.049
				c-0.54,8.657-3.787,41.117-15.51,47.25c-11.721,6.13-17.675,9.084-17.675,9.084s-12.981-31.987-1.621-51.103
				C-3360.602,5.153-3356.973-1.97-3344.191-5.127z"/>
			<linearGradient id="SVGID_34_" gradientUnits="userSpaceOnUse" x1="-3364.8203" y1="23.6152" x2="-3329.1289" y2="23.6152">
				<stop  offset="0" style="stop-color:#EFEFEF"/>
				<stop  offset="0.25" style="stop-color:#FFFFFF"/>
				<stop  offset="0.75" style="stop-color:#FFFFFF"/>
				<stop  offset="1" style="stop-color:#EFEFEF"/>
			</linearGradient>
			<path fill="url(#SVGID_34_)" d="M-3344.643-3.685c0,0,15.78-3.967,15.51,4.329c-0.27,8.295-1.803,29.394-6.582,37.15
				c-4.779,7.754-17.223,13.436-17.223,13.436s-4.146,2.342-6.312-1.984c-2.164-4.33-10.998-28.584-0.631-43.913
				C-3359.881,5.333-3355.823-1.605-3344.643-3.685z"/>
			<linearGradient id="SVGID_35_" gradientUnits="userSpaceOnUse" x1="-3360.1113" y1="19.5176" x2="-3333.1152" y2="19.5176">
				<stop  offset="0" style="stop-color:#222222"/>
				<stop  offset="0.25" style="stop-color:#444444"/>
				<stop  offset="0.75" style="stop-color:#444444"/>
				<stop  offset="1" style="stop-color:#222222"/>
			</linearGradient>
			<circle opacity="0.1" fill="url(#SVGID_35_)" cx="-3346.613" cy="19.519" r="13.498"/>
			<linearGradient id="SVGID_36_" gradientUnits="userSpaceOnUse" x1="-3357.7422" y1="19.4771" x2="-3335.5234" y2="19.4771">
				<stop  offset="0" style="stop-color:#EFEFEF"/>
				<stop  offset="0.25" style="stop-color:#FFFFFF"/>
				<stop  offset="0.75" style="stop-color:#FFFFFF"/>
				<stop  offset="1" style="stop-color:#EFEFEF"/>
			</linearGradient>
			<circle fill="url(#SVGID_36_)" cx="-3346.633" cy="19.477" r="11.109"/>
			<path fill="#444444" d="M-3130.707-59.047c-1.082-11.36-16.23-19.747-16.23-19.747c-16.59-35.796-82.232-34.354-82.232-34.354
				s-67.271-3.427-82.232,34.354c0,0-15.148,8.386-16.23,19.747c0,0-12.171,80.069,98.463,80.069
				C-3118.535,21.021-3130.707-59.047-3130.707-59.047z"/>
			<path opacity="0.3" d="M-3146.396-42.006c0,0-11.09-24.615-13.794-33.813c-2.707-9.197-13.257-10.819-13.257-10.819
				c-20.016-2.976-55.723-4.058-55.723-4.058s-35.707,1.083-55.724,4.058c0,0-10.55,1.623-13.255,10.819
				c-2.706,9.198-13.795,33.813-13.795,33.813s-4.33,7.845,4.598,7.845h78.176h78.175
				C-3142.068-34.161-3146.396-42.006-3146.396-42.006z"/>
		</g>
	</g>
	<g>
		
			<radialGradient id="SVGID_37_" cx="-3229.1699" cy="-635.5127" r="151.4133" gradientTransform="matrix(1 0 0 0.6082 0 -248.9958)" gradientUnits="userSpaceOnUse">
			<stop  offset="0" style="stop-color:#FFFFFF;stop-opacity:0.75"/>
			<stop  offset="1" style="stop-color:#FFFFFF;stop-opacity:0"/>
		</radialGradient>
		<path fill="url(#SVGID_37_)" d="M-3082.57-745.06c-3.447-13.223-13.798-58.066-41.968-94.285c0,0,13.798,85.086-104.632,85.086
			c-118.432,0-104.631-85.086-104.631-85.086c-28.171,36.218-38.519,81.062-41.971,94.285c-3.449,13.224-13.222,58.64,0,132.804
			c13.224,74.163,146.602,71.865,146.602,71.865s133.379,2.298,146.6-71.865C-3069.347-686.419-3079.12-731.836-3082.57-745.06z"/>
		<path d="M-3229.17-599.881c-87.643,0-120.202-35.086-120.202-35.086c3.744,54.722,120.202,52.58,120.202,52.58
			s116.459,2.142,120.204-52.58C-3108.966-634.967-3141.524-599.881-3229.17-599.881z"/>
		<path fill="#FFFFFF" stroke="#DDDDDD" stroke-miterlimit="10" d="M-3091.214-783.282c-3.245-12.443-12.983-54.64-39.493-88.725
			c0,0,12.984,80.069-98.463,80.069s-98.463-80.069-98.463-80.069c-26.51,34.084-36.247,76.282-39.495,88.725
			c-3.245,12.443-12.441,55.183,0,124.975c12.444,69.791,137.958,67.625,137.958,67.625s125.514,2.166,137.956-67.625
			C-3078.771-728.1-3087.967-770.839-3091.214-783.282z"/>
		<path opacity="0.12" d="M-3229.17-615.839c0,0-89.375,4.871-137.958-42.468c12.444,69.791,137.958,67.625,137.958,67.625
			s125.514,2.166,137.956-67.625C-3139.795-610.968-3229.17-615.839-3229.17-615.839z"/>
		<g>
			<path fill="#B0286C" stroke="#DDDDDD" stroke-miterlimit="10" d="M-3096.028-800.771l-0.03-0.37
				c9.761,106.031-133.111,101.716-133.111,101.716S-3078.635-690.119-3096.028-800.771z"/>
			<path fill="#B0286C" stroke="#DDDDDD" stroke-miterlimit="10" d="M-3362.279-801.141l-0.033,0.37
				c-17.393,110.652,133.143,101.346,133.143,101.346S-3372.038-695.11-3362.279-801.141z"/>
		</g>
		<path fill="#EB9C18" stroke="#DDDDDD" stroke-miterlimit="10" d="M-3229.17-648.298c0,0-118.68,0.265-143.602-56.27v5.336
			c24.922,56.533,143.602,56.269,143.602,56.269s118.682,0.265,143.603-56.269v-5.336
			C-3110.488-648.034-3229.17-648.298-3229.17-648.298z"/>
		<path fill="#B0286C" stroke="#DDDDDD" stroke-miterlimit="10" d="M-3229.17-638.29c0,0-114.625-2.892-141.845-46.486l1.356,10.12
			c29.463,41.647,140.488,44.446,140.488,44.446s111.026-2.799,140.488-44.446l1.356-10.12
			C-3114.545-641.181-3229.17-638.29-3229.17-638.29z"/>
		<path opacity="0.08" d="M-3124.756-755.42c-36.515-7.575-104.402-7.034-104.414-7.034s-67.899-0.541-104.413,7.034
			c0,0-14.202,2.93-15.149,7.034v1.102c0.947-4.101,15.149-7.033,15.149-7.033c36.511-7.572,104.392-7.032,104.413-7.032l0,0l0,0
			l0,0l0,0c0.023,0,67.903-0.541,104.414,7.032c0,0,14.202,2.932,15.148,7.033v-1.102
			C-3110.554-752.49-3124.756-755.42-3124.756-755.42z"/>
		<path opacity="0.2" fill="#FFFFFF" d="M-3229.17-591.824L-3229.17-591.824L-3229.17-591.824L-3229.17-591.824L-3229.17-591.824
			c-0.049,0.003-126.197,1.446-139.02-73.447v2.159c12.823,74.897,138.994,73.447,139.02,73.447s126.197,1.45,139.021-73.447v-2.159
			C-3102.971-590.377-3229.119-591.821-3229.17-591.824z"/>
		<path fill="none" stroke="#DDDDDD" stroke-miterlimit="10" d="M-3117.362-818.087c0,0-18.934-3.606-18.395,5.049
			c0.543,8.657,3.788,41.117,15.509,47.25c11.723,6.13,17.677,9.084,17.677,9.084s12.98-31.987,1.62-51.103
			C-3100.951-807.807-3104.58-814.93-3117.362-818.087z"/>
		<path fill="#FFFFFF" d="M-3116.912-816.644c0,0-15.777-3.967-15.508,4.329c0.27,8.295,1.803,29.394,6.582,37.15
			c4.78,7.754,17.225,13.436,17.225,13.436s4.146,2.342,6.311-1.984c2.162-4.33,11-28.584,0.631-43.913
			C-3101.672-807.627-3105.73-814.565-3116.912-816.644z"/>
		<circle fill="#FFFFFF" stroke="#DDDDDD" stroke-miterlimit="10" cx="-3114.938" cy="-793.441" r="13.498"/>
		<path fill="none" stroke="#DDDDDD" stroke-miterlimit="10" d="M-3341.191-818.087c0,0,18.936-3.606,18.396,5.049
			c-0.54,8.657-3.787,41.117-15.51,47.25c-11.721,6.13-17.675,9.084-17.675,9.084s-12.981-31.987-1.621-51.103
			C-3357.602-807.807-3353.973-814.93-3341.191-818.087z"/>
		<path fill="#FFFFFF" d="M-3341.643-816.644c0,0,15.78-3.967,15.51,4.329c-0.27,8.295-1.803,29.394-6.582,37.15
			c-4.779,7.754-17.223,13.436-17.223,13.436s-4.146,2.342-6.312-1.984c-2.164-4.33-10.998-28.584-0.631-43.913
			C-3356.881-807.627-3352.823-814.565-3341.643-816.644z"/>
		<circle fill="#FFFFFF" stroke="#DDDDDD" stroke-miterlimit="10" cx="-3343.613" cy="-793.441" r="13.498"/>
		<path stroke="#DDDDDD" stroke-miterlimit="10" d="M-3130.707-872.007c-1.082-11.36-16.23-19.747-16.23-19.747
			c-16.59-35.796-82.232-34.354-82.232-34.354s-67.271-3.427-82.232,34.354c0,0-15.148,8.386-16.23,19.747
			c0,0-12.171,80.069,98.463,80.069C-3118.535-791.938-3130.707-872.007-3130.707-872.007z"/>
		<path stroke="#DDDDDD" stroke-miterlimit="10" d="M-3146.396-854.965c0,0-11.09-24.615-13.794-33.813
			c-2.707-9.197-13.257-10.819-13.257-10.819c-20.016-2.976-55.723-4.058-55.723-4.058s-35.707,1.083-55.724,4.058
			c0,0-10.55,1.623-13.255,10.819c-2.706,9.198-13.795,33.813-13.795,33.813s-4.33,7.845,4.598,7.845h78.176h78.175
			C-3142.068-847.121-3146.396-854.965-3146.396-854.965z"/>
	</g>
	<rect x="-2796.421" y="8.922" fill="#FFFFFF" width="495.072" height="70.555"/>
	<rect x="-2796.421" y="90.397" fill="#FFFFFF" width="495.072" height="70.555"/>
	<rect x="-2796.421" y="172.411" fill="#FFFFFF" width="495.072" height="70.555"/>
	<g>
		<radialGradient id="SVGID_38_" cx="-1546.002" cy="123.0962" r="151.4133" gradientUnits="userSpaceOnUse">
			<stop  offset="0.7546" style="stop-color:#C4C4C4;stop-opacity:0.75"/>
			<stop  offset="1" style="stop-color:#FFFFFF;stop-opacity:0"/>
		</radialGradient>
		<path fill="url(#SVGID_38_)" d="M-1399.401,67.9c-3.447-13.223-13.798-58.066-41.968-94.285c0,0,13.798,85.086-104.632,85.086
			c-118.432,0-104.631-85.086-104.631-85.086c-28.171,36.218-38.519,81.062-41.971,94.285c-3.449,13.224-13.222,58.64,0,132.804
			c13.224,74.163,146.602,71.865,146.602,71.865s133.379,2.298,146.6-71.865C-1386.178,126.54-1395.951,81.124-1399.401,67.9z"/>
		<g>
			<path d="M-1546.001,213.078c-87.643,0-120.202-35.086-120.202-35.086c3.744,54.722,120.202,52.58,120.202,52.58
				s116.459,2.142,120.204-52.58C-1425.797,177.992-1458.355,213.078-1546.001,213.078z"/>
			<linearGradient id="SVGID_39_" gradientUnits="userSpaceOnUse" x1="-1690.2822" y1="81.6191" x2="-1401.7207" y2="81.6191">
				<stop  offset="0" style="stop-color:#EFEFEF"/>
				<stop  offset="0.25" style="stop-color:#FFFFFF"/>
				<stop  offset="0.75" style="stop-color:#FFFFFF"/>
				<stop  offset="1" style="stop-color:#EFEFEF"/>
			</linearGradient>
			<path fill="url(#SVGID_39_)" d="M-1408.045,29.677c-3.245-12.443-12.983-54.64-39.493-88.725c0,0,12.984,80.069-98.463,80.069
				s-98.463-80.069-98.463-80.069c-26.51,34.084-36.247,76.282-39.495,88.725c-3.245,12.443-12.441,55.183,0,124.975
				c12.444,69.791,137.958,67.625,137.958,67.625s125.514,2.166,137.956-67.625C-1395.603,84.86-1404.798,42.121-1408.045,29.677z"
				/>
			<path opacity="0.12" d="M-1546.001,197.12c0,0-89.375,4.871-137.958-42.468c12.444,69.791,137.958,67.625,137.958,67.625
				s125.514,2.166,137.956-67.625C-1456.626,201.991-1546.001,197.12-1546.001,197.12z"/>
			<g>
				<path fill="#1786DC" d="M-1412.859,12.188l-0.03-0.37c9.761,106.031-133.111,101.716-133.111,101.716
					S-1395.466,122.841-1412.859,12.188z"/>
				<path fill="#1786DC" d="M-1679.11,11.818l-0.033,0.37c-17.393,110.652,133.143,101.346,133.143,101.346
					S-1688.869,117.85-1679.11,11.818z"/>
			</g>
			<path fill="#AFAFAF" d="M-1546.001,164.661c0,0-118.68,0.265-143.602-56.27v5.336c24.922,56.533,143.602,56.269,143.602,56.269
				s118.682,0.265,143.603-56.269v-5.336C-1427.319,164.926-1546.001,164.661-1546.001,164.661z"/>
			<path fill="#1786DC" d="M-1546.001,174.67c0,0-114.625-2.892-141.845-46.486l1.356,10.12
				c29.463,41.647,140.488,44.446,140.488,44.446s111.026-2.799,140.488-44.446l1.356-10.12
				C-1431.376,171.778-1546.001,174.67-1546.001,174.67z"/>
			<path opacity="0.08" d="M-1441.587,57.54c-36.515-7.575-104.402-7.034-104.414-7.034s-67.899-0.541-104.413,7.034
				c0,0-14.202,2.93-15.149,7.034v1.102c0.947-4.101,15.149-7.033,15.149-7.033c36.511-7.572,104.392-7.032,104.413-7.032l0,0l0,0
				l0,0l0,0c0.022,0,67.903-0.541,104.414,7.032c0,0,14.202,2.932,15.148,7.033v-1.102
				C-1427.385,60.47-1441.587,57.54-1441.587,57.54z"/>
			<path opacity="0.2" fill="#FFFFFF" d="M-1546.001,221.136L-1546.001,221.136L-1546.001,221.136L-1546.001,221.136
				L-1546.001,221.136c-0.049,0.003-126.197,1.446-139.02-73.447v2.159c12.823,74.897,138.993,73.447,139.02,73.447
				c0.025,0,126.197,1.45,139.021-73.447v-2.159C-1419.802,222.582-1545.95,221.139-1546.001,221.136z"/>
			<linearGradient id="SVGID_40_" gradientUnits="userSpaceOnUse" x1="-1452.5996" y1="25.1914" x2="-1413.1211" y2="25.1914">
				<stop  offset="0" style="stop-color:#222222"/>
				<stop  offset="0.25" style="stop-color:#444444"/>
				<stop  offset="0.75" style="stop-color:#444444"/>
				<stop  offset="1" style="stop-color:#222222"/>
			</linearGradient>
			<path opacity="0.2" fill="url(#SVGID_40_)" d="M-1434.193-5.127c0,0-18.934-3.606-18.395,5.049
				c0.543,8.657,3.788,41.117,15.509,47.25c11.723,6.13,17.677,9.084,17.677,9.084s12.98-31.987,1.62-51.103
				C-1417.782,5.153-1421.412-1.97-1434.193-5.127z"/>
			<linearGradient id="SVGID_41_" gradientUnits="userSpaceOnUse" x1="-1449.2549" y1="23.6152" x2="-1413.5635" y2="23.6152">
				<stop  offset="0" style="stop-color:#EFEFEF"/>
				<stop  offset="0.25" style="stop-color:#FFFFFF"/>
				<stop  offset="0.75" style="stop-color:#FFFFFF"/>
				<stop  offset="1" style="stop-color:#EFEFEF"/>
			</linearGradient>
			<path fill="url(#SVGID_41_)" d="M-1433.744-3.685c0,0-15.776-3.967-15.507,4.329c0.27,8.295,1.803,29.394,6.582,37.15
				c4.78,7.754,17.225,13.436,17.225,13.436s4.146,2.342,6.311-1.984c2.162-4.33,11-28.584,0.631-43.913
				C-1418.503,5.333-1422.562-1.605-1433.744-3.685z"/>
			<linearGradient id="SVGID_42_" gradientUnits="userSpaceOnUse" x1="-1445.2676" y1="19.5176" x2="-1418.2715" y2="19.5176">
				<stop  offset="0" style="stop-color:#222222"/>
				<stop  offset="0.25" style="stop-color:#444444"/>
				<stop  offset="0.75" style="stop-color:#444444"/>
				<stop  offset="1" style="stop-color:#222222"/>
			</linearGradient>
			<circle opacity="0.1" fill="url(#SVGID_42_)" cx="-1431.77" cy="19.519" r="13.498"/>
			<linearGradient id="SVGID_43_" gradientUnits="userSpaceOnUse" x1="-1442.8594" y1="19.4771" x2="-1420.6406" y2="19.4771">
				<stop  offset="0" style="stop-color:#EFEFEF"/>
				<stop  offset="0.25" style="stop-color:#FFFFFF"/>
				<stop  offset="0.75" style="stop-color:#FFFFFF"/>
				<stop  offset="1" style="stop-color:#EFEFEF"/>
			</linearGradient>
			<circle fill="url(#SVGID_43_)" cx="-1431.75" cy="19.477" r="11.109"/>
			<linearGradient id="SVGID_44_" gradientUnits="userSpaceOnUse" x1="-1682.0928" y1="25.1914" x2="-1642.6152" y2="25.1914">
				<stop  offset="0" style="stop-color:#222222"/>
				<stop  offset="0.25" style="stop-color:#444444"/>
				<stop  offset="0.75" style="stop-color:#444444"/>
				<stop  offset="1" style="stop-color:#222222"/>
			</linearGradient>
			<path opacity="0.2" fill="url(#SVGID_44_)" d="M-1661.022-5.127c0,0,18.936-3.606,18.396,5.049
				c-0.54,8.657-3.787,41.117-15.51,47.25c-11.721,6.13-17.675,9.084-17.675,9.084s-12.981-31.987-1.621-51.103
				C-1677.433,5.153-1673.804-1.97-1661.022-5.127z"/>
			<linearGradient id="SVGID_45_" gradientUnits="userSpaceOnUse" x1="-1681.6514" y1="23.6152" x2="-1645.96" y2="23.6152">
				<stop  offset="0" style="stop-color:#EFEFEF"/>
				<stop  offset="0.25" style="stop-color:#FFFFFF"/>
				<stop  offset="0.75" style="stop-color:#FFFFFF"/>
				<stop  offset="1" style="stop-color:#EFEFEF"/>
			</linearGradient>
			<path fill="url(#SVGID_45_)" d="M-1661.474-3.685c0,0,15.78-3.967,15.51,4.329c-0.27,8.295-1.803,29.394-6.582,37.15
				c-4.779,7.754-17.223,13.436-17.223,13.436s-4.146,2.342-6.312-1.984c-2.164-4.33-10.998-28.584-0.631-43.913
				C-1676.712,5.333-1672.654-1.605-1661.474-3.685z"/>
			<linearGradient id="SVGID_46_" gradientUnits="userSpaceOnUse" x1="-1676.9424" y1="19.5176" x2="-1649.9463" y2="19.5176">
				<stop  offset="0" style="stop-color:#222222"/>
				<stop  offset="0.25" style="stop-color:#444444"/>
				<stop  offset="0.75" style="stop-color:#444444"/>
				<stop  offset="1" style="stop-color:#222222"/>
			</linearGradient>
			<circle opacity="0.1" fill="url(#SVGID_46_)" cx="-1663.444" cy="19.519" r="13.498"/>
			<linearGradient id="SVGID_47_" gradientUnits="userSpaceOnUse" x1="-1674.5732" y1="19.4771" x2="-1652.3545" y2="19.4771">
				<stop  offset="0" style="stop-color:#EFEFEF"/>
				<stop  offset="0.25" style="stop-color:#FFFFFF"/>
				<stop  offset="0.75" style="stop-color:#FFFFFF"/>
				<stop  offset="1" style="stop-color:#EFEFEF"/>
			</linearGradient>
			<circle fill="url(#SVGID_47_)" cx="-1663.464" cy="19.477" r="11.109"/>
			<path fill="#444444" d="M-1447.538-59.047c-1.082-11.36-16.23-19.747-16.23-19.747c-16.591-35.796-82.232-34.354-82.232-34.354
				s-67.271-3.427-82.232,34.354c0,0-15.148,8.386-16.23,19.747c0,0-12.171,80.069,98.463,80.069
				C-1435.366,21.021-1447.538-59.047-1447.538-59.047z"/>
			<path opacity="0.3" d="M-1463.228-42.006c0,0-11.09-24.615-13.794-33.813c-2.707-9.197-13.258-10.819-13.258-10.819
				c-20.015-2.976-55.722-4.058-55.722-4.058s-35.707,1.083-55.724,4.058c0,0-10.551,1.623-13.255,10.819
				c-2.706,9.198-13.796,33.813-13.796,33.813s-4.329,7.845,4.598,7.845h78.177h78.175
				C-1458.899-34.161-1463.228-42.006-1463.228-42.006z"/>
		</g>
	</g>
	<rect x="-1113.252" y="8.922" fill="#F4F4F4" width="495.072" height="70.555"/>
	<rect x="-1113.252" y="90.397" fill="#F4F4F4" width="495.072" height="70.555"/>
	<rect x="-1113.252" y="172.411" fill="#F4F4F4" width="495.072" height="70.555"/>
	<rect x="-1113.252" y="259.406" fill="#1786DC" width="271.33" height="81.919"/>
	<rect x="728.063" y="8.922" fill="#F4F4F4" width="495.072" height="70.555"/>
	<rect x="728.063" y="90.397" fill="#F4F4F4" width="495.072" height="70.555"/>
	<rect x="728.063" y="172.411" fill="#F4F4F4" width="495.072" height="70.555"/>
	<rect x="728.063" y="259.406" fill="#1786DC" width="271.329" height="81.919"/>
	<g>
		
			<radialGradient id="SVGID_48_" cx="169.0449" cy="200.8926" r="94.823" gradientTransform="matrix(1 0 0 0.6082 0 78.7103)" gradientUnits="userSpaceOnUse">
			<stop  offset="0" style="stop-color:#FFFFFF;stop-opacity:0.75"/>
			<stop  offset="1" style="stop-color:#FFFFFF;stop-opacity:0"/>
		</radialGradient>
		<path fill="url(#SVGID_48_)" d="M260.854,132.288c-2.158-8.28-8.641-36.364-26.283-59.045c0,0,8.643,53.285-65.525,53.285
			c-74.166,0-65.523-53.285-65.523-53.285c-17.643,22.681-24.123,50.765-26.285,59.045c-2.158,8.282-8.279,36.725,0,83.17
			c8.281,46.445,91.809,45.006,91.809,45.006s83.529,1.439,91.809-45.006C269.135,169.013,263.014,140.569,260.854,132.288z"/>
		<path d="M169.045,223.208c-54.885,0-75.275-21.975-75.275-21.975c2.346,34.27,75.275,32.928,75.275,32.928
			s72.934,1.342,75.279-32.928C244.324,201.233,223.934,223.208,169.045,223.208z"/>
		<path fill="#FFFFFF" stroke="#DDDDDD" stroke-miterlimit="10" d="M255.441,108.351c-2.033-7.792-8.131-34.218-24.734-55.564
			c0,0,8.133,50.144-61.662,50.144c-69.793,0-61.662-50.144-61.662-50.144c-16.6,21.346-22.699,47.772-24.732,55.564
			c-2.033,7.792-7.792,34.558,0,78.267c7.793,43.705,86.395,42.35,86.395,42.35s78.604,1.355,86.396-42.35
			C263.232,142.909,257.475,116.144,255.441,108.351z"/>
		<path opacity="0.12" d="M169.045,213.212c0,0-55.969,3.053-86.395-26.594c7.793,43.705,86.395,42.35,86.395,42.35
			s78.604,1.355,86.396-42.35C225.018,216.265,169.045,213.212,169.045,213.212z"/>
		<g>
			<path fill="#B0286C" stroke="#DDDDDD" stroke-miterlimit="10" d="M252.426,97.399l-0.02-0.232
				c6.113,66.403-83.361,63.7-83.361,63.7S263.318,166.696,252.426,97.399z"/>
			<path fill="#B0286C" stroke="#DDDDDD" stroke-miterlimit="10" d="M85.686,97.167l-0.02,0.232
				c-10.893,69.297,83.379,63.468,83.379,63.468S79.574,163.57,85.686,97.167z"/>
		</g>
		<path fill="#EB9C18" stroke="#DDDDDD" stroke-miterlimit="10" d="M169.045,192.886c0,0-74.321,0.166-89.93-35.239v3.342
			c15.608,35.405,89.93,35.237,89.93,35.237s74.325,0.168,89.932-35.237v-3.342C243.37,193.052,169.045,192.886,169.045,192.886z"/>
		<path fill="#B0286C" stroke="#DDDDDD" stroke-miterlimit="10" d="M169.045,199.153c0,0-71.783-1.811-88.828-29.111l0.85,6.338
			c18.449,26.082,87.979,27.834,87.979,27.834s69.531-1.752,87.982-27.834l0.849-6.338
			C240.83,197.343,169.045,199.153,169.045,199.153z"/>
		<path opacity="0.08" d="M234.436,125.8c-22.867-4.744-65.383-4.405-65.383-4.405c-0.014,0-42.528-0.339-65.396,4.405
			c0,0-8.894,1.835-9.486,4.405v0.69c0.593-2.568,9.486-4.405,9.486-4.405c22.865-4.742,65.376-4.403,65.388-4.403l0,0l0,0l0,0l0,0
			c0.016,0,42.525-0.338,65.391,4.403c0,0,8.893,1.836,9.486,4.405v-0.69C243.328,127.635,234.436,125.8,234.436,125.8z"/>
		<path opacity="0.2" fill="#FFFFFF" d="M169.045,228.253L169.045,228.253L169.045,228.253L169.045,228.253L169.045,228.253
			c-0.029,0-79.029,0.904-87.06-45.996v1.352c8.03,46.904,87.045,45.996,87.06,45.996c0.017,0,79.031,0.908,87.062-45.996v-1.352
			C248.078,229.157,169.078,228.253,169.045,228.253z"/>
		<path fill="none" stroke="#DDDDDD" stroke-miterlimit="10" d="M239.064,86.555c0,0-11.855-2.258-11.52,3.162
			c0.341,5.421,2.373,25.75,9.713,29.59c7.342,3.839,11.07,5.689,11.07,5.689s8.129-20.032,1.014-32.003
			C249.342,92.993,247.07,88.532,239.064,86.555z"/>
		<path fill="#FFFFFF" d="M239.348,87.458c0,0-9.881-2.484-9.713,2.71c0.17,5.195,1.131,18.408,4.123,23.265
			c2.994,4.856,10.785,8.414,10.785,8.414s2.598,1.467,3.953-1.243c1.354-2.712,6.889-17.901,0.396-27.5
			C248.892,93.105,246.35,88.76,239.348,87.458z"/>
		<circle fill="#FFFFFF" stroke="#DDDDDD" stroke-miterlimit="10" cx="240.583" cy="101.989" r="8.454"/>
		<path fill="none" stroke="#DDDDDD" stroke-miterlimit="10" d="M98.893,86.555c0,0,11.858-2.258,11.52,3.162
			c-0.338,5.421-2.371,25.75-9.713,29.59c-7.339,3.839-11.068,5.689-11.068,5.689s-8.13-20.032-1.016-32.003
			C88.615,92.993,90.889,88.532,98.893,86.555z"/>
		<path fill="#FFFFFF" d="M98.609,87.458c0,0,9.884-2.484,9.714,2.71c-0.169,5.195-1.129,18.408-4.122,23.265
			c-2.993,4.856-10.785,8.414-10.785,8.414s-2.597,1.467-3.953-1.243c-1.355-2.712-6.888-17.901-0.396-27.5
			C89.066,93.105,91.609,88.76,98.609,87.458z"/>
		<circle fill="#FFFFFF" stroke="#DDDDDD" stroke-miterlimit="10" cx="97.376" cy="101.989" r="8.454"/>
		<path fill="#160C2C" d="M230.707,52.787c-0.676-7.114-10.164-12.366-10.164-12.366c-10.389-22.417-51.498-21.514-51.498-21.514
			s-42.129-2.146-51.497,21.514c0,0-9.486,5.252-10.165,12.366c0,0-7.621,50.144,61.662,50.144
			C238.331,102.931,230.707,52.787,230.707,52.787z M218.003,68.373h-48.958h-48.956c-5.593,0-2.88-4.913-2.88-4.913
			s6.945-15.415,8.639-21.175c1.694-5.76,8.301-6.776,8.301-6.776c12.535-1.863,34.896-2.541,34.896-2.541
			s22.362,0.678,34.896,2.541c0,0,6.607,1.016,8.303,6.776c1.693,5.76,8.639,21.175,8.639,21.175S223.593,68.373,218.003,68.373z"/>
		<path opacity="0.3" fill="#FFFFFF" d="M220.883,63.459c0,0-6.944-15.415-8.639-21.175c-1.695-5.76-8.302-6.776-8.302-6.776
			c-12.534-1.863-34.896-2.541-34.896-2.541s-22.362,0.678-34.896,2.541c0,0-6.607,1.016-8.301,6.776
			c-1.694,5.76-8.64,21.175-8.64,21.175s-2.712,4.913,2.88,4.913h48.957h48.957C223.594,68.373,220.883,63.459,220.883,63.459z"/>
	</g>
</g>
<g id="Capa_4">
	
		<text transform="matrix(1 0 0 1 -5413.1011 376.8984)" fill="#FFFFFF" font-family="'Lato-Light'" font-size="64.234" letter-spacing="-1">Tweetren</text>
	<text transform="matrix(1 0 0 1 -4624.9951 -361.8057)" fill="#FFFFFF" font-family="'Lato-Light'" font-size="36.1601">Tweetren</text>
	<g>
		<text transform="matrix(1 0 0 1 -4818.5117 -253.7363)"><tspan x="0" y="0" fill="#FFFFFF" font-family="'Lato-Regular'" font-size="31">colmenar</tspan><tspan x="0" y="29" fill="#FFFFFF" font-family="'Lato-Regular'" font-size="31">viejo</tspan></text>
	</g>
	<g>
		<text transform="matrix(1 0 0 1 -4818.5127 -79.3877)" fill="#777777" font-family="'Lato-Bold'" font-size="14">colmenar viejo</text>
	</g>
	<g>
		<text transform="matrix(1 0 0 1 -4561.4434 -79.3877)" fill="#777777" font-family="'Lato-Bold'" font-size="14">MINUTOS</text>
	</g>
	<g>
		<text transform="matrix(1 0 0 1 -4327.4502 -79.3877)" fill="#777777" font-family="'Lato-Bold'" font-size="14">PRNCIPE PO</text>
	</g>
	<g>
		<text transform="matrix(1 0 0 1 -4818.5117 -286.9883)" fill="#FFFFFF" font-family="'Lato-Bold'" font-size="16">ORIGEN</text>
	</g>
	<g>
		<text transform="matrix(1 0 0 1 -4307.498 -286.9883)" fill="#FFFFFF" font-family="'Lato-Bold'" font-size="16">DESTINO</text>
	</g>
	<text transform="matrix(1 0 0 1 -4818.5127 -101.144)" fill="#4B7AC9" font-family="'Lato-Bold'" font-size="30.8534">13:55</text>
	
		<text transform="matrix(1 0 0 1 -4553.7402 -103.4229)" fill="#4B7AC9" font-family="'Lato-Light'" font-size="84.3684" letter-spacing="-2">8</text>
	<g>
		<text transform="matrix(1 0 0 1 -4818.5127 -150.0845)" fill="#444444" font-family="'Lato-Bold'" font-size="17.2848">LNEA c4b</text>
	</g>
	<text transform="matrix(1 0 0 1 -4392.4893 -150.0845)" fill="#444444" font-family="'Lato-Bold'" font-size="17.2848">con trasbordos</text>
	<g>
		<text transform="matrix(1 0 0 1 -4374.5225 -252.6064)"><tspan x="0" y="0" fill="#FFFFFF" font-family="'Lato-Regular'" font-size="31">prncipe</tspan><tspan x="82.49" y="29" fill="#FFFFFF" font-family="'Lato-Regular'" font-size="31">po</tspan></text>
	</g>
	<text transform="matrix(1 0 0 1 -4317.0596 -101.144)" fill="#4B7AC9" font-family="'Lato-Bold'" font-size="30.8534">15:00</text>
	<g>
		<path fill="none" stroke="#FFFFFF" stroke-miterlimit="10" d="M-4790.013-353.025c-11.837,0-16.234-4.739-16.234-4.739
			c0.505,7.391,16.234,7.102,16.234,7.102s15.729,0.29,16.234-7.102C-4773.778-357.764-4778.176-353.025-4790.013-353.025z"/>
		<path fill="none" stroke="#FFFFFF" stroke-miterlimit="10" d="M-4771.38-377.795c-0.438-1.681-1.755-7.38-5.334-11.983
			c0,0,1.754,10.814-13.299,10.814s-13.299-10.814-13.299-10.814c-3.579,4.603-4.896,10.302-5.334,11.983
			c-0.438,1.68-1.681,7.453,0,16.879s18.633,9.133,18.633,9.133s16.953,0.292,18.633-9.133
			C-4769.699-370.342-4770.942-376.115-4771.38-377.795z"/>
		<path opacity="0.08" fill="none" stroke="#FFFFFF" stroke-miterlimit="10" d="M-4775.262-382.701c0,0-2.757-0.525-2.679,0.735
			c0.079,1.26,0.552,5.985,2.258,6.877c1.706,0.893,2.769,0.883,2.769,0.883s1.694-4.217,0.041-7
			C-4772.873-381.205-4773.401-382.241-4775.262-382.701z"/>
		<path opacity="0.08" fill="none" stroke="#FFFFFF" stroke-miterlimit="10" d="M-4805.197-382.701c0,0,2.756-0.525,2.679,0.735
			c-0.079,1.26-0.552,5.985-2.258,6.877c-1.706,0.893-2.769,0.883-2.769,0.883s-1.694-4.217-0.041-7
			C-4807.586-381.205-4807.058-382.241-4805.197-382.701z"/>
		<path opacity="0.12" fill="none" stroke="#FFFFFF" stroke-miterlimit="10" d="M-4790.013-355.18c0,0-12.07,0.658-18.633-5.736
			c1.681,9.426,18.633,9.133,18.633,9.133s16.953,0.292,18.633-9.133C-4777.942-354.522-4790.013-355.18-4790.013-355.18z"/>
		<g>
			<path fill="none" stroke="#FFFFFF" stroke-miterlimit="10" d="M-4772.03-380.157l-0.005-0.05
				c1.318,14.321-17.978,13.738-17.978,13.738S-4769.682-365.212-4772.03-380.157z"/>
			<path fill="none" stroke="#FFFFFF" stroke-miterlimit="10" d="M-4807.99-380.208l-0.005,0.05
				c-2.349,14.945,17.982,13.688,17.982,13.688S-4809.309-365.886-4807.99-380.208z"/>
		</g>
		<path fill="none" stroke="#FFFFFF" stroke-miterlimit="10" d="M-4790.013-359.564c0,0-16.029,0.036-19.396-7.6v0.72
			c3.366,7.636,19.396,7.6,19.396,7.6s16.029,0.036,19.396-7.6v-0.72C-4773.983-359.528-4790.013-359.564-4790.013-359.564z"/>
		<path fill="none" stroke="#FFFFFF" stroke-miterlimit="10" d="M-4790.013-358.212c0,0-15.481-0.391-19.157-6.278l0.183,1.367
			c3.979,5.625,18.975,6.003,18.975,6.003s14.995-0.378,18.975-6.003l0.183-1.367
			C-4774.531-358.603-4790.013-358.212-4790.013-358.212z"/>
		<path opacity="0.08" fill="none" stroke="#FFFFFF" stroke-miterlimit="10" d="M-4775.91-374.032
			c-4.932-1.023-14.101-0.95-14.103-0.95s-9.171-0.073-14.103,0.95c0,0-1.918,0.396-2.046,0.95v0.149
			c0.128-0.554,2.046-0.95,2.046-0.95c4.932-1.023,14.1-0.95,14.103-0.95l0,0l0,0l0,0l0,0c0.003,0,9.171-0.073,14.103,0.95
			c0,0,1.918,0.396,2.046,0.95v-0.149C-4773.992-373.636-4775.91-374.032-4775.91-374.032z"/>
		<path opacity="0.08" fill="none" stroke="#FFFFFF" stroke-miterlimit="10" d="M-4790.013-352.053L-4790.013-352.053
			L-4790.013-352.053L-4790.013-352.053L-4790.013-352.053c-0.006,0-15.82,0.181-17.427-9.207v0.271
			c1.607,9.389,17.424,9.207,17.427,9.207s15.819,0.182,17.427-9.207v-0.271C-4774.192-351.872-4790.007-352.053-4790.013-352.053z"
			/>
		<path opacity="0.2" fill="none" stroke="#FFFFFF" stroke-miterlimit="10" d="M-4774.912-382.496c0,0-2.558-0.487-2.484,0.682
			c0.074,1.169,0.512,5.554,2.095,6.381c1.584,0.828,2.388,1.228,2.388,1.228s1.753-4.321,0.219-6.902
			C-4772.695-381.107-4773.186-382.069-4774.912-382.496z"/>
		<path fill="none" stroke="#FFFFFF" stroke-miterlimit="10" d="M-4774.851-382.301c0,0-2.131-0.536-2.095,0.585
			c0.036,1.12,0.244,3.97,0.889,5.017c0.646,1.048,2.327,1.815,2.327,1.815s0.559,0.316,0.852-0.268
			c0.292-0.584,1.486-3.86,0.085-5.931C-4772.793-381.083-4773.341-382.02-4774.851-382.301z"/>
		<circle opacity="0.1" fill="none" stroke="#FFFFFF" stroke-miterlimit="10" cx="-4774.584" cy="-379.167" r="1.823"/>
		<circle fill="none" stroke="#FFFFFF" stroke-miterlimit="10" cx="-4774.582" cy="-379.173" r="1.5"/>
		<circle fill="none" stroke="#FFFFFF" stroke-miterlimit="10" cx="-4774.584" cy="-379.119" r="0.505"/>
		<path opacity="0.2" fill="none" stroke="#FFFFFF" stroke-miterlimit="10" d="M-4805.548-382.496c0,0,2.558-0.487,2.485,0.682
			c-0.074,1.169-0.512,5.554-2.095,6.381c-1.584,0.828-2.388,1.228-2.388,1.228s-1.754-4.321-0.219-6.902
			C-4807.764-381.107-4807.274-382.069-4805.548-382.496z"/>
		<path fill="none" stroke="#FFFFFF" stroke-miterlimit="10" d="M-4805.608-382.301c0,0,2.131-0.536,2.095,0.585
			c-0.036,1.12-0.244,3.97-0.89,5.017c-0.646,1.048-2.326,1.815-2.326,1.815s-0.56,0.316-0.852-0.268s-1.486-3.86-0.085-5.931
			C-4807.666-381.083-4807.119-382.02-4805.608-382.301z"/>
		<circle opacity="0.1" fill="none" stroke="#FFFFFF" stroke-miterlimit="10" cx="-4805.875" cy="-379.167" r="1.823"/>
		<circle fill="none" stroke="#FFFFFF" stroke-miterlimit="10" cx="-4805.877" cy="-379.173" r="1.5"/>
		<circle fill="none" stroke="#FFFFFF" stroke-miterlimit="10" cx="-4805.875" cy="-379.119" r="0.505"/>
		<path fill="none" stroke="#FFFFFF" stroke-miterlimit="10" d="M-4776.714-389.778c-0.146-1.535-2.191-2.667-2.191-2.667
			c-2.242-4.834-11.107-4.64-11.107-4.64s-9.086-0.462-11.107,4.64c0,0-2.045,1.132-2.191,2.667c0,0-1.644,10.814,13.299,10.814
			S-4776.714-389.778-4776.714-389.778z"/>
		<path opacity="0.7" fill="none" stroke="#FFFFFF" stroke-miterlimit="10" d="M-4778.833-387.477c0,0-1.498-3.325-1.863-4.567
			c-0.365-1.242-1.79-1.461-1.79-1.461c-2.703-0.402-7.526-0.548-7.526-0.548s-4.823,0.146-7.526,0.548c0,0-1.425,0.219-1.79,1.461
			c-0.365,1.242-1.863,4.567-1.863,4.567s-0.584,1.06,0.621,1.06h10.559h10.559
			C-4778.249-386.417-4778.833-387.477-4778.833-387.477z"/>
		<path fill="none" stroke="#FFFFFF" stroke-miterlimit="10" d="M-4779.444-387.811c0,0-1.25-2.772-1.555-3.809
			c-0.305-1.036-1.493-1.219-1.493-1.219c-2.255-0.335-7.521-0.457-7.521-0.457s-5.266,0.122-7.521,0.457
			c0,0-1.188,0.183-1.492,1.219c-0.306,1.037-1.556,3.809-1.556,3.809s-0.487,0.884,0.519,0.884h10.05h10.05
			C-4778.957-386.926-4779.444-387.811-4779.444-387.811z"/>
	</g>
	<g>
		<g>
			<path fill="#FFFFFF" d="M-4256.419-358.072c-0.196,0.196-0.473,0.323-0.776,0.322c-0.604,0-1.09-0.485-1.092-1.093l-0.005-14.032
				l-14.038-0.01c-0.6-0.005-1.089-0.494-1.094-1.094c-0.001-0.604,0.493-1.099,1.099-1.099l15.126,0.011
				c0.604,0,1.094,0.489,1.095,1.094l0.008,15.124C-4256.096-358.546-4256.222-358.269-4256.419-358.072L-4256.419-358.072z
				 M-4256.419-358.072"/>
		</g>
		<g>
			<path fill="#FFFFFF" d="M-4258.167-389.685c0.197-0.196,0.475-0.322,0.775-0.322c0.605,0,1.092,0.486,1.094,1.094l0.005,14.031
				l14.038,0.011c0.6,0.005,1.088,0.493,1.093,1.093c0,0.604-0.493,1.098-1.099,1.098l-15.125-0.01
				c-0.604,0-1.093-0.488-1.095-1.094l-0.009-15.125C-4258.489-389.21-4258.363-389.487-4258.167-389.685L-4258.167-389.685z
				 M-4258.167-389.685"/>
		</g>
	</g>
	<g>
		<g>
			<g>
				<path fill="#4B7AC9" d="M-3970.767-302.57c-0.277,0-0.562-0.107-0.775-0.32c-0.428-0.428-0.428-1.115,0-1.547l9.918-9.925
					l-9.918-9.934c-0.422-0.428-0.422-1.118,0-1.546c0.428-0.428,1.125-0.428,1.553,0l10.688,10.702
					c0.428,0.428,0.428,1.118,0.002,1.548l-10.689,10.701C-3970.202-302.677-3970.487-302.57-3970.767-302.57L-3970.767-302.57z
					 M-3970.767-302.57"/>
			</g>
		</g>
		<g>
			<g>
				<path fill="#4B7AC9" d="M-3960.409-313.054l-29.514-0.005c-0.6-0.005-1.088-0.493-1.094-1.093c0-0.605,0.494-1.098,1.1-1.099
					l29.539,0.004L-3960.409-313.054z"/>
			</g>
		</g>
	</g>
	<g>
		<g>
			<path fill="#FFFFFF" d="M-4544.251-250.473h-6.05c0.795,2.773,3.15,4.876,6.05,5.31c0.37,0.055,0.741,0.094,1.119,0.094h30.552
				v-5.404H-4544.251z M-4544.251-262.306c0.37-0.055,0.741-0.095,1.119-0.095h16.214c1.639,0,3.206,0.553,4.49,1.537
				c-5.317,0.229-9.336,1.285-9.336,2.562c0,1.439,5.129,2.616,11.455,2.616c1.654,0,3.23-0.087,4.648-0.229
				c1.056,0.614,2.127,1.135,3.088,1.449v3.245h-37.729c-0.182-0.646-0.284-1.332-0.284-2.046v-1.678
				C-4550.585-258.682-4547.835-261.761-4544.251-262.306L-4544.251-262.306z M-4540.517-256.806c0,1.125,0.914,2.046,2.049,2.046
				c1.126,0,2.048-0.913,2.048-2.046c0-1.135-0.914-2.049-2.048-2.049C-4539.61-258.855-4540.517-257.941-4540.517-256.806
				L-4540.517-256.806z M-4547.418-256.806c0,1.125,0.914,2.046,2.049,2.046c0.417,0,0.795-0.125,1.118-0.331
				c0.56-0.369,0.93-1,0.93-1.716c0-0.727-0.37-1.356-0.93-1.718c-0.323-0.212-0.701-0.331-1.118-0.331
				C-4546.504-258.855-4547.418-257.941-4547.418-256.806L-4547.418-256.806z M-4506.088-250.473h-5.743v5.404
				c1.859,0,3.829-0.851,5.271-2.214C-4505.561-248.22-4505.528-249.402-4506.088-250.473L-4506.088-250.473z M-4510.626-254.174
				c-0.37-0.049-0.772-0.151-1.197-0.292v3.253h5.735C-4506.836-252.671-4508.656-253.93-4510.626-254.174L-4510.626-254.174z
				 M-4510.626-254.174"/>
		</g>
		<g>
			<path fill="#FFFFFF" d="M-4561.555-256.806L-4561.555-256.806c0,1.125,0.913,2.046,2.048,2.046c1.127,0,2.049-0.913,2.049-2.046
				c0-1.135-0.914-2.049-2.049-2.049S-4561.555-257.941-4561.555-256.806"/>
			<path fill="#FFFFFF" d="M-4568.552-256.806L-4568.552-256.806c0,1.125,0.913,2.046,2.048,2.046c1.127,0,2.049-0.913,2.049-2.046
				c0-1.135-0.914-2.049-2.049-2.049S-4568.552-257.941-4568.552-256.806"/>
			<path fill="#FFFFFF" d="M-4575.549-256.806L-4575.549-256.806c0,1.125,0.913,2.046,2.048,2.046c1.127,0,2.049-0.913,2.049-2.046
				c0-1.135-0.914-2.049-2.049-2.049S-4575.549-257.941-4575.549-256.806"/>
			<path fill="#FFFFFF" d="M-4582.546-256.806L-4582.546-256.806c0,1.125,0.913,2.046,2.048,2.046c1.127,0,2.049-0.913,2.049-2.046
				c0-1.135-0.914-2.049-2.049-2.049S-4582.546-257.941-4582.546-256.806"/>
		</g>
		<g>
			<path fill="#FFFFFF" d="M-4482.209-256.806L-4482.209-256.806c0,1.125,0.913,2.046,2.048,2.046c1.127,0,2.049-0.913,2.049-2.046
				c0-1.135-0.914-2.049-2.049-2.049S-4482.209-257.941-4482.209-256.806"/>
			<path fill="#FFFFFF" d="M-4489.206-256.806L-4489.206-256.806c0,1.125,0.913,2.046,2.048,2.046c1.127,0,2.049-0.913,2.049-2.046
				c0-1.135-0.914-2.049-2.049-2.049S-4489.206-257.941-4489.206-256.806"/>
			<path fill="#FFFFFF" d="M-4496.203-256.806L-4496.203-256.806c0,1.125,0.913,2.046,2.048,2.046c1.127,0,2.049-0.913,2.049-2.046
				c0-1.135-0.914-2.049-2.049-2.049S-4496.203-257.941-4496.203-256.806"/>
			<path fill="#FFFFFF" d="M-4503.2-256.806L-4503.2-256.806c0,1.125,0.913,2.046,2.048,2.046c1.127,0,2.049-0.913,2.049-2.046
				c0-1.135-0.914-2.049-2.049-2.049S-4503.2-257.941-4503.2-256.806"/>
		</g>
	</g>
	<g>
		<text transform="matrix(1 0 0 1 -3449.8926 -270.9746)" fill="#FFFFFF" font-family="'Raleway'" font-size="38.8081">PrximoTren</text>
	</g>
	<g>
		<text transform="matrix(1 0 0 1 -2795.8926 -298.9746)" fill="#FFFFFF" font-family="'Raleway'" font-size="18">Horarios</text>
	</g>
	<g>
		<text transform="matrix(1 0 0 1 -2674.8926 -298.9746)" fill="#FFFFFF" font-family="'Raleway'" font-size="18">Ciudades</text>
	</g>
	<g>
		<text transform="matrix(1 0 0 1 -2544.8926 -298.9746)" fill="#FFFFFF" font-family="'Raleway'" font-size="18">Planea tu viaje</text>
	</g>
	<g>
		<text transform="matrix(1 0 0 1 -2382.8848 -298.9746)" fill="#FFFFFF" font-family="'Raleway'" font-size="18">Ayuda</text>
	</g>
	<g>
		<text transform="matrix(1 0 0 1 -2263.8848 -298.9746)" fill="#FFFFFF" font-family="'Raleway'" font-size="18">Espaol</text>
	</g>
	<text transform="matrix(1 0 0 1 -2796.4209 -136.7236)"><tspan x="0" y="0" fill="#FFFFFF" font-family="'Raleway'" font-size="38.8081">Consulta el horario de tu tren</tspan><tspan x="0" y="46.57" fill="#FFFFFF" font-family="'Raleway'" font-size="38.8081">en tiempo real</tspan></text>
	<text transform="matrix(1 0 0 1 -2796.4209 -7.7285)" fill="#FFFFFF" font-family="'Raleway-SemiBold'" font-size="18">Selecciona</text>
	<text transform="matrix(1 0 0 1 -2774.4209 52.2715)" fill="#444444" font-family="'Raleway-Medium'" font-size="24">Ciudad</text>
	<text transform="matrix(1 0 0 1 -2774.4209 133.7461)" fill="#444444" font-family="'Raleway-Medium'" font-size="24">Origen</text>
	<text transform="matrix(1 0 0 1 -2774.4209 215.7598)" fill="#444444" font-family="'Raleway-Medium'" font-size="24">Destino</text>
	<g>
		<g>
			<path fill="#444444" d="M-2329.515,44.438l-6.576-6.576c-0.401-0.401-1.052-0.401-1.452,0c-0.402,0.4-0.402,1.051,0,1.453
				l4.82,4.821h-17.562c-0.567,0-1.027,0.46-1.027,1.028c0,0.566,0.46,1.027,1.027,1.027h17.562l-4.82,4.822
				c-0.402,0.4-0.402,1.051,0,1.452c0.2,0.201,0.463,0.302,0.727,0.302c0.262,0,0.525-0.101,0.726-0.302l6.576-6.576
				C-2329.113,45.488-2329.113,44.838-2329.515,44.438L-2329.515,44.438z M-2329.515,44.438"/>
		</g>
	</g>
	<g>
		<g>
			<g>
				<path fill="#FFFFFF" d="M-2181.303-297.258l4.455-4.455c0.271-0.271,0.271-0.712,0-0.983c-0.271-0.272-0.712-0.272-0.984,0
					l-3.266,3.265v-11.896c0-0.384-0.312-0.696-0.697-0.696c-0.384,0-0.695,0.312-0.695,0.696v11.896l-3.268-3.265
					c-0.271-0.272-0.711-0.272-0.983,0c-0.136,0.136-0.204,0.313-0.204,0.492c0,0.177,0.068,0.356,0.204,0.491l4.455,4.455
					C-2182.015-296.986-2181.574-296.986-2181.303-297.258L-2181.303-297.258z M-2181.303-297.258"/>
			</g>
		</g>
	</g>
	<g>
		<g>
			<path fill="#444444" d="M-2329.515,124.948l-6.576-6.576c-0.401-0.401-1.052-0.401-1.452,0c-0.402,0.4-0.402,1.051,0,1.453
				l4.82,4.821h-17.562c-0.567,0-1.027,0.46-1.027,1.028c0,0.566,0.46,1.027,1.027,1.027h17.562l-4.82,4.822
				c-0.402,0.4-0.402,1.051,0,1.452c0.2,0.201,0.463,0.302,0.727,0.302c0.262,0,0.525-0.101,0.726-0.302l6.576-6.576
				C-2329.113,125.999-2329.113,125.349-2329.515,124.948L-2329.515,124.948z M-2329.515,124.948"/>
		</g>
	</g>
	<g>
		<g>
			<path fill="#444444" d="M-2329.515,206.962l-6.576-6.576c-0.401-0.401-1.052-0.401-1.452,0c-0.402,0.4-0.402,1.051,0,1.453
				l4.82,4.821h-17.562c-0.567,0-1.027,0.46-1.027,1.028c0,0.566,0.46,1.027,1.027,1.027h17.562l-4.82,4.822
				c-0.402,0.4-0.402,1.051,0,1.452c0.2,0.201,0.463,0.302,0.727,0.302c0.262,0,0.525-0.101,0.726-0.302l6.576-6.576
				C-2329.113,208.013-2329.113,207.362-2329.515,206.962L-2329.515,206.962z M-2329.515,206.962"/>
		</g>
	</g>
	<g>
		<text transform="matrix(1 0 0 1 -1766.7236 -270.9746)" fill="#1786DC" font-family="'Raleway'" font-size="38.8081">PrximoTren</text>
	</g>
	<g>
		<text transform="matrix(1 0 0 1 -1112.7236 -298.9746)" fill="#444444" font-family="'Raleway'" font-size="18">Horarios</text>
	</g>
	<g>
		<text transform="matrix(1 0 0 1 -991.7236 -298.9746)" fill="#444444" font-family="'Raleway'" font-size="18">Ciudades</text>
	</g>
	<g>
		<text transform="matrix(1 0 0 1 -861.7236 -298.9746)" fill="#444444" font-family="'Raleway'" font-size="18">Planea tu viaje</text>
	</g>
	<g>
		<text transform="matrix(1 0 0 1 -699.7158 -298.9746)" fill="#444444" font-family="'Raleway'" font-size="18">Ayuda</text>
	</g>
	<g>
		<text transform="matrix(1 0 0 1 -580.7158 -298.9746)" fill="#444444" font-family="'Raleway'" font-size="18">Espaol</text>
	</g>
	<text transform="matrix(1 0 0 1 -1113.252 -136.7236)"><tspan x="0" y="0" fill="#444444" font-family="'Raleway'" font-size="38.8081">Consulta el horario de tu tren</tspan><tspan x="0" y="46.57" fill="#444444" font-family="'Raleway'" font-size="38.8081">en tiempo real</tspan></text>
	<text transform="matrix(1 0 0 1 -1113.252 -7.7285)" fill="#444444" font-family="'Raleway-SemiBold'" font-size="18">Selecciona</text>
	<text transform="matrix(1 0 0 1 -1091.252 52.2715)" fill="#444444" font-family="'Raleway-Medium'" font-size="24">Ciudad</text>
	<text transform="matrix(1 0 0 1 -1091.252 133.7461)" fill="#444444" font-family="'Raleway-Medium'" font-size="24">Origen</text>
	<text transform="matrix(1 0 0 1 -1091.252 215.7598)" fill="#444444" font-family="'Raleway-Medium'" font-size="24">Destino</text>
	<text transform="matrix(1 0 0 1 -1023.1738 311.2539)" fill="#FFFFFF" font-family="'Raleway-SemiBold'" font-size="29">Buscar</text>
	<g>
		<g>
			<path fill="#444444" d="M-646.346,44.438l-6.576-6.576c-0.402-0.401-1.053-0.401-1.453,0c-0.401,0.4-0.401,1.051,0,1.453
				l4.821,4.821h-17.562c-0.567,0-1.027,0.46-1.027,1.028c0,0.566,0.46,1.027,1.027,1.027h17.562l-4.821,4.822
				c-0.401,0.4-0.401,1.051,0,1.452c0.201,0.201,0.463,0.302,0.728,0.302c0.262,0,0.525-0.101,0.726-0.302l6.576-6.576
				C-645.944,45.488-645.944,44.838-646.346,44.438L-646.346,44.438z M-646.346,44.438"/>
		</g>
	</g>
	<g>
		<g>
			<g>
				<path fill="#444444" d="M-498.134-297.258l4.455-4.455c0.271-0.271,0.271-0.712,0-0.983c-0.271-0.272-0.712-0.272-0.984,0
					l-3.266,3.265v-11.896c0-0.384-0.312-0.696-0.696-0.696c-0.385,0-0.696,0.312-0.696,0.696v11.896l-3.268-3.265
					c-0.271-0.272-0.711-0.272-0.983,0c-0.135,0.136-0.204,0.313-0.204,0.492c0,0.177,0.069,0.356,0.204,0.491l4.455,4.455
					C-498.846-296.986-498.405-296.986-498.134-297.258L-498.134-297.258z M-498.134-297.258"/>
			</g>
		</g>
	</g>
	<g>
		<text transform="matrix(1 0 0 1 1188.2295 -298.9746)" fill="#444444" font-family="'Raleway'" font-size="18">Espaol</text>
	</g>
	<g>
		<g>
			<g>
				<path fill="#444444" d="M1270.812-297.258l4.454-4.455c0.271-0.271,0.271-0.712,0-0.983c-0.271-0.272-0.711-0.272-0.983,0
					l-3.266,3.265v-11.896c0-0.384-0.313-0.696-0.696-0.696c-0.385,0-0.695,0.312-0.695,0.696v11.896l-3.269-3.265
					c-0.272-0.272-0.712-0.272-0.983,0c-0.135,0.136-0.205,0.313-0.205,0.492c0,0.177,0.07,0.356,0.205,0.491l4.455,4.455
					C1270.1-296.986,1270.541-296.986,1270.812-297.258L1270.812-297.258z M1270.812-297.258"/>
			</g>
		</g>
	</g>
	<g>
		<g>
			<path fill="#444444" d="M-646.346,124.948l-6.576-6.576c-0.402-0.401-1.053-0.401-1.453,0c-0.401,0.4-0.401,1.051,0,1.453
				l4.821,4.821h-17.562c-0.567,0-1.027,0.46-1.027,1.028c0,0.566,0.46,1.027,1.027,1.027h17.562l-4.821,4.822
				c-0.401,0.4-0.401,1.051,0,1.452c0.201,0.201,0.463,0.302,0.728,0.302c0.262,0,0.525-0.101,0.726-0.302l6.576-6.576
				C-645.944,125.999-645.944,125.349-646.346,124.948L-646.346,124.948z M-646.346,124.948"/>
		</g>
	</g>
	<g>
		<g>
			<path fill="#444444" d="M-646.346,206.962l-6.576-6.576c-0.402-0.401-1.053-0.401-1.453,0c-0.401,0.4-0.401,1.051,0,1.453
				l4.821,4.821h-17.562c-0.567,0-1.027,0.46-1.027,1.028c0,0.566,0.46,1.027,1.027,1.027h17.562l-4.821,4.822
				c-0.401,0.4-0.401,1.051,0,1.452c0.201,0.201,0.463,0.302,0.728,0.302c0.262,0,0.525-0.101,0.726-0.302l6.576-6.576
				C-645.944,208.013-645.944,207.362-646.346,206.962L-646.346,206.962z M-646.346,206.962"/>
		</g>
	</g>
	<text transform="matrix(1 0 0 1 728.0635 -136.7236)"><tspan x="0" y="0" fill="#160C2C" font-family="'Raleway'" font-size="38.8081">Consulta el horario de tu tren</tspan><tspan x="0" y="46.57" fill="#EF4C5A" font-family="'Raleway-SemiBold'" font-size="38.8081">en tiempo real</tspan></text>
	<text transform="matrix(1 0 0 1 728.0635 -7.7285)" fill="#444444" font-family="'Raleway-SemiBold'" font-size="18">Selecciona</text>
	<text transform="matrix(1 0 0 1 750.0635 52.2715)" fill="#444444" font-family="'Raleway-Medium'" font-size="24">Ciudad</text>
	<text transform="matrix(1 0 0 1 750.0635 133.7461)" fill="#444444" font-family="'Raleway-Medium'" font-size="24">Origen</text>
	<text transform="matrix(1 0 0 1 750.0635 215.7598)" fill="#444444" font-family="'Raleway-Medium'" font-size="24">Destino</text>
	<text transform="matrix(1 0 0 1 818.1416 311.2539)" fill="#FFFFFF" font-family="'Raleway-SemiBold'" font-size="29">Buscar</text>
	<g>
		<g>
			<path fill="#444444" d="M1194.969,44.438l-6.576-6.576c-0.402-0.401-1.053-0.401-1.452,0c-0.401,0.4-0.401,1.051,0,1.453
				l4.821,4.821h-17.561c-0.568,0-1.029,0.46-1.029,1.028c0,0.566,0.461,1.027,1.029,1.027h17.561l-4.821,4.822
				c-0.401,0.4-0.401,1.051,0,1.452c0.2,0.201,0.462,0.302,0.728,0.302c0.262,0,0.525-0.101,0.725-0.302l6.576-6.576
				C1195.371,45.488,1195.371,44.838,1194.969,44.438L1194.969,44.438z M1194.969,44.438"/>
		</g>
	</g>
	<g>
		<g>
			<path fill="#444444" d="M1194.969,124.948l-6.576-6.576c-0.402-0.401-1.053-0.401-1.452,0c-0.401,0.4-0.401,1.051,0,1.453
				l4.821,4.821h-17.561c-0.568,0-1.029,0.46-1.029,1.028c0,0.566,0.461,1.027,1.029,1.027h17.561l-4.821,4.822
				c-0.401,0.4-0.401,1.051,0,1.452c0.2,0.201,0.462,0.302,0.728,0.302c0.262,0,0.525-0.101,0.725-0.302l6.576-6.576
				C1195.371,125.999,1195.371,125.349,1194.969,124.948L1194.969,124.948z M1194.969,124.948"/>
		</g>
	</g>
	<g>
		<g>
			<path fill="#444444" d="M1194.969,206.962l-6.576-6.576c-0.402-0.401-1.053-0.401-1.452,0c-0.401,0.4-0.401,1.051,0,1.453
				l4.821,4.821h-17.561c-0.568,0-1.029,0.46-1.029,1.028c0,0.566,0.461,1.027,1.029,1.027h17.561l-4.821,4.822
				c-0.401,0.4-0.401,1.051,0,1.452c0.2,0.201,0.462,0.302,0.728,0.302c0.262,0,0.525-0.101,0.725-0.302l6.576-6.576
				C1195.371,208.013,1195.371,207.362,1194.969,206.962L1194.969,206.962z M1194.969,206.962"/>
		</g>
	</g>
	<g>
		
			<text transform="matrix(1 0 0 1 1570.0898 -123.6475)" fill="#FFFFFF" font-family="'Choplin-ExtraLight-DEMO'" font-size="41.9748" letter-spacing="-1">Proximo</text>
	</g>
	<g>
		<path fill="#FFFFFF" d="M1626.187-148.48l6.727-7.017l-0.882-0.765l-6.686,6.975L1626.187-148.48z"/>
	</g>
	<g>
		<path fill="#FFFFFF" d="M1628.449-146.217l6.727-7.017l-0.882-0.765l-6.687,6.975L1628.449-146.217z"/>
	</g>
	<g>
		
			<text transform="matrix(1 0 0 1 1572.9922 -74.6191)" fill="#EF4C5A" stroke="#EF4C5A" stroke-miterlimit="10" font-family="'Choplin-Medium-DEMO'" font-size="57.1712" letter-spacing="-1">TREN</text>
	</g>
</g>
</svg>
